STARTFONT 2.1
COMMENT
COMMENT Converted from OpenType font "Q:\font stuff\winfont\CgYearbookSolid.ttf" by "otf2bdf 3.0".
COMMENT
FONT -FreeType-Cg-Medium-R-Normal--179-1800-72-72-P-942-ISO10646-1
SIZE 180 72 72
FONTBOUNDINGBOX 248 226 -14 -56
STARTPROPERTIES 19
FOUNDRY "FreeType"
FAMILY_NAME "Cg"
WEIGHT_NAME "Medium"
SLANT "R"
SETWIDTH_NAME "Normal"
ADD_STYLE_NAME ""
PIXEL_SIZE 179
POINT_SIZE 1800
RESOLUTION_X 72
RESOLUTION_Y 72
SPACING "P"
AVERAGE_WIDTH 942
CHARSET_REGISTRY "ISO10646"
CHARSET_ENCODING "1"
FONT_ASCENT 0
FONT_DESCENT 0
COPYRIGHT "-FreeType-Cg-Medium-R-Normal--179-1800-72-72-P-942-ISO10646-1"
_OTF_FONTFILE "Q:\font stuff\winfont\CgYearbookSolid.ttf"
_OTF_PSNAME "CgYearbookSolid"
ENDPROPERTIES
CHARS 182
STARTCHAR 0020
ENCODING 32
SWIDTH 261 0
DWIDTH 47 0
BBX 0 0 0 0
BITMAP
ENDCHAR
STARTCHAR 0021
ENCODING 33
SWIDTH 261 0
DWIDTH 47 0
BBX 31 156 8 -23
BITMAP
FFFFFFFE
FFFFFFFE
FFFFFFFE
FFFFFFFE
FFFFFFFE
FFFFFFFE
FFFFFFFE
FFFFFFFE
FFFFFFFE
FFFFFFFE
7FFFFFFE
7FFFFFFE
7FFFFFFC
7FFFFFFC
7FFFFFFC
7FFFFFFC
7FFFFFFC
7FFFFFFC
7FFFFFFC
7FFFFFFC
7FFFFFFC
7FFFFFFC
7FFFFFFC
7FFFFFFC
7FFFFFFC
7FFFFFFC
3FFFFFFC
3FFFFFFC
3FFFFFF8
3FFFFFF8
3FFFFFF8
3FFFFFF8
3FFFFFF8
3FFFFFF8
3FFFFFF8
3FFFFFF8
3FFFFFF8
3FFFFFF8
3FFFFFF8
3FFFFFF8
3FFFFFF8
3FFFFFF8
1FFFFFF8
1FFFFFF8
1FFFFFF0
1FFFFFF0
1FFFFFF0
1FFFFFF0
1FFFFFF0
1FFFFFF0
1FFFFFF0
1FFFFFF0
1FFFFFF0
1FFFFFF0
1FFFFFF0
1FFFFFF0
1FFFFFF0
1FFFFFF0
1FFFFFF0
0FFFFFF0
0FFFFFF0
0FFFFFE0
0FFFFFE0
0FFFFFE0
0FFFFFE0
0FFFFFE0
0FFFFFE0
0FFFFFE0
0FFFFFE0
0FFFFFE0
0FFFFFE0
0FFFFFE0
0FFFFFE0
0FFFFFE0
0FFFFFE0
07FFFFE0
07FFFFE0
07FFFFC0
07FFFFC0
07FFFFC0
07FFFFC0
07FFFFC0
07FFFFC0
07FFFFC0
07FFFFC0
07FFFFC0
07FFFFC0
07FFFFC0
07FFFFC0
07FFFFC0
07FFFFC0
07FFFFC0
03FFFFC0
03FFFFC0
03FFFF80
03FFFF80
03FFFF80
03FFFF80
03FFFF80
03FFFF80
03FFFF80
03FFFF80
03FFFF80
03FFFF80
03FFFF80
03FFFF80
03FFFF80
03FFFF80
01FFFF80
01FFFF80
01FFFF00
01FFFF00
01FFFF00
01FFFF00
01FFFF00
01FFFF00
01FFFF00
01FFFF00
01FFFF00
01FFFF00
01FFFF00
00000000
00000000
00000000
00000000
00000000
00000000
00000000
00000000
00000000
00000000
1FFFFFF0
1FFFFFF0
1FFFFFF0
1FFFFFF0
1FFFFFF0
1FFFFFF0
1FFFFFF0
1FFFFFF0
1FFFFFF0
1FFFFFF0
1FFFFFF0
1FFFFFF0
1FFFFFF0
1FFFFFF0
1FFFFFF0
1FFFFFF0
1FFFFFF0
1FFFFFF0
1FFFFFF0
1FFFFFF0
1FFFFFF0
1FFFFFF0
1FFFFFF0
1FFFFFF0
1FFFFFF0
ENDCHAR
STARTCHAR 0022
ENCODING 34
SWIDTH 561 0
DWIDTH 101 0
BBX 89 61 9 72
BITMAP
00000FFFFFFF0007FFFFFF80
00001FFFFFFE0007FFFFFF80
00001FFFFFFE000FFFFFFF00
00001FFFFFFC000FFFFFFE00
00003FFFFFFC000FFFFFFE00
00003FFFFFF8001FFFFFFC00
00003FFFFFF8001FFFFFFC00
00007FFFFFF0001FFFFFF800
00007FFFFFE0003FFFFFF800
00007FFFFFE0003FFFFFF000
0000FFFFFFC0003FFFFFF000
0000FFFFFFC0007FFFFFE000
0000FFFFFF80007FFFFFE000
0001FFFFFF80007FFFFFC000
0001FFFFFF0000FFFFFF8000
0001FFFFFF0000FFFFFF8000
0003FFFFFE0000FFFFFF0000
0003FFFFFE0001FFFFFF0000
0003FFFFFC0001FFFFFE0000
0007FFFFF80001FFFFFE0000
0007FFFFF80003FFFFFC0000
0007FFFFF00003FFFFFC0000
000FFFFFF00003FFFFF80000
000FFFFFE00007FFFFF00000
000FFFFFE00007FFFFF00000
001FFFFFC00007FFFFE00000
001FFFFFC0000FFFFFE00000
001FFFFF80000FFFFFC00000
003FFFFF00000FFFFFC00000
003FFFFF00001FFFFF800000
003FFFFE00001FFFFF800000
007FFFFE00001FFFFF000000
007FFFFC00003FFFFF000000
007FFFFC00003FFFFE000000
00FFFFF800003FFFFC000000
00FFFFF800007FFFFC000000
00FFFFF000007FFFF8000000
01FFFFF000007FFFF8000000
01FFFFE00000FFFFF0000000
01FFFFC00000FFFFF0000000
03FFFFC00000FFFFE0000000
03FFFF800001FFFFE0000000
03FFFF800001FFFFC0000000
07FFFF000001FFFF80000000
07FFFF000003FFFF80000000
07FFFE000003FFFF00000000
0FFFFE000007FFFF00000000
0FFFFC000007FFFE00000000
0FFFF8000007FFFE00000000
1FFFF800000FFFFC00000000
1FFFF000000FFFFC00000000
1FFFF000000FFFF800000000
3FFFE000001FFFF800000000
3FFFE000001FFFF000000000
3FFFC000001FFFE000000000
7FFFC000003FFFE000000000
7FFF8000003FFFC000000000
7FFF8000003FFFC000000000
FFFF0000007FFF8000000000
FFFE0000007FFF8000000000
FFFE0000007FFF0000000000
ENDCHAR
STARTCHAR 0023
ENCODING 35
SWIDTH 811 0
DWIDTH 146 0
BBX 134 156 6 -24
BITMAP
000000000003FFFFFC00000007FFFFF800
000000000003FFFFF800000007FFFFF000
000000000003FFFFF800000007FFFFF000
000000000007FFFFF80000000FFFFFF000
000000000007FFFFF80000000FFFFFF000
000000000007FFFFF00000000FFFFFE000
000000000007FFFFF00000000FFFFFE000
00000000000FFFFFF00000001FFFFFE000
00000000000FFFFFF00000001FFFFFE000
00000000000FFFFFF00000001FFFFFC000
00000000000FFFFFE00000001FFFFFC000
00000000000FFFFFE00000003FFFFFC000
00000000001FFFFFE00000003FFFFFC000
00000000001FFFFFE00000003FFFFFC000
00000000001FFFFFC00000003FFFFF8000
00000000001FFFFFC00000003FFFFF8000
00000000003FFFFFC00000007FFFFF8000
00000000003FFFFFC00000007FFFFF8000
00000000003FFFFFC00000007FFFFF0000
00000000003FFFFF800000007FFFFF0000
00000000003FFFFF80000000FFFFFF0000
00000000007FFFFF80000000FFFFFF0000
00000000007FFFFF80000000FFFFFF0000
00000000007FFFFF00000000FFFFFE0000
00000000007FFFFF00000000FFFFFE0000
0000000000FFFFFF00000001FFFFFE0000
0000000000FFFFFF00000001FFFFFE0000
0000000000FFFFFF00000001FFFFFC0000
0000000000FFFFFE00000001FFFFFC0000
0000000000FFFFFE00000003FFFFFC0000
0000000001FFFFFE00000003FFFFFC0000
0000000001FFFFFE00000003FFFFFC0000
0000000001FFFFFC00000003FFFFF80000
0000000001FFFFFC00000003FFFFF80000
0000000003FFFFFC00000007FFFFF80000
0000000003FFFFFC00000007FFFFF80000
0000000003FFFFF800000007FFFFF00000
0000000003FFFFF800000007FFFFF00000
0000000007FFFFF80000000FFFFFF00000
0000000007FFFFF80000000FFFFFF00000
0000000007FFFFF80000000FFFFFE00000
00007FFFFFFFFFFFFFFFFFFFFFFFFFFFFC
00007FFFFFFFFFFFFFFFFFFFFFFFFFFFFC
0000FFFFFFFFFFFFFFFFFFFFFFFFFFFFFC
0000FFFFFFFFFFFFFFFFFFFFFFFFFFFFFC
0000FFFFFFFFFFFFFFFFFFFFFFFFFFFFF8
0000FFFFFFFFFFFFFFFFFFFFFFFFFFFFF8
0001FFFFFFFFFFFFFFFFFFFFFFFFFFFFF8
0001FFFFFFFFFFFFFFFFFFFFFFFFFFFFF8
0001FFFFFFFFFFFFFFFFFFFFFFFFFFFFF0
0001FFFFFFFFFFFFFFFFFFFFFFFFFFFFF0
0003FFFFFFFFFFFFFFFFFFFFFFFFFFFFF0
0003FFFFFFFFFFFFFFFFFFFFFFFFFFFFF0
0003FFFFFFFFFFFFFFFFFFFFFFFFFFFFF0
0003FFFFFFFFFFFFFFFFFFFFFFFFFFFFE0
0003FFFFFFFFFFFFFFFFFFFFFFFFFFFFE0
0007FFFFFFFFFFFFFFFFFFFFFFFFFFFFE0
0007FFFFFFFFFFFFFFFFFFFFFFFFFFFFE0
0007FFFFFFFFFFFFFFFFFFFFFFFFFFFFC0
0007FFFFFFFFFFFFFFFFFFFFFFFFFFFFC0
000FFFFFFFFFFFFFFFFFFFFFFFFFFFFFC0
000FFFFFFFFFFFFFFFFFFFFFFFFFFFFFC0
000FFFFFFFFFFFFFFFFFFFFFFFFFFFFFC0
000FFFFFFFFFFFFFFFFFFFFFFFFFFFFF80
00000000FFFFFE00000001FFFFFC000000
00000001FFFFFE00000003FFFFFC000000
00000001FFFFFE00000003FFFFFC000000
00000001FFFFFC00000003FFFFF8000000
00000001FFFFFC00000003FFFFF8000000
00000003FFFFFC00000007FFFFF8000000
00000003FFFFFC00000007FFFFF8000000
00000003FFFFFC00000007FFFFF0000000
00000003FFFFF800000007FFFFF0000000
00000003FFFFF80000000FFFFFF0000000
00000007FFFFF80000000FFFFFF0000000
00000007FFFFF80000000FFFFFF0000000
00000007FFFFF00000000FFFFFE0000000
00000007FFFFF00000000FFFFFE0000000
0000000FFFFFF00000001FFFFFE0000000
0000000FFFFFF00000001FFFFFE0000000
0000000FFFFFE00000001FFFFFC0000000
0000000FFFFFE00000001FFFFFC0000000
0000000FFFFFE00000003FFFFFC0000000
0000001FFFFFE00000003FFFFFC0000000
0000001FFFFFE00000003FFFFF80000000
0000001FFFFFC00000003FFFFF80000000
0000001FFFFFC00000003FFFFF80000000
0000003FFFFFC00000007FFFFF80000000
0000003FFFFFC00000007FFFFF80000000
0000003FFFFF800000007FFFFF00000000
0000003FFFFF800000007FFFFF00000000
0000003FFFFF80000000FFFFFF00000000
0000007FFFFF80000000FFFFFF00000000
0000007FFFFF80000000FFFFFE00000000
0000007FFFFF00000000FFFFFE00000000
07FFFFFFFFFFFFFFFFFFFFFFFFFFFFC000
0FFFFFFFFFFFFFFFFFFFFFFFFFFFFFC000
0FFFFFFFFFFFFFFFFFFFFFFFFFFFFFC000
0FFFFFFFFFFFFFFFFFFFFFFFFFFFFF8000
0FFFFFFFFFFFFFFFFFFFFFFFFFFFFF8000
1FFFFFFFFFFFFFFFFFFFFFFFFFFFFF8000
1FFFFFFFFFFFFFFFFFFFFFFFFFFFFF8000
1FFFFFFFFFFFFFFFFFFFFFFFFFFFFF0000
1FFFFFFFFFFFFFFFFFFFFFFFFFFFFF0000
3FFFFFFFFFFFFFFFFFFFFFFFFFFFFF0000
3FFFFFFFFFFFFFFFFFFFFFFFFFFFFF0000
3FFFFFFFFFFFFFFFFFFFFFFFFFFFFF0000
3FFFFFFFFFFFFFFFFFFFFFFFFFFFFE0000
3FFFFFFFFFFFFFFFFFFFFFFFFFFFFE0000
7FFFFFFFFFFFFFFFFFFFFFFFFFFFFE0000
7FFFFFFFFFFFFFFFFFFFFFFFFFFFFE0000
7FFFFFFFFFFFFFFFFFFFFFFFFFFFFC0000
7FFFFFFFFFFFFFFFFFFFFFFFFFFFFC0000
FFFFFFFFFFFFFFFFFFFFFFFFFFFFFC0000
FFFFFFFFFFFFFFFFFFFFFFFFFFFFFC0000
FFFFFFFFFFFFFFFFFFFFFFFFFFFFFC0000
FFFFFFFFFFFFFFFFFFFFFFFFFFFFF80000
FFFFFFFFFFFFFFFFFFFFFFFFFFFFF80000
00001FFFFFE00000003FFFFFC000000000
00001FFFFFE00000003FFFFFC000000000
00001FFFFFC00000003FFFFF8000000000
00001FFFFFC00000003FFFFF8000000000
00001FFFFFC00000007FFFFF8000000000
00003FFFFFC00000007FFFFF8000000000
00003FFFFFC00000007FFFFF0000000000
00003FFFFF800000007FFFFF0000000000
00003FFFFF800000007FFFFF0000000000
00007FFFFF80000000FFFFFF0000000000
00007FFFFF80000000FFFFFF0000000000
00007FFFFF00000000FFFFFE0000000000
00007FFFFF00000000FFFFFE0000000000
00007FFFFF00000001FFFFFE0000000000
0000FFFFFF00000001FFFFFE0000000000
0000FFFFFE00000001FFFFFC0000000000
0000FFFFFE00000001FFFFFC0000000000
0000FFFFFE00000001FFFFFC0000000000
0001FFFFFE00000003FFFFFC0000000000
0001FFFFFE00000003FFFFF80000000000
0001FFFFFC00000003FFFFF80000000000
0001FFFFFC00000003FFFFF80000000000
0003FFFFFC00000007FFFFF80000000000
0003FFFFFC00000007FFFFF80000000000
0003FFFFF800000007FFFFF00000000000
0003FFFFF800000007FFFFF00000000000
0003FFFFF80000000FFFFFF00000000000
0007FFFFF80000000FFFFFF00000000000
0007FFFFF80000000FFFFFE00000000000
0007FFFFF00000000FFFFFE00000000000
0007FFFFF00000000FFFFFE00000000000
000FFFFFF00000001FFFFFE00000000000
000FFFFFF00000001FFFFFE00000000000
000FFFFFE00000001FFFFFC00000000000
000FFFFFE00000001FFFFFC00000000000
000FFFFFE00000003FFFFFC00000000000
001FFFFFE00000003FFFFFC00000000000
001FFFFFC00000003FFFFF800000000000
ENDCHAR
STARTCHAR 0024
ENCODING 36
SWIDTH 522 0
DWIDTH 94 0
BBX 84 176 5 -40
BITMAP
0000000FFFFFFE00000000
0000000FFFFFFE00000000
0000000FFFFFFE00000000
0000000FFFFFFE00000000
0000000FFFFFFE00000000
0000000FFFFFFE00000000
0000000FFFFFFE00000000
0000000FFFFFFE00000000
0000000FFFFFFE00000000
0000000FFFFFFE00000000
0003FFFFFFFFFFFFFC0000
0007FFFFFFFFFFFFFE0000
000FFFFFFFFFFFFFFF0000
001FFFFFFFFFFFFFFF8000
003FFFFFFFFFFFFFFFC000
007FFFFFFFFFFFFFFFE000
00FFFFFFFFFFFFFFFFF000
01FFFFFFFFFFFFFFFFF800
03FFFFFFFFFFFFFFFFFC00
07FFFFFFFFFFFFFFFFFE00
0FFFFFFFFFFFFFFFFFFF00
1FFFFFFFFFFFFFFFFFFF80
3FFFFFFFFFFFFFFFFFFFC0
7FFFFFFFFFFFFFFFFFFFE0
FFFFFFFFFFFFFFFFFFFFF0
FFFFFFFFFFFFFFFFFFFFF0
FFFFFFFFFFFFFFFFFFFFF0
FFFFFFFFFFFFFFFFFFFFF0
FFFFFFFFFFFFFFFFFFFFF0
FFFFFFFFFFFFFFFFFFFFF0
FFFFFFFFFFFFFFFFFFFFF0
FFFFFFFFFFFFFFFFFFFFF0
FFFFFFFFFFFFFFFFFFFFF0
FFFFFFFFFFFFFFFFFFFFF0
FFFFFFFFFFFFFFFFFFFFF0
FFFFFFFFFFFFFFFFFFFFF0
FFFFFF800000001FFFFFF0
FFFFFF800000001FFFFFF0
FFFFFF800000001FFFFFF0
FFFFFF800000001FFFFFF0
FFFFFF800000001FFFFFF0
FFFFFF800000001FFFFFF0
FFFFFF800000001FFFFFF0
FFFFFF800000001FFFFFF0
FFFFFF800000001FFFFFF0
FFFFFF800000001FFFFFF0
FFFFFF800000001FFFFFF0
FFFFFF800000001FFFFFF0
FFFFFF800000001FFFFFF0
FFFFFF800000001FFFFFF0
FFFFFF800000001FFFFFF0
FFFFFF800000001FFFFFF0
FFFFFF800000001FFFFFF0
FFFFFF800000001FFFFFF0
FFFFFF8000000000000000
FFFFFF8000000000000000
FFFFFF8000000000000000
FFFFFF8000000000000000
FFFFFF8000000000000000
FFFFFF8000000000000000
FFFFFF8000000000000000
FFFFFF8000000000000000
FFFFFF8000000000000000
FFFFFF8000000000000000
FFFFFF8000000000000000
FFFFFF8000000000000000
FFFFFF8000000000000000
FFFFFF8000000000000000
FFFFFFFFFFFFFFFFF80000
FFFFFFFFFFFFFFFFFC0000
FFFFFFFFFFFFFFFFFE0000
FFFFFFFFFFFFFFFFFF0000
FFFFFFFFFFFFFFFFFF8000
FFFFFFFFFFFFFFFFFFC000
FFFFFFFFFFFFFFFFFFE000
FFFFFFFFFFFFFFFFFFF000
FFFFFFFFFFFFFFFFFFF800
FFFFFFFFFFFFFFFFFFFC00
FFFFFFFFFFFFFFFFFFFF00
7FFFFFFFFFFFFFFFFFFF80
3FFFFFFFFFFFFFFFFFFFC0
1FFFFFFFFFFFFFFFFFFFE0
0FFFFFFFFFFFFFFFFFFFF0
07FFFFFFFFFFFFFFFFFFF0
03FFFFFFFFFFFFFFFFFFF0
01FFFFFFFFFFFFFFFFFFF0
00FFFFFFFFFFFFFFFFFFF0
007FFFFFFFFFFFFFFFFFF0
003FFFFFFFFFFFFFFFFFF0
001FFFFFFFFFFFFFFFFFF0
000FFFFFFFFFFFFFFFFFF0
0007FFFFFFFFFFFFFFFFF0
0003FFFFFFFFFFFFFFFFF0
000000000000001FFFFFF0
000000000000001FFFFFF0
000000000000001FFFFFF0
000000000000001FFFFFF0
000000000000001FFFFFF0
000000000000001FFFFFF0
000000000000001FFFFFF0
000000000000001FFFFFF0
000000000000001FFFFFF0
000000000000001FFFFFF0
000000000000001FFFFFF0
000000000000001FFFFFF0
000000000000001FFFFFF0
000000000000001FFFFFF0
000000000000001FFFFFF0
000000000000001FFFFFF0
000000000000001FFFFFF0
000000000000001FFFFFF0
FFFFFF800000001FFFFFF0
FFFFFF800000001FFFFFF0
FFFFFF800000001FFFFFF0
FFFFFF800000001FFFFFF0
FFFFFF800000001FFFFFF0
FFFFFF800000001FFFFFF0
FFFFFF800000001FFFFFF0
FFFFFF800000001FFFFFF0
FFFFFF800000001FFFFFF0
FFFFFF800000001FFFFFF0
FFFFFF800000001FFFFFF0
FFFFFF800000001FFFFFF0
FFFFFF800000001FFFFFF0
FFFFFF800000001FFFFFF0
FFFFFF800000001FFFFFF0
FFFFFF800000001FFFFFF0
FFFFFF800000001FFFFFF0
FFFFFF800000001FFFFFF0
FFFFFF800000001FFFFFF0
FFFFFF800000001FFFFFF0
FFFFFFFFFFFFFFFFFFFFF0
FFFFFFFFFFFFFFFFFFFFF0
FFFFFFFFFFFFFFFFFFFFF0
FFFFFFFFFFFFFFFFFFFFF0
FFFFFFFFFFFFFFFFFFFFF0
FFFFFFFFFFFFFFFFFFFFF0
FFFFFFFFFFFFFFFFFFFFE0
FFFFFFFFFFFFFFFFFFFFC0
FFFFFFFFFFFFFFFFFFFF80
7FFFFFFFFFFFFFFFFFFF00
3FFFFFFFFFFFFFFFFFFE00
1FFFFFFFFFFFFFFFFFFC00
0FFFFFFFFFFFFFFFFFF800
07FFFFFFFFFFFFFFFFF000
03FFFFFFFFFFFFFFFFE000
01FFFFFFFFFFFFFFFFC000
00FFFFFFFFFFFFFFFF8000
007FFFFFFFFFFFFFFF0000
003FFFFFFFFFFFFFFE0000
001FFFFFFFFFFFFFFC0000
000FFFFFFFFFFFFFF80000
0007FFFFFFFFFFFFF00000
0003FFFFFFFFFFFFF00000
0001FFFFFFFFFFFFE00000
0000FFFFFFFFFFFFC00000
0000000FFFFFFE00000000
0000000FFFFFFE00000000
0000000FFFFFFE00000000
0000000FFFFFFE00000000
0000000FFFFFFE00000000
0000000FFFFFFE00000000
0000000FFFFFFE00000000
0000000FFFFFFE00000000
0000000FFFFFFE00000000
0000000FFFFFFE00000000
0000000FFFFFFE00000000
0000000FFFFFFE00000000
0000000FFFFFFE00000000
0000000FFFFFFE00000000
0000000FFFFFFE00000000
0000000FFFFFFE00000000
0000000FFFFFFE00000000
0000000FFFFFFE00000000
0000000FFFFFFE00000000
0000000FFFFFFE00000000
ENDCHAR
STARTCHAR 0025
ENCODING 37
SWIDTH 1000 0
DWIDTH 180 0
BBX 158 156 11 -24
BITMAP
007FFFFFFFF00000000000000001FFFFFC000000
00FFFFFFFFFC0000000000000003FFFFFC000000
01FFFFFFFFFE0000000000000007FFFFF8000000
03FFFFFFFFFF0000000000000007FFFFF8000000
07FFFFFFFFFF800000000000000FFFFFF0000000
0FFFFFFFFFFFC00000000000000FFFFFE0000000
1FFFFFFFFFFFE00000000000001FFFFFE0000000
3FFFFFFFFFFFF00000000000001FFFFFC0000000
7FFFFFFFFFFFFC0000000000003FFFFFC0000000
FFFFFFFFFFFFFC0000000000007FFFFF80000000
FFFFFFFFFFFFFC0000000000007FFFFF80000000
FFFFFFFFFFFFFC000000000000FFFFFF00000000
FFFFFFFFFFFFFC000000000000FFFFFF00000000
FFFFFFFFFFFFFC000000000001FFFFFE00000000
FFFFFFFFFFFFFC000000000001FFFFFC00000000
FFFFFFFFFFFFFC000000000003FFFFFC00000000
FFFFFFFFFFFFFC000000000003FFFFF800000000
FFFFFFFFFFFFFC000000000007FFFFF800000000
FFFFFFFFFFFFFC00000000000FFFFFF000000000
FFFFFFFFFFFFFC00000000000FFFFFF000000000
FFFFFFFFFFFFFC00000000001FFFFFE000000000
FFFFF8007FFFFC00000000001FFFFFC000000000
FFFFF8007FFFFC00000000003FFFFFC000000000
FFFFF8007FFFFC00000000003FFFFF8000000000
FFFFF8007FFFFC00000000007FFFFF8000000000
FFFFF8007FFFFC0000000000FFFFFF0000000000
FFFFF8007FFFFC0000000000FFFFFF0000000000
FFFFF8007FFFFC0000000001FFFFFE0000000000
FFFFF8007FFFFC0000000001FFFFFC0000000000
FFFFF8007FFFFC0000000003FFFFFC0000000000
FFFFF8007FFFFC0000000003FFFFF80000000000
FFFFF8007FFFFC0000000007FFFFF80000000000
FFFFF8007FFFFC000000000FFFFFF00000000000
FFFFF8007FFFFC000000000FFFFFF00000000000
FFFFF8007FFFFC000000001FFFFFE00000000000
FFFFF8007FFFFC000000001FFFFFE00000000000
FFFFF8007FFFFC000000003FFFFFC00000000000
FFFFF8007FFFFC000000003FFFFF800000000000
FFFFF8007FFFFC000000007FFFFF800000000000
FFFFF8007FFFFC000000007FFFFF000000000000
FFFFF8007FFFFC00000000FFFFFF000000000000
FFFFF8007FFFFC00000001FFFFFE000000000000
FFFFF8007FFFFC00000001FFFFFE000000000000
FFFFF8007FFFFC00000003FFFFFC000000000000
FFFFF8007FFFFC00000003FFFFF8000000000000
FFFFF8007FFFFC00000007FFFFF8000000000000
FFFFF8007FFFFC00000007FFFFF0000000000000
FFFFF8007FFFFC0000000FFFFFF0000000000000
FFFFF8007FFFFC0000001FFFFFE0000000000000
FFFFF8007FFFFC0000001FFFFFE0000000000000
FFFFF8007FFFFC0000003FFFFFC0000000000000
FFFFF8007FFFFC0000003FFFFF80000000000000
FFFFF8007FFFFC0000007FFFFF80000000000000
FFFFF8007FFFFC0000007FFFFF00000000000000
FFFFF8007FFFFC000000FFFFFF00000000000000
FFFFF8007FFFFC000001FFFFFE00000000000000
FFFFF8007FFFFC000001FFFFFE00000000000000
FFFFF8007FFFFC000003FFFFFC00000000000000
FFFFF8007FFFFC000003FFFFFC00000000000000
FFFFF8007FFFFC000007FFFFF800000000000000
FFFFF8007FFFFC000007FFFFF000000000000000
FFFFF8007FFFFC00000FFFFFF000000000000000
FFFFF8007FFFFC00000FFFFFE0007FFFFFFFF000
FFFFF8007FFFFC00001FFFFFE000FFFFFFFFF800
FFFFF8007FFFFC00003FFFFFC001FFFFFFFFFC00
FFFFF8007FFFFC00003FFFFFC003FFFFFFFFFF00
FFFFF8007FFFFC00007FFFFF8007FFFFFFFFFF80
FFFFF8007FFFFC00007FFFFF000FFFFFFFFFFFC0
FFFFF8007FFFFC0000FFFFFF001FFFFFFFFFFFE0
FFFFF8007FFFFC0000FFFFFE003FFFFFFFFFFFF0
FFFFF8007FFFFC0001FFFFFE007FFFFFFFFFFFF8
FFFFF8007FFFFC0003FFFFFC00FFFFFFFFFFFFFC
FFFFF8007FFFFC0003FFFFFC00FFFFFFFFFFFFFC
FFFFFFFFFFFFFC0007FFFFF800FFFFFFFFFFFFFC
FFFFFFFFFFFFFC0007FFFFF000FFFFFFFFFFFFFC
FFFFFFFFFFFFFC000FFFFFF000FFFFFFFFFFFFFC
FFFFFFFFFFFFFC000FFFFFE000FFFFFFFFFFFFFC
FFFFFFFFFFFFFC001FFFFFE000FFFFFFFFFFFFFC
FFFFFFFFFFFFFC003FFFFFC000FFFFFFFFFFFFFC
FFFFFFFFFFFFFC003FFFFFC000FFFFFFFFFFFFFC
FFFFFFFFFFFFFC007FFFFF8000FFFFFFFFFFFFFC
FFFFFFFFFFFFFC007FFFFF8000FFFFFFFFFFFFFC
FFFFFFFFFFFFFC00FFFFFF0000FFFFFFFFFFFFFC
FFFFFFFFFFFFFC00FFFFFE0000FFFFF8007FFFFC
FFFFFFFFFFFFF801FFFFFE0000FFFFF8007FFFFC
7FFFFFFFFFFFF001FFFFFC0000FFFFF8007FFFFC
3FFFFFFFFFFFE003FFFFFC0000FFFFF8007FFFFC
1FFFFFFFFFFFC007FFFFF80000FFFFF8007FFFFC
0FFFFFFFFFFF8007FFFFF80000FFFFF8007FFFFC
07FFFFFFFFFF800FFFFFF00000FFFFF8007FFFFC
03FFFFFFFFFF000FFFFFE00000FFFFF8007FFFFC
01FFFFFFFFFE001FFFFFE00000FFFFF8007FFFFC
007FFFFFFFFC001FFFFFC00000FFFFF8007FFFFC
003FFFFFFFF8003FFFFFC00000FFFFF8007FFFFC
000000000000007FFFFF800000FFFFF8007FFFFC
000000000000007FFFFF800000FFFFF8007FFFFC
00000000000000FFFFFF000000FFFFF8007FFFFC
00000000000000FFFFFE000000FFFFF8007FFFFC
00000000000001FFFFFE000000FFFFF8007FFFFC
00000000000001FFFFFC000000FFFFF8007FFFFC
00000000000003FFFFFC000000FFFFF8007FFFFC
00000000000007FFFFF8000000FFFFF8007FFFFC
00000000000007FFFFF8000000FFFFF8007FFFFC
0000000000000FFFFFF0000000FFFFF8007FFFFC
0000000000000FFFFFF0000000FFFFF8007FFFFC
0000000000001FFFFFE0000000FFFFF8007FFFFC
0000000000001FFFFFC0000000FFFFF8007FFFFC
0000000000003FFFFFC0000000FFFFF8007FFFFC
0000000000003FFFFF80000000FFFFF8007FFFFC
0000000000007FFFFF80000000FFFFF8007FFFFC
000000000000FFFFFF00000000FFFFF8007FFFFC
000000000000FFFFFF00000000FFFFF8007FFFFC
000000000001FFFFFE00000000FFFFF8007FFFFC
000000000001FFFFFC00000000FFFFF8007FFFFC
000000000003FFFFFC00000000FFFFF8007FFFFC
000000000003FFFFF800000000FFFFF8007FFFFC
000000000007FFFFF800000000FFFFF8007FFFFC
00000000000FFFFFF000000000FFFFF8007FFFFC
00000000000FFFFFF000000000FFFFF8007FFFFC
00000000001FFFFFE000000000FFFFF8007FFFFC
00000000001FFFFFC000000000FFFFF8007FFFFC
00000000003FFFFFC000000000FFFFF8007FFFFC
00000000003FFFFF8000000000FFFFF8007FFFFC
00000000007FFFFF8000000000FFFFF8007FFFFC
0000000000FFFFFF0000000000FFFFF8007FFFFC
0000000000FFFFFF0000000000FFFFF8007FFFFC
0000000001FFFFFE0000000000FFFFF8007FFFFC
0000000001FFFFFE0000000000FFFFF8007FFFFC
0000000003FFFFFC0000000000FFFFF8007FFFFC
0000000003FFFFF80000000000FFFFF8007FFFFC
0000000007FFFFF80000000000FFFFF8007FFFFC
0000000007FFFFF00000000000FFFFF8007FFFFC
000000000FFFFFF00000000000FFFFF8007FFFFC
000000001FFFFFE00000000000FFFFF8007FFFFC
000000001FFFFFE00000000000FFFFF8007FFFFC
000000003FFFFFC00000000000FFFFFFFFFFFFFC
000000003FFFFF800000000000FFFFFFFFFFFFFC
000000007FFFFF800000000000FFFFFFFFFFFFFC
000000007FFFFF000000000000FFFFFFFFFFFFFC
00000000FFFFFF000000000000FFFFFFFFFFFFFC
00000001FFFFFE000000000000FFFFFFFFFFFFFC
00000001FFFFFE000000000000FFFFFFFFFFFFFC
00000003FFFFFC000000000000FFFFFFFFFFFFFC
00000003FFFFF8000000000000FFFFFFFFFFFFFC
00000007FFFFF8000000000000FFFFFFFFFFFFFC
00000007FFFFF0000000000000FFFFFFFFFFFFFC
0000000FFFFFF0000000000000FFFFFFFFFFFFF8
0000001FFFFFE00000000000007FFFFFFFFFFFF0
0000001FFFFFE00000000000003FFFFFFFFFFFE0
0000003FFFFFC00000000000001FFFFFFFFFFFC0
0000003FFFFFC00000000000000FFFFFFFFFFF80
0000007FFFFF8000000000000007FFFFFFFFFF80
0000007FFFFF0000000000000003FFFFFFFFFF00
000000FFFFFF0000000000000001FFFFFFFFFE00
000000FFFFFE00000000000000007FFFFFFFFC00
000001FFFFFE00000000000000003FFFFFFFF800
ENDCHAR
STARTCHAR 0026
ENCODING 38
SWIDTH 666 0
DWIDTH 120 0
BBX 110 156 5 -24
BITMAP
000001FFFFFFFFFFE00000000000
000003FFFFFFFFFFF00000000000
000007FFFFFFFFFFF80000000000
00000FFFFFFFFFFFFC0000000000
00001FFFFFFFFFFFFE0000000000
00003FFFFFFFFFFFFF0000000000
00007FFFFFFFFFFFFF8000000000
0000FFFFFFFFFFFFFFC000000000
0001FFFFFFFFFFFFFFE000000000
0003FFFFFFFFFFFFFFF000000000
0007FFFFFFFFFFFFFFF800000000
000FFFFFFFFFFFFFFFFC00000000
001FFFFFFFFFFFFFFFFE00000000
003FFFFFFFFFFFFFFFFF00000000
007FFFFFFFFFFFFFFFFF80000000
00FFFFFFFFFFFFFFFFFFC0000000
01FFFFFFFFFFFFFFFFFFE0000000
03FFFFFFFFFFFFFFFFFFF0000000
03FFFFFFFFFFFFFFFFFFF8000000
03FFFFFFFFFFFFFFFFFFF8000000
03FFFFFFFFFFFFFFFFFFF8000000
03FFFFFFFFFFFFFFFFFFF8000000
03FFFFFFFFFFFFFFFFFFF8000000
03FFFFFFFFFFFFFFFFFFF8000000
03FFFFFFFFFFFFFFFFFFF8000000
03FFFFFC0000000FFFFFF8000000
03FFFFFC0000000FFFFFF8000000
03FFFFFC0000000FFFFFF8000000
03FFFFFC0000000FFFFFF8000000
03FFFFFC0000000FFFFFF8000000
03FFFFFC0000000FFFFFF8000000
03FFFFFC0000000FFFFFF8000000
03FFFFFC0000000FFFFFF8000000
03FFFFFC0000000FFFFFF8000000
03FFFFFC0000000FFFFFF8000000
03FFFFFC0000000FFFFFF8000000
03FFFFFC0000000FFFFFF8000000
03FFFFFC0000000FFFFFF8000000
03FFFFFC0000000FFFFFF8000000
03FFFFFC0000000FFFFFF8000000
03FFFFFC0000000FFFFFF8000000
03FFFFFC0000000FFFFFF8000000
03FFFFFC0000000FFFFFF8000000
03FFFFFC0000001FFFFFF8000000
03FFFFFC0000003FFFFFF8000000
03FFFFFC0000007FFFFFF8000000
03FFFFFC000000FFFFFFF8000000
03FFFFFC000001FFFFFFF8000000
03FFFFFE000003FFFFFFF8000000
03FFFFFE000007FFFFFFF8000000
03FFFFFF00000FFFFFFFF8000000
03FFFFFF80001FFFFFFFF8000000
03FFFFFFC0003FFFFFFFF8000000
03FFFFFFE0007FFFFFFFF8000000
03FFFFFFF000FFFFFFFFF0000000
03FFFFFFF001FFFFFFFFE0000000
03FFFFFFF803FFFFFFFFC0000000
03FFFFFFFC07FFFFFFFF80000000
01FFFFFFFE0FFFFFFFFF00000000
01FFFFFFFF1FFFFFFFFE00000000
00FFFFFFFFBFFFFFFFFC00000000
007FFFFFFFFFFFFFFFF800000000
003FFFFFFFFFFFFFFFF000000000
001FFFFFFFFFFFFFFFE000000000
001FFFFFFFFFFFFFFFC000000000
000FFFFFFFFFFFFFFF8000000000
0007FFFFFFFFFFFFFF0000000000
0003FFFFFFFFFFFFFE0000000000
0001FFFFFFFFFFFFFC0000000000
0000FFFFFFFFFFFFF80000000000
0000FFFFFFFFFFFFF00000000000
00007FFFFFFFFFFFE00000000000
00003FFFFFFFFFFFC00000000000
00001FFFFFFFFFFF800000000000
00000FFFFFFFFFFF000000000000
00000FFFFFFFFFFE000000000000
000007FFFFFFFFFC000000000000
000003FFFFFFFFF8000000000000
000001FFFFFFFFF000FFFFFFF800
000003FFFFFFFFE001FFFFFFF800
000007FFFFFFFFC003FFFFFFF800
00000FFFFFFFFFC007FFFFFFF800
00001FFFFFFFFFE00FFFFFFFF800
00003FFFFFFFFFF01FFFFFFFF800
00003FFFFFFFFFF83FFFFFFFF800
00007FFFFFFFFFFC7FFFFFFFF800
0000FFFFFFFFFFFCFFFFFFFFF800
0001FFFFFFFFFFFFFFFFFFFFF800
0003FFFFFFFFFFFFFFFFFFFFF800
0007FFFFFFFFFFFFFFFFFFFFF800
000FFFFFFFFFFFFFFFFFFFFFF800
001FFFFFFFFFFFFFFFFFFFFFF800
003FFFFFFFFFFFFFFFFFFFFFF800
007FFFFFFFFFFFFFFFFFFFFFF800
00FFFFFFFFFFFFFFFFFFFFFFF800
01FFFFFFFFFFFFFFFFFFFFFFF800
03FFFFFFFFFFFFFFFFFFFFFFF800
07FFFFFFFDFFFFFFFFFFFFFFF800
0FFFFFFFF8FFFFFFFFFFFFFFF800
1FFFFFFFF07FFFFFFFFFFFFFF800
3FFFFFFFE03FFFFFFFFFFFFFF800
7FFFFFFFC01FFFFFFFFFFFFFF800
FFFFFFFF801FFFFFFFFFFFFFF800
FFFFFFFF000FFFFFFFFFFF800000
FFFFFFFE0007FFFFFFFFFF800000
FFFFFFFC0003FFFFFFFFFF800000
FFFFFFFC0001FFFFFFFFFF800000
FFFFFFF80000FFFFFFFFFF800000
FFFFFFF00000FFFFFFFFFF800000
FFFFFFE000007FFFFFFFFF800000
FFFFFFC000003FFFFFFFFF800000
FFFFFF8000001FFFFFFFFF800000
FFFFFF8000000FFFFFFFFF800000
FFFFFF8000000FFFFFFFFF800000
FFFFFF80000007FFFFFFFF800000
FFFFFF80000003FFFFFFFF800000
FFFFFF80000001FFFFFFFF800000
FFFFFF80000000FFFFFFFF800000
FFFFFF800000007FFFFFFF800000
FFFFFF800000007FFFFFFFC00000
FFFFFF800000003FFFFFFFE00000
FFFFFF800000001FFFFFFFE00000
FFFFFF800000000FFFFFFFF00000
FFFFFF8000000007FFFFFFF80000
FFFFFF8000000007FFFFFFFC0000
FFFFFF8000000003FFFFFFFC0000
FFFFFF8000000001FFFFFFFE0000
FFFFFF8000000001FFFFFFFF0000
FFFFFF8000000001FFFFFFFF8000
FFFFFF8000000001FFFFFFFFC000
FFFFFF8000000001FFFFFFFFC000
FFFFFFFFFFFFFFFFFFFFFFFFFFFC
FFFFFFFFFFFFFFFFFFFFFFFFFFFC
FFFFFFFFFFFFFFFFFFFFFFFFFFFC
FFFFFFFFFFFFFFFFFFFFFFFFFFFC
FFFFFFFFFFFFFFFFFFFFFFFFFFFC
FFFFFFFFFFFFFFFFFFFFFFFFFFFC
FFFFFFFFFFFFFFFFFFFFFFFFFFFC
FFFFFFFFFFFFFFFFFFFFFFFFFFFC
FFFFFFFFFFFFFFFFFFFFFFFFFFFC
7FFFFFFFFFFFFFFFFFFFFFFFFFFC
3FFFFFFFFFFFFFFFFFFFFFFFFFFC
1FFFFFFFFFFFFFFFFFFFFFFFFFFC
0FFFFFFFFFFFFFFFFFFFFFFFFFFC
07FFFFFFFFFFFFFFFFFFFFFFFFFC
03FFFFFFFFFFFFFFFFFFFFFFFFFC
01FFFFFFFFFFFFFFFFFFFFFFFFFC
00FFFFFFFFFFFFFFFFFFFFFFFFFC
007FFFFFFFFFFFFFFFFF7FFFFFFC
003FFFFFFFFFFFFFFFFE3FFFFFFC
001FFFFFFFFFFFFFFFFC1FFFFFFC
000FFFFFFFFFFFFFFFF81FFFFFFC
0007FFFFFFFFFFFFFFF00FFFFFFC
0003FFFFFFFFFFFFFFE007FFFFFC
0001FFFFFFFFFFFFFFC003FFFFFC
0000FFFFFFFFFFFFFF8001FFFFFC
ENDCHAR
STARTCHAR 0027
ENCODING 39
SWIDTH 333 0
DWIDTH 60 0
BBX 48 61 9 72
BITMAP
00000FFFFFFF
00001FFFFFFE
00001FFFFFFE
00001FFFFFFC
00003FFFFFFC
00003FFFFFF8
00003FFFFFF8
00007FFFFFF0
00007FFFFFE0
00007FFFFFE0
0000FFFFFFC0
0000FFFFFFC0
0000FFFFFF80
0001FFFFFF80
0001FFFFFF00
0001FFFFFF00
0003FFFFFE00
0003FFFFFE00
0003FFFFFC00
0007FFFFF800
0007FFFFF800
0007FFFFF000
000FFFFFF000
000FFFFFE000
000FFFFFE000
001FFFFFC000
001FFFFFC000
001FFFFF8000
003FFFFF0000
003FFFFF0000
003FFFFE0000
007FFFFE0000
007FFFFC0000
007FFFFC0000
00FFFFF80000
00FFFFF80000
00FFFFF00000
01FFFFF00000
01FFFFE00000
01FFFFC00000
03FFFFC00000
03FFFF800000
03FFFF800000
07FFFF000000
07FFFF000000
07FFFE000000
0FFFFE000000
0FFFFC000000
0FFFF8000000
1FFFF8000000
1FFFF0000000
1FFFF0000000
3FFFE0000000
3FFFE0000000
3FFFC0000000
7FFFC0000000
7FFF80000000
7FFF80000000
FFFF00000000
FFFE00000000
FFFE00000000
ENDCHAR
STARTCHAR 0028
ENCODING 40
SWIDTH 333 0
DWIDTH 60 0
BBX 41 175 11 -43
BITMAP
0001FFFFFF80
0003FFFFFF80
0007FFFFFF80
000FFFFFFF80
001FFFFFFF80
003FFFFFFF80
007FFFFFFF80
00FFFFFFFF80
01FFFFFFFF80
03FFFFFFFF80
07FFFFFFFF80
07FFFFFFFF80
0FFFFFFFFF80
1FFFFFFFFF80
3FFFFFFFFF80
7FFFFFFFFF80
FFFFFFFFFF80
FFFFFFFFFF80
FFFFFFFFFF80
FFFFFFFFFF80
FFFFFFFFFF80
FFFFFFFFFF80
FFFFFFFFFF80
FFFFFFFFFF80
FFFFFFFFFF80
FFFFFF800000
FFFFFF800000
FFFFFF800000
FFFFFF800000
FFFFFF800000
FFFFFF800000
FFFFFF800000
FFFFFF800000
FFFFFF800000
FFFFFF800000
FFFFFF800000
FFFFFF800000
FFFFFF800000
FFFFFF800000
FFFFFF800000
FFFFFF800000
FFFFFF800000
FFFFFF800000
FFFFFF800000
FFFFFF800000
FFFFFF800000
FFFFFF800000
FFFFFF800000
FFFFFF800000
FFFFFF800000
FFFFFF800000
FFFFFF800000
FFFFFF800000
FFFFFF800000
FFFFFF800000
FFFFFF800000
FFFFFF800000
FFFFFF800000
FFFFFF800000
FFFFFF800000
FFFFFF800000
FFFFFF800000
FFFFFF800000
FFFFFF800000
FFFFFF800000
FFFFFF800000
FFFFFF800000
FFFFFF800000
FFFFFF800000
FFFFFF800000
FFFFFF800000
FFFFFF800000
FFFFFF800000
FFFFFF800000
FFFFFF800000
FFFFFF800000
FFFFFF800000
FFFFFF800000
FFFFFF800000
FFFFFF800000
FFFFFF800000
FFFFFF800000
FFFFFF800000
FFFFFF800000
FFFFFF800000
FFFFFF800000
FFFFFF800000
FFFFFF800000
FFFFFF800000
FFFFFF800000
FFFFFF800000
FFFFFF800000
FFFFFF800000
FFFFFF800000
FFFFFF800000
FFFFFF800000
FFFFFF800000
FFFFFF800000
FFFFFF800000
FFFFFF800000
FFFFFF800000
FFFFFF800000
FFFFFF800000
FFFFFF800000
FFFFFF800000
FFFFFF800000
FFFFFF800000
FFFFFF800000
FFFFFF800000
FFFFFF800000
FFFFFF800000
FFFFFF800000
FFFFFF800000
FFFFFF800000
FFFFFF800000
FFFFFF800000
FFFFFF800000
FFFFFF800000
FFFFFF800000
FFFFFF800000
FFFFFF800000
FFFFFF800000
FFFFFF800000
FFFFFF800000
FFFFFF800000
FFFFFF800000
FFFFFF800000
FFFFFF800000
FFFFFF800000
FFFFFF800000
FFFFFF800000
FFFFFF800000
FFFFFF800000
FFFFFF800000
FFFFFF800000
FFFFFF800000
FFFFFF800000
FFFFFF800000
FFFFFF800000
FFFFFF800000
FFFFFF800000
FFFFFF800000
FFFFFF800000
FFFFFF800000
FFFFFF800000
FFFFFF800000
FFFFFF800000
FFFFFF800000
FFFFFF800000
FFFFFF800000
FFFFFFFFFF80
FFFFFFFFFF80
FFFFFFFFFF80
FFFFFFFFFF80
FFFFFFFFFF80
FFFFFFFFFF80
FFFFFFFFFF80
FFFFFFFFFF80
FFFFFFFFFF80
7FFFFFFFFF80
3FFFFFFFFF80
1FFFFFFFFF80
0FFFFFFFFF80
07FFFFFFFF80
03FFFFFFFF80
01FFFFFFFF80
00FFFFFFFF80
007FFFFFFF80
007FFFFFFF80
003FFFFFFF80
001FFFFFFF80
000FFFFFFF80
0007FFFFFF80
0003FFFFFF80
0001FFFFFF80
ENDCHAR
STARTCHAR 0029
ENCODING 41
SWIDTH 333 0
DWIDTH 60 0
BBX 41 175 7 -43
BITMAP
FFFFFFC00000
FFFFFFE00000
FFFFFFF00000
FFFFFFF80000
FFFFFFFC0000
FFFFFFFE0000
FFFFFFFF0000
FFFFFFFF8000
FFFFFFFFC000
FFFFFFFFE000
FFFFFFFFF000
FFFFFFFFF800
FFFFFFFFF800
FFFFFFFFFC00
FFFFFFFFFE00
FFFFFFFFFF00
FFFFFFFFFF80
FFFFFFFFFF80
FFFFFFFFFF80
FFFFFFFFFF80
FFFFFFFFFF80
FFFFFFFFFF80
FFFFFFFFFF80
FFFFFFFFFF80
FFFFFFFFFF80
0000FFFFFF80
0000FFFFFF80
0000FFFFFF80
0000FFFFFF80
0000FFFFFF80
0000FFFFFF80
0000FFFFFF80
0000FFFFFF80
0000FFFFFF80
0000FFFFFF80
0000FFFFFF80
0000FFFFFF80
0000FFFFFF80
0000FFFFFF80
0000FFFFFF80
0000FFFFFF80
0000FFFFFF80
0000FFFFFF80
0000FFFFFF80
0000FFFFFF80
0000FFFFFF80
0000FFFFFF80
0000FFFFFF80
0000FFFFFF80
0000FFFFFF80
0000FFFFFF80
0000FFFFFF80
0000FFFFFF80
0000FFFFFF80
0000FFFFFF80
0000FFFFFF80
0000FFFFFF80
0000FFFFFF80
0000FFFFFF80
0000FFFFFF80
0000FFFFFF80
0000FFFFFF80
0000FFFFFF80
0000FFFFFF80
0000FFFFFF80
0000FFFFFF80
0000FFFFFF80
0000FFFFFF80
0000FFFFFF80
0000FFFFFF80
0000FFFFFF80
0000FFFFFF80
0000FFFFFF80
0000FFFFFF80
0000FFFFFF80
0000FFFFFF80
0000FFFFFF80
0000FFFFFF80
0000FFFFFF80
0000FFFFFF80
0000FFFFFF80
0000FFFFFF80
0000FFFFFF80
0000FFFFFF80
0000FFFFFF80
0000FFFFFF80
0000FFFFFF80
0000FFFFFF80
0000FFFFFF80
0000FFFFFF80
0000FFFFFF80
0000FFFFFF80
0000FFFFFF80
0000FFFFFF80
0000FFFFFF80
0000FFFFFF80
0000FFFFFF80
0000FFFFFF80
0000FFFFFF80
0000FFFFFF80
0000FFFFFF80
0000FFFFFF80
0000FFFFFF80
0000FFFFFF80
0000FFFFFF80
0000FFFFFF80
0000FFFFFF80
0000FFFFFF80
0000FFFFFF80
0000FFFFFF80
0000FFFFFF80
0000FFFFFF80
0000FFFFFF80
0000FFFFFF80
0000FFFFFF80
0000FFFFFF80
0000FFFFFF80
0000FFFFFF80
0000FFFFFF80
0000FFFFFF80
0000FFFFFF80
0000FFFFFF80
0000FFFFFF80
0000FFFFFF80
0000FFFFFF80
0000FFFFFF80
0000FFFFFF80
0000FFFFFF80
0000FFFFFF80
0000FFFFFF80
0000FFFFFF80
0000FFFFFF80
0000FFFFFF80
0000FFFFFF80
0000FFFFFF80
0000FFFFFF80
0000FFFFFF80
0000FFFFFF80
0000FFFFFF80
0000FFFFFF80
0000FFFFFF80
0000FFFFFF80
0000FFFFFF80
0000FFFFFF80
0000FFFFFF80
0000FFFFFF80
0000FFFFFF80
0000FFFFFF80
0000FFFFFF80
0000FFFFFF80
FFFFFFFFFF80
FFFFFFFFFF80
FFFFFFFFFF80
FFFFFFFFFF80
FFFFFFFFFF80
FFFFFFFFFF80
FFFFFFFFFF80
FFFFFFFFFF80
FFFFFFFFFF80
FFFFFFFFFF00
FFFFFFFFFE00
FFFFFFFFFC00
FFFFFFFFF800
FFFFFFFFF000
FFFFFFFFE000
FFFFFFFFC000
FFFFFFFF8000
FFFFFFFF0000
FFFFFFFE0000
FFFFFFFE0000
FFFFFFFC0000
FFFFFFF80000
FFFFFFF00000
FFFFFFE00000
FFFFFFC00000
ENDCHAR
STARTCHAR 002A
ENCODING 42
SWIDTH 594 0
DWIDTH 107 0
BBX 75 71 16 61
BITMAP
0000003FFFFE00000000
0000003FFFFE00000000
0000003FFFFE00000000
0000003FFFFE00000000
0000003FFFFE00000000
0000003FFFFE00000000
0000003FFFFE00000000
0000003FFFFE00000000
0000003FFFFE00000000
0000003FFFFE00000000
0000003FFFFE00000000
0000003FFFFE00000000
0000003FFFFE00000000
0000003FFFFE00000000
0000003FFFFE00000800
0700003FFFFE00003800
07E0003FFFFE0001F800
07FC003FFFFE000FFC00
0FFF803FFFFE007FFC00
0FFFF03FFFFE03FFFC00
0FFFFE3FFFFE1FFFFE00
1FFFFFFFFFFEFFFFFE00
1FFFFFFFFFFFFFFFFE00
1FFFFFFFFFFFFFFFFF00
1FFFFFFFFFFFFFFFFF00
3FFFFFFFFFFFFFFFFF00
3FFFFFFFFFFFFFFFFF80
3FFFFFFFFFFFFFFFFF80
7FFFFFFFFFFFFFFFFF80
7FFFFFFFFFFFFFFFFFC0
7FFFFFFFFFFFFFFFFFC0
FFFFFFFFFFFFFFFFFFC0
FFFFFFFFFFFFFFFFFFE0
FFFFFFFFFFFFFFFFFFE0
FFFFFFFFFFFFFFFFFF80
1FFFFFFFFFFFFFFFF800
01FFFFFFFFFFFFFFC000
003FFFFFFFFFFFFE0000
0007FFFFFFFFFFF00000
0000FFFFFFFFFF800000
00000FFFFFFFFC000000
000007FFFFFFFC000000
00000FFFFFFFFE000000
00001FFFFFFFFF000000
00003FFFFFFFFF000000
00003FFFFFFFFF800000
00007FFFFFFFFFC00000
0000FFFFFFFFFFE00000
0001FFFFFFFFFFE00000
0001FFFFFFFFFFF00000
0003FFFFFFFFFFF80000
0007FFFFFFFFFFF80000
000FFFFFFFFFFFFC0000
000FFFFFF7FFFFFE0000
001FFFFFE3FFFFFF0000
003FFFFFE1FFFFFF0000
003FFFFFC1FFFFFF8000
007FFFFF80FFFFFFC000
00FFFFFF807FFFFFC000
01FFFFFF003FFFFF8000
00FFFFFE003FFFFE0000
003FFFFC001FFFFC0000
001FFFFC000FFFF80000
000FFFF8000FFFE00000
0003FFF00007FFC00000
0001FFF00003FF800000
00007FE00003FF000000
00003FC00001FC000000
00000FC00000F8000000
00000780000070000000
00000100000040000000
ENDCHAR
STARTCHAR 002B
ENCODING 43
SWIDTH 711 0
DWIDTH 128 0
BBX 117 117 6 -24
BITMAP
000000000003FFFFFE000000000000
000000000003FFFFFE000000000000
000000000003FFFFFE000000000000
000000000003FFFFFE000000000000
000000000003FFFFFE000000000000
000000000003FFFFFE000000000000
000000000003FFFFFE000000000000
000000000003FFFFFE000000000000
000000000003FFFFFE000000000000
000000000003FFFFFE000000000000
000000000003FFFFFE000000000000
000000000003FFFFFE000000000000
000000000003FFFFFE000000000000
000000000003FFFFFE000000000000
000000000003FFFFFE000000000000
000000000003FFFFFE000000000000
000000000003FFFFFE000000000000
000000000003FFFFFE000000000000
000000000003FFFFFE000000000000
000000000003FFFFFE000000000000
000000000003FFFFFE000000000000
000000000003FFFFFE000000000000
000000000003FFFFFE000000000000
000000000003FFFFFE000000000000
000000000003FFFFFE000000000000
000000000003FFFFFE000000000000
000000000003FFFFFE000000000000
000000000003FFFFFE000000000000
000000000003FFFFFE000000000000
000000000003FFFFFE000000000000
000000000003FFFFFE000000000000
000000000003FFFFFE000000000000
000000000003FFFFFE000000000000
000000000003FFFFFE000000000000
000000000003FFFFFE000000000000
000000000003FFFFFE000000000000
000000000003FFFFFE000000000000
000000000003FFFFFE000000000000
000000000003FFFFFE000000000000
000000000003FFFFFE000000000000
000000000003FFFFFE000000000000
000000000003FFFFFE000000000000
000000000003FFFFFE000000000000
000000000003FFFFFE000000000000
000000000003FFFFFE000000000000
000000000003FFFFFE000000000000
FFFFFFFFFFFFFFFFFFFFFFFFFFFFF8
FFFFFFFFFFFFFFFFFFFFFFFFFFFFF8
FFFFFFFFFFFFFFFFFFFFFFFFFFFFF8
FFFFFFFFFFFFFFFFFFFFFFFFFFFFF8
FFFFFFFFFFFFFFFFFFFFFFFFFFFFF8
FFFFFFFFFFFFFFFFFFFFFFFFFFFFF8
FFFFFFFFFFFFFFFFFFFFFFFFFFFFF8
FFFFFFFFFFFFFFFFFFFFFFFFFFFFF8
FFFFFFFFFFFFFFFFFFFFFFFFFFFFF8
FFFFFFFFFFFFFFFFFFFFFFFFFFFFF8
FFFFFFFFFFFFFFFFFFFFFFFFFFFFF8
FFFFFFFFFFFFFFFFFFFFFFFFFFFFF8
FFFFFFFFFFFFFFFFFFFFFFFFFFFFF8
FFFFFFFFFFFFFFFFFFFFFFFFFFFFF8
FFFFFFFFFFFFFFFFFFFFFFFFFFFFF8
FFFFFFFFFFFFFFFFFFFFFFFFFFFFF8
FFFFFFFFFFFFFFFFFFFFFFFFFFFFF8
FFFFFFFFFFFFFFFFFFFFFFFFFFFFF8
FFFFFFFFFFFFFFFFFFFFFFFFFFFFF8
FFFFFFFFFFFFFFFFFFFFFFFFFFFFF8
FFFFFFFFFFFFFFFFFFFFFFFFFFFFF8
FFFFFFFFFFFFFFFFFFFFFFFFFFFFF8
FFFFFFFFFFFFFFFFFFFFFFFFFFFFF8
FFFFFFFFFFFFFFFFFFFFFFFFFFFFF8
FFFFFFFFFFFFFFFFFFFFFFFFFFFFF8
000000000003FFFFFE000000000000
000000000003FFFFFE000000000000
000000000003FFFFFE000000000000
000000000003FFFFFE000000000000
000000000003FFFFFE000000000000
000000000003FFFFFE000000000000
000000000003FFFFFE000000000000
000000000003FFFFFE000000000000
000000000003FFFFFE000000000000
000000000003FFFFFE000000000000
000000000003FFFFFE000000000000
000000000003FFFFFE000000000000
000000000003FFFFFE000000000000
000000000003FFFFFE000000000000
000000000003FFFFFE000000000000
000000000003FFFFFE000000000000
000000000003FFFFFE000000000000
000000000003FFFFFE000000000000
000000000003FFFFFE000000000000
000000000003FFFFFE000000000000
000000000003FFFFFE000000000000
000000000003FFFFFE000000000000
000000000003FFFFFE000000000000
000000000003FFFFFE000000000000
000000000003FFFFFE000000000000
000000000003FFFFFE000000000000
000000000003FFFFFE000000000000
000000000003FFFFFE000000000000
000000000003FFFFFE000000000000
000000000003FFFFFE000000000000
000000000003FFFFFE000000000000
000000000003FFFFFE000000000000
000000000003FFFFFE000000000000
000000000003FFFFFE000000000000
000000000003FFFFFE000000000000
000000000003FFFFFE000000000000
000000000003FFFFFE000000000000
000000000003FFFFFE000000000000
000000000003FFFFFE000000000000
000000000003FFFFFE000000000000
000000000003FFFFFE000000000000
000000000003FFFFFE000000000000
000000000003FFFFFE000000000000
000000000003FFFFFE000000000000
000000000003FFFFFE000000000000
000000000003FFFFFE000000000000
ENDCHAR
STARTCHAR 002C
ENCODING 44
SWIDTH 261 0
DWIDTH 47 0
BBX 25 43 11 -42
BITMAP
FFFFFF80
FFFFFF80
FFFFFF80
FFFFFF80
FFFFFF80
FFFFFF80
FFFFFF80
FFFFFF80
FFFFFF80
FFFFFF80
FFFFFF80
FFFFFF80
FFFFFF80
FFFFFF80
FFFFFF80
FFFFFF80
FFFFFF80
FFFFFF80
FFFFFF80
FFFFFF80
FFFFFF80
FFFFFF80
FFFFFF80
FFFFFF80
FFFFFF80
000FFF00
000FFF00
000FFF00
000FFF00
000FFF00
000FFE00
000FFE00
000FFE00
001FFC00
001FFC00
001FF800
003FF800
003FF000
003FE000
001FC000
000F8000
00070000
00020000
ENDCHAR
STARTCHAR 002D
ENCODING 45
SWIDTH 388 0
DWIDTH 70 0
BBX 55 25 7 40
BITMAP
FFFFFFFFFFFFFE
FFFFFFFFFFFFFE
FFFFFFFFFFFFFE
FFFFFFFFFFFFFE
FFFFFFFFFFFFFE
FFFFFFFFFFFFFE
FFFFFFFFFFFFFE
FFFFFFFFFFFFFE
FFFFFFFFFFFFFE
FFFFFFFFFFFFFE
FFFFFFFFFFFFFE
FFFFFFFFFFFFFE
FFFFFFFFFFFFFE
FFFFFFFFFFFFFE
FFFFFFFFFFFFFE
FFFFFFFFFFFFFE
FFFFFFFFFFFFFE
FFFFFFFFFFFFFE
FFFFFFFFFFFFFE
FFFFFFFFFFFFFE
FFFFFFFFFFFFFE
FFFFFFFFFFFFFE
FFFFFFFFFFFFFE
FFFFFFFFFFFFFE
FFFFFFFFFFFFFE
ENDCHAR
STARTCHAR 002E
ENCODING 46
SWIDTH 261 0
DWIDTH 47 0
BBX 25 25 11 -24
BITMAP
FFFFFF80
FFFFFF80
FFFFFF80
FFFFFF80
FFFFFF80
FFFFFF80
FFFFFF80
FFFFFF80
FFFFFF80
FFFFFF80
FFFFFF80
FFFFFF80
FFFFFF80
FFFFFF80
FFFFFF80
FFFFFF80
FFFFFF80
FFFFFF80
FFFFFF80
FFFFFF80
FFFFFF80
FFFFFF80
FFFFFF80
FFFFFF80
FFFFFF80
ENDCHAR
STARTCHAR 002F
ENCODING 47
SWIDTH 333 0
DWIDTH 60 0
BBX 49 156 5 -24
BITMAP
00000003FFFF80
00000003FFFF80
00000007FFFF80
00000007FFFF80
00000007FFFF00
00000007FFFF00
00000007FFFF00
0000000FFFFF00
0000000FFFFF00
0000000FFFFF00
0000000FFFFE00
0000000FFFFE00
0000000FFFFE00
0000001FFFFE00
0000001FFFFE00
0000001FFFFC00
0000001FFFFC00
0000001FFFFC00
0000003FFFFC00
0000003FFFFC00
0000003FFFF800
0000003FFFF800
0000003FFFF800
0000007FFFF800
0000007FFFF800
0000007FFFF800
0000007FFFF000
0000007FFFF000
000000FFFFF000
000000FFFFF000
000000FFFFF000
000000FFFFE000
000000FFFFE000
000000FFFFE000
000001FFFFE000
000001FFFFE000
000001FFFFC000
000001FFFFC000
000001FFFFC000
000003FFFFC000
000003FFFFC000
000003FFFF8000
000003FFFF8000
000003FFFF8000
000007FFFF8000
000007FFFF8000
000007FFFF8000
000007FFFF0000
000007FFFF0000
00000FFFFF0000
00000FFFFF0000
00000FFFFF0000
00000FFFFE0000
00000FFFFE0000
00001FFFFE0000
00001FFFFE0000
00001FFFFE0000
00001FFFFC0000
00001FFFFC0000
00001FFFFC0000
00003FFFFC0000
00003FFFFC0000
00003FFFFC0000
00003FFFF80000
00003FFFF80000
00007FFFF80000
00007FFFF80000
00007FFFF80000
00007FFFF00000
00007FFFF00000
0000FFFFF00000
0000FFFFF00000
0000FFFFF00000
0000FFFFE00000
0000FFFFE00000
0001FFFFE00000
0001FFFFE00000
0001FFFFE00000
0001FFFFE00000
0001FFFFC00000
0001FFFFC00000
0003FFFFC00000
0003FFFFC00000
0003FFFFC00000
0003FFFF800000
0003FFFF800000
0007FFFF800000
0007FFFF800000
0007FFFF800000
0007FFFF000000
0007FFFF000000
000FFFFF000000
000FFFFF000000
000FFFFF000000
000FFFFE000000
000FFFFE000000
001FFFFE000000
001FFFFE000000
001FFFFE000000
001FFFFE000000
001FFFFC000000
001FFFFC000000
003FFFFC000000
003FFFFC000000
003FFFFC000000
003FFFF8000000
003FFFF8000000
007FFFF8000000
007FFFF8000000
007FFFF8000000
007FFFF0000000
007FFFF0000000
00FFFFF0000000
00FFFFF0000000
00FFFFF0000000
00FFFFF0000000
00FFFFE0000000
01FFFFE0000000
01FFFFE0000000
01FFFFE0000000
01FFFFE0000000
01FFFFC0000000
01FFFFC0000000
03FFFFC0000000
03FFFFC0000000
03FFFFC0000000
03FFFF80000000
03FFFF80000000
07FFFF80000000
07FFFF80000000
07FFFF80000000
07FFFF80000000
07FFFF00000000
0FFFFF00000000
0FFFFF00000000
0FFFFF00000000
0FFFFF00000000
0FFFFE00000000
1FFFFE00000000
1FFFFE00000000
1FFFFE00000000
1FFFFE00000000
1FFFFC00000000
1FFFFC00000000
3FFFFC00000000
3FFFFC00000000
3FFFFC00000000
3FFFF800000000
3FFFF800000000
7FFFF800000000
7FFFF800000000
7FFFF800000000
7FFFF800000000
7FFFF000000000
FFFFF000000000
FFFFF000000000
ENDCHAR
STARTCHAR 0030
ENCODING 48
SWIDTH 522 0
DWIDTH 94 0
BBX 84 156 5 -24
BITMAP
0000FFFFFFFFFFFFF00000
0001FFFFFFFFFFFFF80000
0003FFFFFFFFFFFFFC0000
0007FFFFFFFFFFFFFE0000
000FFFFFFFFFFFFFFF0000
001FFFFFFFFFFFFFFF8000
003FFFFFFFFFFFFFFFC000
007FFFFFFFFFFFFFFFE000
00FFFFFFFFFFFFFFFFF000
01FFFFFFFFFFFFFFFFF800
03FFFFFFFFFFFFFFFFFC00
07FFFFFFFFFFFFFFFFFE00
0FFFFFFFFFFFFFFFFFFF00
1FFFFFFFFFFFFFFFFFFF80
3FFFFFFFFFFFFFFFFFFFC0
7FFFFFFFFFFFFFFFFFFFE0
FFFFFFFFFFFFFFFFFFFFF0
FFFFFFFFFFFFFFFFFFFFF0
FFFFFFFFFFFFFFFFFFFFF0
FFFFFFFFFFFFFFFFFFFFF0
FFFFFFFFFFFFFFFFFFFFF0
FFFFFFFFFFFFFFFFFFFFF0
FFFFFFFFFFFFFFFFFFFFF0
FFFFFFFFFFFFFFFFFFFFF0
FFFFFFFFFFFFFFFFFFFFF0
FFFFFF800000001FFFFFF0
FFFFFF800000001FFFFFF0
FFFFFF800000001FFFFFF0
FFFFFF800000001FFFFFF0
FFFFFF800000001FFFFFF0
FFFFFF800000001FFFFFF0
FFFFFF800000001FFFFFF0
FFFFFF800000001FFFFFF0
FFFFFF800000001FFFFFF0
FFFFFF800000001FFFFFF0
FFFFFF800000001FFFFFF0
FFFFFF800000001FFFFFF0
FFFFFF800000001FFFFFF0
FFFFFF800000001FFFFFF0
FFFFFF800000001FFFFFF0
FFFFFF800000001FFFFFF0
FFFFFF800000001FFFFFF0
FFFFFF800000001FFFFFF0
FFFFFF800000001FFFFFF0
FFFFFF800000001FFFFFF0
FFFFFF800000001FFFFFF0
FFFFFF800000001FFFFFF0
FFFFFF800000001FFFFFF0
FFFFFF800000001FFFFFF0
FFFFFF800000001FFFFFF0
FFFFFF800000001FFFFFF0
FFFFFF800000001FFFFFF0
FFFFFF800000001FFFFFF0
FFFFFF800000001FFFFFF0
FFFFFF800000001FFFFFF0
FFFFFF800000001FFFFFF0
FFFFFF800000001FFFFFF0
FFFFFF800000001FFFFFF0
FFFFFF800000001FFFFFF0
FFFFFF800000001FFFFFF0
FFFFFF800000001FFFFFF0
FFFFFF800000001FFFFFF0
FFFFFF800000001FFFFFF0
FFFFFF800000001FFFFFF0
FFFFFF800000001FFFFFF0
FFFFFF800000001FFFFFF0
FFFFFF800000001FFFFFF0
FFFFFF800000001FFFFFF0
FFFFFF800000001FFFFFF0
FFFFFF800000001FFFFFF0
FFFFFF800000001FFFFFF0
FFFFFF800000001FFFFFF0
FFFFFF800000001FFFFFF0
FFFFFF800000001FFFFFF0
FFFFFF800000001FFFFFF0
FFFFFF800000001FFFFFF0
FFFFFF800000001FFFFFF0
FFFFFF800000001FFFFFF0
FFFFFF800000001FFFFFF0
FFFFFF800000001FFFFFF0
FFFFFF800000001FFFFFF0
FFFFFF800000001FFFFFF0
FFFFFF800000001FFFFFF0
FFFFFF800000001FFFFFF0
FFFFFF800000001FFFFFF0
FFFFFF800000001FFFFFF0
FFFFFF800000001FFFFFF0
FFFFFF800000001FFFFFF0
FFFFFF800000001FFFFFF0
FFFFFF800000001FFFFFF0
FFFFFF800000001FFFFFF0
FFFFFF800000001FFFFFF0
FFFFFF800000001FFFFFF0
FFFFFF800000001FFFFFF0
FFFFFF800000001FFFFFF0
FFFFFF800000001FFFFFF0
FFFFFF800000001FFFFFF0
FFFFFF800000001FFFFFF0
FFFFFF800000001FFFFFF0
FFFFFF800000001FFFFFF0
FFFFFF800000001FFFFFF0
FFFFFF800000001FFFFFF0
FFFFFF800000001FFFFFF0
FFFFFF800000001FFFFFF0
FFFFFF800000001FFFFFF0
FFFFFF800000001FFFFFF0
FFFFFF800000001FFFFFF0
FFFFFF800000001FFFFFF0
FFFFFF800000001FFFFFF0
FFFFFF800000001FFFFFF0
FFFFFF800000001FFFFFF0
FFFFFF800000001FFFFFF0
FFFFFF800000001FFFFFF0
FFFFFF800000001FFFFFF0
FFFFFF800000001FFFFFF0
FFFFFF800000001FFFFFF0
FFFFFF800000001FFFFFF0
FFFFFF800000001FFFFFF0
FFFFFF800000001FFFFFF0
FFFFFF800000001FFFFFF0
FFFFFF800000001FFFFFF0
FFFFFF800000001FFFFFF0
FFFFFF800000001FFFFFF0
FFFFFF800000001FFFFFF0
FFFFFF800000001FFFFFF0
FFFFFF800000001FFFFFF0
FFFFFF800000001FFFFFF0
FFFFFF800000001FFFFFF0
FFFFFF800000001FFFFFF0
FFFFFF800000001FFFFFF0
FFFFFF800000001FFFFFF0
FFFFFFFFFFFFFFFFFFFFF0
FFFFFFFFFFFFFFFFFFFFF0
FFFFFFFFFFFFFFFFFFFFF0
FFFFFFFFFFFFFFFFFFFFF0
FFFFFFFFFFFFFFFFFFFFF0
FFFFFFFFFFFFFFFFFFFFF0
FFFFFFFFFFFFFFFFFFFFF0
FFFFFFFFFFFFFFFFFFFFF0
FFFFFFFFFFFFFFFFFFFFF0
7FFFFFFFFFFFFFFFFFFFE0
3FFFFFFFFFFFFFFFFFFFC0
1FFFFFFFFFFFFFFFFFFF80
0FFFFFFFFFFFFFFFFFFF00
07FFFFFFFFFFFFFFFFFE00
03FFFFFFFFFFFFFFFFFC00
01FFFFFFFFFFFFFFFFF800
00FFFFFFFFFFFFFFFFF000
007FFFFFFFFFFFFFFFE000
003FFFFFFFFFFFFFFFC000
001FFFFFFFFFFFFFFF8000
000FFFFFFFFFFFFFFF0000
0007FFFFFFFFFFFFFE0000
0007FFFFFFFFFFFFFC0000
0003FFFFFFFFFFFFF80000
0001FFFFFFFFFFFFF00000
ENDCHAR
STARTCHAR 0031
ENCODING 49
SWIDTH 333 0
DWIDTH 60 0
BBX 49 156 5 -24
BITMAP
000003FFF80000
000003FFF80000
000007FFF80000
000007FFF80000
00000FFFF80000
00000FFFF80000
00001FFFF80000
00001FFFF80000
00003FFFF80000
00007FFFF80000
00007FFFF80000
0000FFFFF80000
0001FFFFF80000
0001FFFFF80000
0003FFFFF80000
0007FFFFF80000
000FFFFFF80000
001FFFFFF80000
003FFFFFF80000
007FFFFFF80000
01FFFFFFF80000
03FFFFFFF80000
0FFFFFFFF80000
1FFFFFFFF80000
7FFFFFFFF80000
FFFFFFFFF80000
FFFFFFFFF80000
FFFFFFFFF80000
FFFFFFFFF80000
FFFFFFFFF80000
FFFFFFFFF80000
FFFFFFFFF80000
FFFFFFFFF80000
FFFFFFFFF80000
FFFFFFFFF80000
FFFFFFFFF80000
FFFFFFFFF80000
FFFFFFFFF80000
FFFFFFFFF80000
000FFFFFF80000
000FFFFFF80000
000FFFFFF80000
000FFFFFF80000
000FFFFFF80000
000FFFFFF80000
000FFFFFF80000
000FFFFFF80000
000FFFFFF80000
000FFFFFF80000
000FFFFFF80000
000FFFFFF80000
000FFFFFF80000
000FFFFFF80000
000FFFFFF80000
000FFFFFF80000
000FFFFFF80000
000FFFFFF80000
000FFFFFF80000
000FFFFFF80000
000FFFFFF80000
000FFFFFF80000
000FFFFFF80000
000FFFFFF80000
000FFFFFF80000
000FFFFFF80000
000FFFFFF80000
000FFFFFF80000
000FFFFFF80000
000FFFFFF80000
000FFFFFF80000
000FFFFFF80000
000FFFFFF80000
000FFFFFF80000
000FFFFFF80000
000FFFFFF80000
000FFFFFF80000
000FFFFFF80000
000FFFFFF80000
000FFFFFF80000
000FFFFFF80000
000FFFFFF80000
000FFFFFF80000
000FFFFFF80000
000FFFFFF80000
000FFFFFF80000
000FFFFFF80000
000FFFFFF80000
000FFFFFF80000
000FFFFFF80000
000FFFFFF80000
000FFFFFF80000
000FFFFFF80000
000FFFFFF80000
000FFFFFF80000
000FFFFFF80000
000FFFFFF80000
000FFFFFF80000
000FFFFFF80000
000FFFFFF80000
000FFFFFF80000
000FFFFFF80000
000FFFFFF80000
000FFFFFF80000
000FFFFFF80000
000FFFFFF80000
000FFFFFF80000
000FFFFFF80000
000FFFFFF80000
000FFFFFF80000
000FFFFFF80000
000FFFFFF80000
000FFFFFF80000
000FFFFFF80000
000FFFFFF80000
000FFFFFF80000
000FFFFFF80000
000FFFFFF80000
000FFFFFF80000
000FFFFFF80000
000FFFFFF80000
000FFFFFF80000
000FFFFFF80000
000FFFFFF80000
000FFFFFF80000
000FFFFFF80000
000FFFFFF80000
000FFFFFF80000
000FFFFFF80000
000FFFFFF80000
000FFFFFF80000
000FFFFFF80000
FFFFFFFFFFFF80
FFFFFFFFFFFF80
FFFFFFFFFFFF80
FFFFFFFFFFFF80
FFFFFFFFFFFF80
FFFFFFFFFFFF80
FFFFFFFFFFFF80
FFFFFFFFFFFF80
FFFFFFFFFFFF80
FFFFFFFFFFFF80
FFFFFFFFFFFF80
FFFFFFFFFFFF80
FFFFFFFFFFFF80
FFFFFFFFFFFF80
FFFFFFFFFFFF80
FFFFFFFFFFFF80
FFFFFFFFFFFF80
FFFFFFFFFFFF80
FFFFFFFFFFFF80
FFFFFFFFFFFF80
FFFFFFFFFFFF80
FFFFFFFFFFFF80
FFFFFFFFFFFF80
FFFFFFFFFFFF80
FFFFFFFFFFFF80
ENDCHAR
STARTCHAR 0032
ENCODING 50
SWIDTH 522 0
DWIDTH 94 0
BBX 84 156 5 -24
BITMAP
00007FFFFFFFFFFFF80000
0000FFFFFFFFFFFFFC0000
0001FFFFFFFFFFFFFE0000
0003FFFFFFFFFFFFFF0000
0007FFFFFFFFFFFFFF8000
000FFFFFFFFFFFFFFF8000
001FFFFFFFFFFFFFFFC000
003FFFFFFFFFFFFFFFE000
007FFFFFFFFFFFFFFFF000
00FFFFFFFFFFFFFFFFF800
01FFFFFFFFFFFFFFFFFC00
03FFFFFFFFFFFFFFFFFE00
07FFFFFFFFFFFFFFFFFF00
0FFFFFFFFFFFFFFFFFFF80
3FFFFFFFFFFFFFFFFFFFC0
7FFFFFFFFFFFFFFFFFFFE0
FFFFFFFFFFFFFFFFFFFFF0
FFFFFFFFFFFFFFFFFFFFF0
FFFFFFFFFFFFFFFFFFFFF0
FFFFFFFFFFFFFFFFFFFFF0
FFFFFFFFFFFFFFFFFFFFF0
FFFFFFFFFFFFFFFFFFFFF0
FFFFFFFFFFFFFFFFFFFFF0
FFFFFFFFFFFFFFFFFFFFF0
FFFFFFFFFFFFFFFFFFFFF0
FFFFFF800000001FFFFFF0
FFFFFF800000001FFFFFF0
FFFFFF800000001FFFFFF0
FFFFFF800000001FFFFFF0
FFFFFF800000001FFFFFF0
FFFFFF800000001FFFFFF0
FFFFFF800000001FFFFFF0
FFFFFF800000001FFFFFF0
FFFFFF800000001FFFFFF0
FFFFFF800000001FFFFFF0
FFFFFF800000001FFFFFF0
FFFFFF800000001FFFFFF0
FFFFFF800000001FFFFFF0
FFFFFF800000001FFFFFF0
FFFFFF800000001FFFFFF0
FFFFFF800000001FFFFFF0
FFFFFF800000001FFFFFF0
FFFFFF800000001FFFFFF0
FFFFFF800000001FFFFFF0
FFFFFF800000001FFFFFF0
FFFFFF800000001FFFFFF0
000000000000001FFFFFF0
000000000000001FFFFFF0
000000000000001FFFFFF0
000000000000001FFFFFF0
000000000000001FFFFFF0
000000000000001FFFFFF0
000000000000001FFFFFF0
000000000000001FFFFFF0
000000000000001FFFFFF0
000000000000001FFFFFF0
000000000000001FFFFFF0
000000000000001FFFFFF0
000000000000001FFFFFF0
000000000000001FFFFFF0
000000000000001FFFFFF0
000000000000001FFFFFF0
000000000000001FFFFFF0
000000000000001FFFFFF0
000000000000001FFFFFF0
0000FFFFFFFFFFFFFFFFF0
0001FFFFFFFFFFFFFFFFF0
0003FFFFFFFFFFFFFFFFF0
0007FFFFFFFFFFFFFFFFF0
000FFFFFFFFFFFFFFFFFF0
001FFFFFFFFFFFFFFFFFF0
003FFFFFFFFFFFFFFFFFF0
007FFFFFFFFFFFFFFFFFF0
00FFFFFFFFFFFFFFFFFFF0
01FFFFFFFFFFFFFFFFFFF0
03FFFFFFFFFFFFFFFFFFE0
07FFFFFFFFFFFFFFFFFFC0
0FFFFFFFFFFFFFFFFFFF80
1FFFFFFFFFFFFFFFFFFF00
3FFFFFFFFFFFFFFFFFFE00
7FFFFFFFFFFFFFFFFFFC00
FFFFFFFFFFFFFFFFFFF800
FFFFFFFFFFFFFFFFFFF000
FFFFFFFFFFFFFFFFFFE000
FFFFFFFFFFFFFFFFFFC000
FFFFFFFFFFFFFFFFFF8000
FFFFFFFFFFFFFFFFFF0000
FFFFFFFFFFFFFFFFFE0000
FFFFFFFFFFFFFFFFFC0000
FFFFFFFFFFFFFFFFF80000
FFFFFF8000000000000000
FFFFFF8000000000000000
FFFFFF8000000000000000
FFFFFF8000000000000000
FFFFFF8000000000000000
FFFFFF8000000000000000
FFFFFF8000000000000000
FFFFFF8000000000000000
FFFFFF8000000000000000
FFFFFF8000000000000000
FFFFFF8000000000000000
FFFFFF8000000000000000
FFFFFF8000000000000000
FFFFFF8000000000000000
FFFFFF8000000000000000
FFFFFF8000000000000000
FFFFFF8000000000000000
FFFFFF8000000000000000
FFFFFF8000000000000000
FFFFFF8000000000000000
FFFFFF8000000000000000
FFFFFF8000000000000000
FFFFFF8000000000000000
FFFFFF8000000000000000
FFFFFF8000000000000000
FFFFFF8000000000000000
FFFFFF8000000000000000
FFFFFF8000000000000000
FFFFFF8000000000000000
FFFFFF8000000000000000
FFFFFF8000000000000000
FFFFFF8000000000000000
FFFFFF8000000000000000
FFFFFF8000000000000000
FFFFFF8000000000000000
FFFFFF8000000000000000
FFFFFF8000000000000000
FFFFFF8000000000000000
FFFFFF8000000000000000
FFFFFF8000000000000000
FFFFFF8000000000000000
FFFFFFFFFFFFFFFFFFFFF0
FFFFFFFFFFFFFFFFFFFFF0
FFFFFFFFFFFFFFFFFFFFF0
FFFFFFFFFFFFFFFFFFFFF0
FFFFFFFFFFFFFFFFFFFFF0
FFFFFFFFFFFFFFFFFFFFF0
FFFFFFFFFFFFFFFFFFFFF0
FFFFFFFFFFFFFFFFFFFFF0
FFFFFFFFFFFFFFFFFFFFF0
FFFFFFFFFFFFFFFFFFFFF0
FFFFFFFFFFFFFFFFFFFFF0
FFFFFFFFFFFFFFFFFFFFF0
FFFFFFFFFFFFFFFFFFFFF0
FFFFFFFFFFFFFFFFFFFFF0
FFFFFFFFFFFFFFFFFFFFF0
FFFFFFFFFFFFFFFFFFFFF0
FFFFFFFFFFFFFFFFFFFFF0
FFFFFFFFFFFFFFFFFFFFF0
FFFFFFFFFFFFFFFFFFFFF0
FFFFFFFFFFFFFFFFFFFFF0
FFFFFFFFFFFFFFFFFFFFF0
FFFFFFFFFFFFFFFFFFFFF0
FFFFFFFFFFFFFFFFFFFFF0
FFFFFFFFFFFFFFFFFFFFF0
FFFFFFFFFFFFFFFFFFFFF0
ENDCHAR
STARTCHAR 0033
ENCODING 51
SWIDTH 522 0
DWIDTH 94 0
BBX 84 156 5 -24
BITMAP
0000FFFFFFFFFFFFF80000
0001FFFFFFFFFFFFFC0000
0003FFFFFFFFFFFFFE0000
0007FFFFFFFFFFFFFF0000
000FFFFFFFFFFFFFFF8000
001FFFFFFFFFFFFFFFC000
003FFFFFFFFFFFFFFFE000
007FFFFFFFFFFFFFFFF000
00FFFFFFFFFFFFFFFFF800
01FFFFFFFFFFFFFFFFFC00
03FFFFFFFFFFFFFFFFFE00
07FFFFFFFFFFFFFFFFFF00
0FFFFFFFFFFFFFFFFFFF80
1FFFFFFFFFFFFFFFFFFFC0
3FFFFFFFFFFFFFFFFFFFE0
7FFFFFFFFFFFFFFFFFFFF0
FFFFFFFFFFFFFFFFFFFFF0
FFFFFFFFFFFFFFFFFFFFF0
FFFFFFFFFFFFFFFFFFFFF0
FFFFFFFFFFFFFFFFFFFFF0
FFFFFFFFFFFFFFFFFFFFF0
FFFFFFFFFFFFFFFFFFFFF0
FFFFFFFFFFFFFFFFFFFFF0
FFFFFFFFFFFFFFFFFFFFF0
FFFFFFFFFFFFFFFFFFFFF0
FFFFFF800000001FFFFFF0
FFFFFF800000001FFFFFF0
FFFFFF800000001FFFFFF0
FFFFFF800000001FFFFFF0
FFFFFF800000001FFFFFF0
FFFFFF800000001FFFFFF0
FFFFFF800000001FFFFFF0
FFFFFF800000001FFFFFF0
FFFFFF800000001FFFFFF0
FFFFFF800000001FFFFFF0
FFFFFF800000001FFFFFF0
FFFFFF800000001FFFFFF0
FFFFFF800000001FFFFFF0
FFFFFF800000001FFFFFF0
FFFFFF800000001FFFFFF0
FFFFFF800000001FFFFFF0
FFFFFF800000001FFFFFF0
FFFFFF800000001FFFFFF0
FFFFFF800000001FFFFFF0
FFFFFF800000001FFFFFF0
FFFFFF800000001FFFFFF0
000000000000001FFFFFF0
000000000000001FFFFFF0
000000000000001FFFFFF0
000000000000001FFFFFF0
000000000000001FFFFFF0
000000000000001FFFFFF0
000000000000001FFFFFF0
000000000000001FFFFFF0
000000000000001FFFFFF0
000000000000001FFFFFF0
000000000000001FFFFFF0
000000000000001FFFFFF0
000000000000001FFFFFF0
000000000000001FFFFFF0
000000000000001FFFFFF0
000000000000001FFFFFF0
000000000000001FFFFFF0
000000000000001FFFFFF0
000000000000001FFFFFE0
000000FFFFFFFFFFFFFFE0
000000FFFFFFFFFFFFFFC0
000000FFFFFFFFFFFFFF80
000000FFFFFFFFFFFFFF00
000000FFFFFFFFFFFFFE00
000000FFFFFFFFFFFFFC00
000000FFFFFFFFFFFFF800
000000FFFFFFFFFFFFF000
000000FFFFFFFFFFFFE000
000000FFFFFFFFFFFFC000
000000FFFFFFFFFFFF8000
000000FFFFFFFFFFFFC000
000000FFFFFFFFFFFFE000
000000FFFFFFFFFFFFE000
000000FFFFFFFFFFFFF000
000000FFFFFFFFFFFFF800
000000FFFFFFFFFFFFFC00
000000FFFFFFFFFFFFFE00
000000FFFFFFFFFFFFFF00
000000FFFFFFFFFFFFFF80
000000FFFFFFFFFFFFFFC0
000000FFFFFFFFFFFFFFE0
000000FFFFFFFFFFFFFFF0
000000FFFFFFFFFFFFFFF0
000000FFFFFFFFFFFFFFF0
000000000000001FFFFFF0
000000000000001FFFFFF0
000000000000001FFFFFF0
000000000000001FFFFFF0
000000000000001FFFFFF0
000000000000001FFFFFF0
000000000000001FFFFFF0
000000000000001FFFFFF0
000000000000001FFFFFF0
000000000000001FFFFFF0
000000000000001FFFFFF0
000000000000001FFFFFF0
000000000000001FFFFFF0
000000000000001FFFFFF0
000000000000001FFFFFF0
000000000000001FFFFFF0
000000000000001FFFFFF0
000000000000001FFFFFF0
000000000000001FFFFFF0
000000000000001FFFFFF0
000000000000001FFFFFF0
000000000000001FFFFFF0
FFFFFF800000001FFFFFF0
FFFFFF800000001FFFFFF0
FFFFFF800000001FFFFFF0
FFFFFF800000001FFFFFF0
FFFFFF800000001FFFFFF0
FFFFFF800000001FFFFFF0
FFFFFF800000001FFFFFF0
FFFFFF800000001FFFFFF0
FFFFFF800000001FFFFFF0
FFFFFF800000001FFFFFF0
FFFFFF800000001FFFFFF0
FFFFFF800000001FFFFFF0
FFFFFF800000001FFFFFF0
FFFFFF800000001FFFFFF0
FFFFFF800000001FFFFFF0
FFFFFF800000001FFFFFF0
FFFFFF800000001FFFFFF0
FFFFFF800000001FFFFFF0
FFFFFF800000001FFFFFF0
FFFFFFFFFFFFFFFFFFFFF0
FFFFFFFFFFFFFFFFFFFFF0
FFFFFFFFFFFFFFFFFFFFF0
FFFFFFFFFFFFFFFFFFFFF0
FFFFFFFFFFFFFFFFFFFFF0
FFFFFFFFFFFFFFFFFFFFF0
FFFFFFFFFFFFFFFFFFFFF0
FFFFFFFFFFFFFFFFFFFFF0
FFFFFFFFFFFFFFFFFFFFF0
FFFFFFFFFFFFFFFFFFFFF0
7FFFFFFFFFFFFFFFFFFFE0
3FFFFFFFFFFFFFFFFFFFC0
1FFFFFFFFFFFFFFFFFFF80
0FFFFFFFFFFFFFFFFFFF00
07FFFFFFFFFFFFFFFFFE00
03FFFFFFFFFFFFFFFFFC00
01FFFFFFFFFFFFFFFFF800
00FFFFFFFFFFFFFFFFF000
007FFFFFFFFFFFFFFFE000
003FFFFFFFFFFFFFFFC000
001FFFFFFFFFFFFFFF8000
000FFFFFFFFFFFFFFF0000
0007FFFFFFFFFFFFFF0000
0003FFFFFFFFFFFFFE0000
0001FFFFFFFFFFFFFC0000
ENDCHAR
STARTCHAR 0034
ENCODING 52
SWIDTH 644 0
DWIDTH 116 0
BBX 108 156 2 -24
BITMAP
000000000000000000FFFFFFFFF0
000000000000000001FFFFFFFFF0
000000000000000003FFFFFFFFF0
000000000000000003FFFFFFFFF0
000000000000000007FFFFFFFFF0
00000000000000000FFFFFFFFFF0
00000000000000001FFFFFFFFFF0
00000000000000003FFFFFFFFFF0
00000000000000003FFFFFFFFFF0
00000000000000007FFFFFFFFFF0
0000000000000000FFFFFFFFFFF0
0000000000000001FFFFFFFFFFF0
0000000000000001FFFFFFFFFFF0
0000000000000003FFFFFFFFFFF0
0000000000000007FFFFFFFFFFF0
000000000000000FFFFFFFFFFFF0
000000000000001FFFFFFFFFFFF0
000000000000001FFFFFFFFFFFF0
000000000000003FFFFFFFFFFFF0
000000000000007FFFFFFFFFFFF0
00000000000000FFFFFFFFFFFFF0
00000000000001FFFFFFFFFFFFF0
00000000000001FFFFFFFFFFFFF0
00000000000003FFFFFFFFFFFFF0
00000000000007FFFFFFFFFFFFF0
0000000000000FFFFFFFFFFF8000
0000000000001FFFFFFFFFFF8000
0000000000001FFFFFFFFFFF8000
0000000000003FFFFFFFFFFF8000
0000000000007FFFFFFFFFFF8000
000000000000FFFFFFFFFFFF8000
000000000000FFFFFFFFFFFF8000
000000000001FFFFFFFFFFFF8000
000000000003FFFFFFFFFFFF8000
000000000007FFFFFFFFFFFF8000
00000000000FFFFFFFFFFFFF8000
00000000000FFFFFFFFFFFFF8000
00000000001FFFFFFFFFFFFF8000
00000000003FFFFFFFFFFFFF8000
00000000007FFFFFFEFFFFFF8000
0000000000FFFFFFFCFFFFFF8000
0000000000FFFFFFF8FFFFFF8000
0000000001FFFFFFF8FFFFFF8000
0000000003FFFFFFF0FFFFFF8000
0000000007FFFFFFE0FFFFFF8000
0000000007FFFFFFC0FFFFFF8000
000000000FFFFFFF80FFFFFF8000
000000001FFFFFFF80FFFFFF8000
000000003FFFFFFF00FFFFFF8000
000000007FFFFFFE00FFFFFF8000
000000007FFFFFFC00FFFFFF8000
00000000FFFFFFFC00FFFFFF8000
00000001FFFFFFF800FFFFFF8000
00000003FFFFFFF000FFFFFF8000
00000007FFFFFFE000FFFFFF8000
00000007FFFFFFC000FFFFFF8000
0000000FFFFFFFC000FFFFFF8000
0000001FFFFFFF8000FFFFFF8000
0000003FFFFFFF0000FFFFFF8000
0000003FFFFFFE0000FFFFFF8000
0000007FFFFFFC0000FFFFFF8000
000000FFFFFFFC0000FFFFFF8000
000001FFFFFFF80000FFFFFF8000
000003FFFFFFF00000FFFFFF8000
000003FFFFFFE00000FFFFFF8000
000007FFFFFFE00000FFFFFF8000
00000FFFFFFFC00000FFFFFF8000
00001FFFFFFF800000FFFFFF8000
00003FFFFFFF000000FFFFFF8000
00003FFFFFFE000000FFFFFF8000
00007FFFFFFE000000FFFFFF8000
0000FFFFFFFC000000FFFFFF8000
0001FFFFFFF8000000FFFFFF8000
0003FFFFFFF0000000FFFFFF8000
0003FFFFFFE0000000FFFFFF8000
0007FFFFFFE0000000FFFFFF8000
000FFFFFFFC0000000FFFFFF8000
001FFFFFFF80000000FFFFFF8000
001FFFFFFF00000000FFFFFF8000
003FFFFFFF00000000FFFFFF8000
007FFFFFFE00000000FFFFFF8000
00FFFFFFFC00000000FFFFFF8000
01FFFFFFF800000000FFFFFF8000
01FFFFFFF000000000FFFFFF8000
03FFFFFFF000000000FFFFFF8000
07FFFFFFE000000000FFFFFF8000
0FFFFFFFC000000000FFFFFF8000
1FFFFFFF8000000000FFFFFF8000
1FFFFFFF0000000000FFFFFF8000
3FFFFFFF0000000000FFFFFF8000
7FFFFFFE0000000000FFFFFF8000
FFFFFFFC0000000000FFFFFF8000
FFFFFFFFFFFFFFFFFFFFFFFFFFF0
FFFFFFFFFFFFFFFFFFFFFFFFFFF0
FFFFFFFFFFFFFFFFFFFFFFFFFFF0
7FFFFFFFFFFFFFFFFFFFFFFFFFF0
7FFFFFFFFFFFFFFFFFFFFFFFFFF0
3FFFFFFFFFFFFFFFFFFFFFFFFFF0
3FFFFFFFFFFFFFFFFFFFFFFFFFF0
1FFFFFFFFFFFFFFFFFFFFFFFFFF0
1FFFFFFFFFFFFFFFFFFFFFFFFFF0
0FFFFFFFFFFFFFFFFFFFFFFFFFF0
0FFFFFFFFFFFFFFFFFFFFFFFFFF0
07FFFFFFFFFFFFFFFFFFFFFFFFF0
07FFFFFFFFFFFFFFFFFFFFFFFFF0
03FFFFFFFFFFFFFFFFFFFFFFFFF0
03FFFFFFFFFFFFFFFFFFFFFFFFF0
01FFFFFFFFFFFFFFFFFFFFFFFFF0
00FFFFFFFFFFFFFFFFFFFFFFFFF0
00FFFFFFFFFFFFFFFFFFFFFFFFF0
007FFFFFFFFFFFFFFFFFFFFFFFF0
007FFFFFFFFFFFFFFFFFFFFFFFF0
003FFFFFFFFFFFFFFFFFFFFFFFF0
003FFFFFFFFFFFFFFFFFFFFFFFF0
001FFFFFFFFFFFFFFFFFFFFFFFF0
001FFFFFFFFFFFFFFFFFFFFFFFF0
000FFFFFFFFFFFFFFFFFFFFFFFF0
000000000000000000FFFFFF8000
000000000000000000FFFFFF8000
000000000000000000FFFFFF8000
000000000000000000FFFFFF8000
000000000000000000FFFFFF8000
000000000000000000FFFFFF8000
000000000000000000FFFFFF8000
000000000000000000FFFFFF8000
000000000000000000FFFFFF8000
000000000000000000FFFFFF8000
000000000000000000FFFFFF8000
000000000000000000FFFFFF8000
000000000000000000FFFFFF8000
000000000000000000FFFFFF8000
0000000000000007FFFFFFFFFFF0
0000000000000007FFFFFFFFFFF0
0000000000000007FFFFFFFFFFF0
0000000000000007FFFFFFFFFFF0
0000000000000007FFFFFFFFFFF0
0000000000000007FFFFFFFFFFF0
0000000000000007FFFFFFFFFFF0
0000000000000007FFFFFFFFFFF0
0000000000000007FFFFFFFFFFF0
0000000000000007FFFFFFFFFFF0
0000000000000007FFFFFFFFFFF0
0000000000000007FFFFFFFFFFF0
0000000000000007FFFFFFFFFFF0
0000000000000007FFFFFFFFFFF0
0000000000000007FFFFFFFFFFF0
0000000000000007FFFFFFFFFFF0
0000000000000007FFFFFFFFFFF0
0000000000000007FFFFFFFFFFF0
0000000000000007FFFFFFFFFFF0
0000000000000007FFFFFFFFFFF0
0000000000000007FFFFFFFFFFF0
0000000000000007FFFFFFFFFFF0
0000000000000007FFFFFFFFFFF0
0000000000000007FFFFFFFFFFF0
0000000000000007FFFFFFFFFFF0
ENDCHAR
STARTCHAR 0035
ENCODING 53
SWIDTH 522 0
DWIDTH 94 0
BBX 84 156 5 -24
BITMAP
FFFFFFFFFFFFFFFFFFFFF0
FFFFFFFFFFFFFFFFFFFFF0
FFFFFFFFFFFFFFFFFFFFF0
FFFFFFFFFFFFFFFFFFFFF0
FFFFFFFFFFFFFFFFFFFFF0
FFFFFFFFFFFFFFFFFFFFF0
FFFFFFFFFFFFFFFFFFFFF0
FFFFFFFFFFFFFFFFFFFFF0
FFFFFFFFFFFFFFFFFFFFF0
FFFFFFFFFFFFFFFFFFFFF0
FFFFFFFFFFFFFFFFFFFFF0
FFFFFFFFFFFFFFFFFFFFF0
FFFFFFFFFFFFFFFFFFFFF0
FFFFFFFFFFFFFFFFFFFFF0
FFFFFFFFFFFFFFFFFFFFF0
FFFFFFFFFFFFFFFFFFFFF0
FFFFFFFFFFFFFFFFFFFFF0
FFFFFFFFFFFFFFFFFFFFF0
FFFFFFFFFFFFFFFFFFFFF0
FFFFFFFFFFFFFFFFFFFFF0
FFFFFFFFFFFFFFFFFFFFF0
FFFFFFFFFFFFFFFFFFFFF0
FFFFFFFFFFFFFFFFFFFFF0
FFFFFFFFFFFFFFFFFFFFF0
FFFFFFFFFFFFFFFFFFFFF0
FFFFFF8000000000000000
FFFFFF8000000000000000
FFFFFF8000000000000000
FFFFFF8000000000000000
FFFFFF8000000000000000
FFFFFF8000000000000000
FFFFFF8000000000000000
FFFFFF8000000000000000
FFFFFF8000000000000000
FFFFFF8000000000000000
FFFFFF8000000000000000
FFFFFF8000000000000000
FFFFFF8000000000000000
FFFFFF8000000000000000
FFFFFF8000000000000000
FFFFFF8000000000000000
FFFFFF8000000000000000
FFFFFF8000000000000000
FFFFFF8000000000000000
FFFFFF8000000000000000
FFFFFF8000000000000000
FFFFFF8000000000000000
FFFFFF8000000000000000
FFFFFF8000000000000000
FFFFFF8000000000000000
FFFFFF8000000000000000
FFFFFF8000000000000000
FFFFFF8000000000000000
FFFFFF8000000000000000
FFFFFF8000000000000000
FFFFFF8000000000000000
FFFFFF8000000000000000
FFFFFF8000000000000000
FFFFFF8000000000000000
FFFFFF8000000000000000
FFFFFF8000000000000000
FFFFFF8000000000000000
FFFFFF8000000000000000
FFFFFF8000000000000000
FFFFFF8000000000000000
FFFFFFFFFFFFFFFFF00000
FFFFFFFFFFFFFFFFF80000
FFFFFFFFFFFFFFFFFC0000
FFFFFFFFFFFFFFFFFE0000
FFFFFFFFFFFFFFFFFF0000
FFFFFFFFFFFFFFFFFF8000
FFFFFFFFFFFFFFFFFFC000
FFFFFFFFFFFFFFFFFFF000
FFFFFFFFFFFFFFFFFFF800
FFFFFFFFFFFFFFFFFFFC00
FFFFFFFFFFFFFFFFFFFE00
FFFFFFFFFFFFFFFFFFFF00
FFFFFFFFFFFFFFFFFFFF80
FFFFFFFFFFFFFFFFFFFFC0
FFFFFFFFFFFFFFFFFFFFE0
FFFFFFFFFFFFFFFFFFFFF0
FFFFFFFFFFFFFFFFFFFFF0
FFFFFFFFFFFFFFFFFFFFF0
FFFFFFFFFFFFFFFFFFFFF0
FFFFFFFFFFFFFFFFFFFFF0
7FFFFFFFFFFFFFFFFFFFF0
3FFFFFFFFFFFFFFFFFFFF0
1FFFFFFFFFFFFFFFFFFFF0
0FFFFFFFFFFFFFFFFFFFF0
07FFFFFFFFFFFFFFFFFFF0
03FFFE000000001FFFFFF0
01FFFC000000001FFFFFF0
00FFF8000000001FFFFFF0
007FF0000000001FFFFFF0
003FE0000000001FFFFFF0
001FC0000000001FFFFFF0
000F80000000001FFFFFF0
000700000000001FFFFFF0
000200000000001FFFFFF0
000000000000001FFFFFF0
000000000000001FFFFFF0
000000000000001FFFFFF0
000000000000001FFFFFF0
000000000000001FFFFFF0
000000000000001FFFFFF0
000000000000001FFFFFF0
000000000000001FFFFFF0
000000000000001FFFFFF0
000000000000001FFFFFF0
000000000000001FFFFFF0
000000000000001FFFFFF0
000000000000001FFFFFF0
000000000000001FFFFFF0
000000000000001FFFFFF0
FFFFFF800000001FFFFFF0
FFFFFF800000001FFFFFF0
FFFFFF800000001FFFFFF0
FFFFFF800000001FFFFFF0
FFFFFF800000001FFFFFF0
FFFFFF800000001FFFFFF0
FFFFFF800000001FFFFFF0
FFFFFF800000001FFFFFF0
FFFFFF800000001FFFFFF0
FFFFFF800000001FFFFFF0
FFFFFF800000001FFFFFF0
FFFFFF800000001FFFFFF0
FFFFFF800000001FFFFFF0
FFFFFF800000001FFFFFF0
FFFFFF800000001FFFFFF0
FFFFFF800000001FFFFFF0
FFFFFF800000001FFFFFF0
FFFFFFFFFFFFFFFFFFFFF0
FFFFFFFFFFFFFFFFFFFFF0
FFFFFFFFFFFFFFFFFFFFF0
FFFFFFFFFFFFFFFFFFFFF0
FFFFFFFFFFFFFFFFFFFFF0
FFFFFFFFFFFFFFFFFFFFF0
FFFFFFFFFFFFFFFFFFFFF0
FFFFFFFFFFFFFFFFFFFFF0
FFFFFFFFFFFFFFFFFFFFF0
FFFFFFFFFFFFFFFFFFFFF0
FFFFFFFFFFFFFFFFFFFFF0
FFFFFFFFFFFFFFFFFFFFF0
FFFFFFFFFFFFFFFFFFFFE0
FFFFFFFFFFFFFFFFFFFFC0
7FFFFFFFFFFFFFFFFFFF80
3FFFFFFFFFFFFFFFFFFF00
1FFFFFFFFFFFFFFFFFFE00
0FFFFFFFFFFFFFFFFFFC00
07FFFFFFFFFFFFFFFFF800
03FFFFFFFFFFFFFFFFF000
00FFFFFFFFFFFFFFFFE000
007FFFFFFFFFFFFFFFC000
003FFFFFFFFFFFFFFF8000
001FFFFFFFFFFFFFFF0000
000FFFFFFFFFFFFFFE0000
ENDCHAR
STARTCHAR 0036
ENCODING 54
SWIDTH 522 0
DWIDTH 94 0
BBX 84 156 5 -24
BITMAP
00003FFFFFFFFFFFF80000
00007FFFFFFFFFFFFC0000
0000FFFFFFFFFFFFFE0000
0003FFFFFFFFFFFFFF0000
0007FFFFFFFFFFFFFF8000
000FFFFFFFFFFFFFFFC000
001FFFFFFFFFFFFFFFE000
003FFFFFFFFFFFFFFFF000
007FFFFFFFFFFFFFFFF800
00FFFFFFFFFFFFFFFFFC00
01FFFFFFFFFFFFFFFFFE00
03FFFFFFFFFFFFFFFFFF00
07FFFFFFFFFFFFFFFFFF80
0FFFFFFFFFFFFFFFFFFFC0
1FFFFFFFFFFFFFFFFFFFE0
3FFFFFFFFFFFFFFFFFFFF0
7FFFFFFFFFFFFFFFFFFFF0
FFFFFFFFFFFFFFFFFFFFF0
FFFFFFFFFFFFFFFFFFFFF0
FFFFFFFFFFFFFFFFFFFFF0
FFFFFFFFFFFFFFFFFFFFF0
FFFFFFFFFFFFFFFFFFFFF0
FFFFFFFFFFFFFFFFFFFFF0
FFFFFFFFFFFFFFFFFFFFF0
FFFFFFFFFFFFFFFFFFFFF0
FFFFFF800000001FFFFFF0
FFFFFF800000001FFFFFF0
FFFFFF800000001FFFFFF0
FFFFFF800000001FFFFFF0
FFFFFF800000001FFFFFF0
FFFFFF800000001FFFFFF0
FFFFFF800000001FFFFFF0
FFFFFF800000001FFFFFF0
FFFFFF800000001FFFFFF0
FFFFFF800000001FFFFFF0
FFFFFF800000001FFFFFF0
FFFFFF800000001FFFFFF0
FFFFFF800000001FFFFFF0
FFFFFF800000001FFFFFF0
FFFFFF800000001FFFFFF0
FFFFFF800000001FFFFFF0
FFFFFF800000001FFFFFF0
FFFFFF800000001FFFFFF0
FFFFFF800000001FFFFFF0
FFFFFF800000001FFFFFF0
FFFFFF8000000000000000
FFFFFF8000000000000000
FFFFFF8000000000000000
FFFFFF8000000000000000
FFFFFF8000000000000000
FFFFFF8000000000000000
FFFFFF8000000000000000
FFFFFF8000000000000000
FFFFFF8000000000000000
FFFFFF8000000000000000
FFFFFF8000000000000000
FFFFFF8000000000000000
FFFFFF8000000000000000
FFFFFF8000000000000000
FFFFFF8000000000000000
FFFFFF8000000000000000
FFFFFF8000000000000000
FFFFFF8000000000000000
FFFFFF8000000000000000
FFFFFF8000000000000000
FFFFFF8000000000000000
FFFFFF8000000000000000
FFFFFFFFFFFFFFFFFC0000
FFFFFFFFFFFFFFFFFE0000
FFFFFFFFFFFFFFFFFF0000
FFFFFFFFFFFFFFFFFF8000
FFFFFFFFFFFFFFFFFFC000
FFFFFFFFFFFFFFFFFFE000
FFFFFFFFFFFFFFFFFFF000
FFFFFFFFFFFFFFFFFFF800
FFFFFFFFFFFFFFFFFFFC00
FFFFFFFFFFFFFFFFFFFE00
FFFFFFFFFFFFFFFFFFFF00
FFFFFFFFFFFFFFFFFFFF80
FFFFFFFFFFFFFFFFFFFFC0
FFFFFFFFFFFFFFFFFFFFE0
FFFFFFFFFFFFFFFFFFFFF0
FFFFFFFFFFFFFFFFFFFFF0
FFFFFFFFFFFFFFFFFFFFF0
FFFFFFFFFFFFFFFFFFFFF0
FFFFFFFFFFFFFFFFFFFFF0
FFFFFFFFFFFFFFFFFFFFF0
FFFFFFFFFFFFFFFFFFFFF0
FFFFFFFFFFFFFFFFFFFFF0
FFFFFFFFFFFFFFFFFFFFF0
FFFFFFFFFFFFFFFFFFFFF0
FFFFFFFFFFFFFFFFFFFFF0
FFFFFF800000001FFFFFF0
FFFFFF800000001FFFFFF0
FFFFFF800000001FFFFFF0
FFFFFF800000001FFFFFF0
FFFFFF800000001FFFFFF0
FFFFFF800000001FFFFFF0
FFFFFF800000001FFFFFF0
FFFFFF800000001FFFFFF0
FFFFFF800000001FFFFFF0
FFFFFF800000001FFFFFF0
FFFFFF800000001FFFFFF0
FFFFFF800000001FFFFFF0
FFFFFF800000001FFFFFF0
FFFFFF800000001FFFFFF0
FFFFFF800000001FFFFFF0
FFFFFF800000001FFFFFF0
FFFFFF800000001FFFFFF0
FFFFFF800000001FFFFFF0
FFFFFF800000001FFFFFF0
FFFFFF800000001FFFFFF0
FFFFFF800000001FFFFFF0
FFFFFF800000001FFFFFF0
FFFFFF800000001FFFFFF0
FFFFFF800000001FFFFFF0
FFFFFF800000001FFFFFF0
FFFFFF800000001FFFFFF0
FFFFFF800000001FFFFFF0
FFFFFF800000001FFFFFF0
FFFFFF800000001FFFFFF0
FFFFFF800000001FFFFFF0
FFFFFF800000001FFFFFF0
FFFFFF800000001FFFFFF0
FFFFFF800000001FFFFFF0
FFFFFF800000001FFFFFF0
FFFFFF800000001FFFFFF0
FFFFFF800000001FFFFFF0
FFFFFF800000001FFFFFF0
FFFFFF800000001FFFFFF0
FFFFFF800000001FFFFFF0
FFFFFFFFFFFFFFFFFFFFF0
FFFFFFFFFFFFFFFFFFFFF0
FFFFFFFFFFFFFFFFFFFFF0
FFFFFFFFFFFFFFFFFFFFF0
FFFFFFFFFFFFFFFFFFFFF0
FFFFFFFFFFFFFFFFFFFFF0
FFFFFFFFFFFFFFFFFFFFF0
FFFFFFFFFFFFFFFFFFFFF0
FFFFFFFFFFFFFFFFFFFFF0
FFFFFFFFFFFFFFFFFFFFF0
FFFFFFFFFFFFFFFFFFFFE0
7FFFFFFFFFFFFFFFFFFFC0
3FFFFFFFFFFFFFFFFFFF80
1FFFFFFFFFFFFFFFFFFF00
0FFFFFFFFFFFFFFFFFFF00
07FFFFFFFFFFFFFFFFFE00
03FFFFFFFFFFFFFFFFFC00
00FFFFFFFFFFFFFFFFF800
007FFFFFFFFFFFFFFFF000
003FFFFFFFFFFFFFFFE000
001FFFFFFFFFFFFFFFC000
000FFFFFFFFFFFFFFF8000
0007FFFFFFFFFFFFFF0000
0003FFFFFFFFFFFFFE0000
0001FFFFFFFFFFFFFC0000
ENDCHAR
STARTCHAR 0037
ENCODING 55
SWIDTH 505 0
DWIDTH 91 0
BBX 81 156 5 -24
BITMAP
FFFFFFFFFFFFFFFFFFFF80
FFFFFFFFFFFFFFFFFFFF80
FFFFFFFFFFFFFFFFFFFF80
FFFFFFFFFFFFFFFFFFFF80
FFFFFFFFFFFFFFFFFFFF80
FFFFFFFFFFFFFFFFFFFF80
FFFFFFFFFFFFFFFFFFFF80
FFFFFFFFFFFFFFFFFFFF80
FFFFFFFFFFFFFFFFFFFF80
FFFFFFFFFFFFFFFFFFFF80
FFFFFFFFFFFFFFFFFFFF80
FFFFFFFFFFFFFFFFFFFF80
FFFFFFFFFFFFFFFFFFFF80
FFFFFFFFFFFFFFFFFFFF80
FFFFFFFFFFFFFFFFFFFF80
FFFFFFFFFFFFFFFFFFFF80
FFFFFFFFFFFFFFFFFFFF80
FFFFFFFFFFFFFFFFFFFF80
FFFFFFFFFFFFFFFFFFFF80
FFFFFFFFFFFFFFFFFFFF80
FFFFFFFFFFFFFFFFFFFF80
FFFFFFFFFFFFFFFFFFFF80
FFFFFFFFFFFFFFFFFFFF80
FFFFFFFFFFFFFFFFFFFF80
FFFFFFFFFFFFFFFFFFFF80
FFFFFF80000000FFFFFF80
FFFFFF80000000FFFFFF80
FFFFFF80000000FFFFFF80
FFFFFF80000000FFFFFF80
FFFFFF80000000FFFFFF80
FFFFFF80000000FFFFFF80
FFFFFF80000000FFFFFF80
FFFFFF80000000FFFFFF80
FFFFFF80000000FFFFFF80
FFFFFF80000000FFFFFF80
FFFFFF80000000FFFFFF80
FFFFFF80000000FFFFFF80
FFFFFF80000000FFFFFF80
FFFFFF80000000FFFFFF80
FFFFFF80000001FFFFFF80
FFFFFF80000001FFFFFF80
FFFFFF80000001FFFFFF80
FFFFFF80000003FFFFFF80
FFFFFF80000003FFFFFF80
FFFFFF80000003FFFFFF00
FFFFFF80000007FFFFFF00
00000000000007FFFFFF00
0000000000000FFFFFFE00
0000000000000FFFFFFE00
0000000000000FFFFFFC00
0000000000001FFFFFFC00
0000000000001FFFFFFC00
0000000000003FFFFFF800
0000000000003FFFFFF800
0000000000003FFFFFF800
0000000000007FFFFFF000
0000000000007FFFFFF000
000000000000FFFFFFE000
000000000000FFFFFFE000
000000000000FFFFFFE000
000000000001FFFFFFC000
000000000001FFFFFFC000
000000000003FFFFFFC000
000000000003FFFFFF8000
000000000003FFFFFF8000
000000000007FFFFFF0000
000000000007FFFFFF0000
000000000007FFFFFF0000
00000000000FFFFFFE0000
00000000000FFFFFFE0000
00000000001FFFFFFE0000
00000000001FFFFFFC0000
00000000001FFFFFFC0000
00000000003FFFFFF80000
00000000003FFFFFF80000
00000000007FFFFFF80000
00000000007FFFFFF00000
00000000007FFFFFF00000
0000000000FFFFFFF00000
0000000000FFFFFFE00000
0000000001FFFFFFE00000
0000000001FFFFFFC00000
0000000001FFFFFFC00000
0000000003FFFFFFC00000
0000000003FFFFFF800000
0000000003FFFFFF800000
0000000007FFFFFF000000
0000000007FFFFFF000000
000000000FFFFFFF000000
000000000FFFFFFE000000
000000000FFFFFFE000000
000000001FFFFFFE000000
000000001FFFFFFC000000
000000003FFFFFFC000000
000000003FFFFFF8000000
000000003FFFFFF8000000
000000007FFFFFF8000000
000000007FFFFFF0000000
00000000FFFFFFF0000000
00000000FFFFFFF0000000
00000000FFFFFFE0000000
00000001FFFFFFE0000000
00000001FFFFFFC0000000
00000001FFFFFFC0000000
00000003FFFFFFC0000000
00000003FFFFFF80000000
00000007FFFFFF80000000
00000007FFFFFF80000000
00000007FFFFFF00000000
0000000FFFFFFF00000000
0000000FFFFFFE00000000
0000001FFFFFFE00000000
0000001FFFFFFE00000000
0000001FFFFFFC00000000
0000003FFFFFFC00000000
0000003FFFFFFC00000000
0000007FFFFFF800000000
0000007FFFFFF800000000
0000007FFFFFF000000000
000000FFFFFFF000000000
000000FFFFFFF000000000
000000FFFFFFE000000000
000001FFFFFFE000000000
000001FFFFFFE000000000
000003FFFFFFC000000000
000003FFFFFFC000000000
000003FFFFFF8000000000
000007FFFFFF8000000000
000007FFFFFF8000000000
00000FFFFFFF0000000000
00000FFFFFFF0000000000
003FFFFFFFFFFFE0000000
003FFFFFFFFFFFE0000000
003FFFFFFFFFFFE0000000
003FFFFFFFFFFFE0000000
003FFFFFFFFFFFE0000000
003FFFFFFFFFFFE0000000
003FFFFFFFFFFFE0000000
003FFFFFFFFFFFE0000000
003FFFFFFFFFFFE0000000
003FFFFFFFFFFFE0000000
003FFFFFFFFFFFE0000000
003FFFFFFFFFFFE0000000
003FFFFFFFFFFFE0000000
003FFFFFFFFFFFE0000000
003FFFFFFFFFFFE0000000
003FFFFFFFFFFFE0000000
003FFFFFFFFFFFE0000000
003FFFFFFFFFFFE0000000
003FFFFFFFFFFFE0000000
003FFFFFFFFFFFE0000000
003FFFFFFFFFFFE0000000
003FFFFFFFFFFFE0000000
003FFFFFFFFFFFE0000000
003FFFFFFFFFFFE0000000
003FFFFFFFFFFFE0000000
ENDCHAR
STARTCHAR 0038
ENCODING 56
SWIDTH 522 0
DWIDTH 94 0
BBX 84 156 5 -24
BITMAP
0003FFFFFFFFFFFFFE0000
0007FFFFFFFFFFFFFF0000
000FFFFFFFFFFFFFFF8000
001FFFFFFFFFFFFFFFC000
003FFFFFFFFFFFFFFFE000
007FFFFFFFFFFFFFFFF000
00FFFFFFFFFFFFFFFFF800
01FFFFFFFFFFFFFFFFFC00
03FFFFFFFFFFFFFFFFFE00
07FFFFFFFFFFFFFFFFFF00
0FFFFFFFFFFFFFFFFFFF80
1FFFFFFFFFFFFFFFFFFFC0
3FFFFFFFFFFFFFFFFFFFE0
7FFFFFFFFFFFFFFFFFFFF0
FFFFFFFFFFFFFFFFFFFFF0
FFFFFFFFFFFFFFFFFFFFF0
FFFFFFFFFFFFFFFFFFFFF0
FFFFFFFFFFFFFFFFFFFFF0
FFFFFFFFFFFFFFFFFFFFF0
FFFFFFFFFFFFFFFFFFFFF0
FFFFFFFFFFFFFFFFFFFFF0
FFFFFFFFFFFFFFFFFFFFF0
FFFFFFFFFFFFFFFFFFFFF0
FFFFFFFFFFFFFFFFFFFFF0
FFFFFFFFFFFFFFFFFFFFF0
FFFFFF800000001FFFFFF0
FFFFFF800000001FFFFFF0
FFFFFF800000001FFFFFF0
FFFFFF800000001FFFFFF0
FFFFFF800000001FFFFFF0
FFFFFF800000001FFFFFF0
FFFFFF800000001FFFFFF0
FFFFFF800000001FFFFFF0
FFFFFF800000001FFFFFF0
FFFFFF800000001FFFFFF0
FFFFFF800000001FFFFFF0
FFFFFF800000001FFFFFF0
FFFFFF800000001FFFFFF0
FFFFFF800000001FFFFFF0
FFFFFF800000001FFFFFF0
FFFFFF800000001FFFFFF0
FFFFFF800000001FFFFFF0
FFFFFF800000001FFFFFF0
FFFFFF800000001FFFFFF0
FFFFFF800000001FFFFFF0
FFFFFF800000001FFFFFF0
FFFFFF800000001FFFFFF0
FFFFFF800000001FFFFFF0
FFFFFF800000001FFFFFF0
FFFFFF800000001FFFFFF0
FFFFFF800000001FFFFFF0
FFFFFF800000001FFFFFF0
FFFFFF800000001FFFFFF0
FFFFFF800000001FFFFFF0
FFFFFF800000001FFFFFF0
FFFFFFFFFFFFFFFFFFFFF0
FFFFFFFFFFFFFFFFFFFFF0
FFFFFFFFFFFFFFFFFFFFE0
7FFFFFFFFFFFFFFFFFFFC0
3FFFFFFFFFFFFFFFFFFFC0
1FFFFFFFFFFFFFFFFFFF80
0FFFFFFFFFFFFFFFFFFF00
07FFFFFFFFFFFFFFFFFE00
03FFFFFFFFFFFFFFFFFC00
01FFFFFFFFFFFFFFFFF800
00FFFFFFFFFFFFFFFFF000
007FFFFFFFFFFFFFFFE000
003FFFFFFFFFFFFFFFE000
003FFFFFFFFFFFFFFFF000
007FFFFFFFFFFFFFFFF800
00FFFFFFFFFFFFFFFFFC00
01FFFFFFFFFFFFFFFFFE00
03FFFFFFFFFFFFFFFFFF00
07FFFFFFFFFFFFFFFFFF80
0FFFFFFFFFFFFFFFFFFFC0
1FFFFFFFFFFFFFFFFFFFE0
3FFFFFFFFFFFFFFFFFFFF0
7FFFFFFFFFFFFFFFFFFFF0
FFFFFFFFFFFFFFFFFFFFF0
FFFFFFFFFFFFFFFFFFFFF0
FFFFFF800000001FFFFFF0
FFFFFF800000001FFFFFF0
FFFFFF800000001FFFFFF0
FFFFFF800000001FFFFFF0
FFFFFF800000001FFFFFF0
FFFFFF800000001FFFFFF0
FFFFFF800000001FFFFFF0
FFFFFF800000001FFFFFF0
FFFFFF800000001FFFFFF0
FFFFFF800000001FFFFFF0
FFFFFF800000001FFFFFF0
FFFFFF800000001FFFFFF0
FFFFFF800000001FFFFFF0
FFFFFF800000001FFFFFF0
FFFFFF800000001FFFFFF0
FFFFFF800000001FFFFFF0
FFFFFF800000001FFFFFF0
FFFFFF800000001FFFFFF0
FFFFFF800000001FFFFFF0
FFFFFF800000001FFFFFF0
FFFFFF800000001FFFFFF0
FFFFFF800000001FFFFFF0
FFFFFF800000001FFFFFF0
FFFFFF800000001FFFFFF0
FFFFFF800000001FFFFFF0
FFFFFF800000001FFFFFF0
FFFFFF800000001FFFFFF0
FFFFFF800000001FFFFFF0
FFFFFF800000001FFFFFF0
FFFFFF800000001FFFFFF0
FFFFFF800000001FFFFFF0
FFFFFF800000001FFFFFF0
FFFFFF800000001FFFFFF0
FFFFFF800000001FFFFFF0
FFFFFF800000001FFFFFF0
FFFFFF800000001FFFFFF0
FFFFFF800000001FFFFFF0
FFFFFF800000001FFFFFF0
FFFFFF800000001FFFFFF0
FFFFFF800000001FFFFFF0
FFFFFF800000001FFFFFF0
FFFFFF800000001FFFFFF0
FFFFFF800000001FFFFFF0
FFFFFF800000001FFFFFF0
FFFFFF800000001FFFFFF0
FFFFFF800000001FFFFFF0
FFFFFF800000001FFFFFF0
FFFFFF800000001FFFFFF0
FFFFFF800000001FFFFFF0
FFFFFF800000001FFFFFF0
FFFFFF800000001FFFFFF0
FFFFFFFFFFFFFFFFFFFFF0
FFFFFFFFFFFFFFFFFFFFF0
FFFFFFFFFFFFFFFFFFFFF0
FFFFFFFFFFFFFFFFFFFFF0
FFFFFFFFFFFFFFFFFFFFF0
FFFFFFFFFFFFFFFFFFFFF0
FFFFFFFFFFFFFFFFFFFFF0
FFFFFFFFFFFFFFFFFFFFF0
FFFFFFFFFFFFFFFFFFFFF0
7FFFFFFFFFFFFFFFFFFFE0
3FFFFFFFFFFFFFFFFFFFC0
1FFFFFFFFFFFFFFFFFFF80
0FFFFFFFFFFFFFFFFFFF00
07FFFFFFFFFFFFFFFFFE00
03FFFFFFFFFFFFFFFFFC00
01FFFFFFFFFFFFFFFFF800
00FFFFFFFFFFFFFFFFF000
007FFFFFFFFFFFFFFFE000
003FFFFFFFFFFFFFFFC000
001FFFFFFFFFFFFFFF8000
000FFFFFFFFFFFFFFF0000
0007FFFFFFFFFFFFFE0000
0003FFFFFFFFFFFFFC0000
0001FFFFFFFFFFFFF80000
0000FFFFFFFFFFFFF00000
ENDCHAR
STARTCHAR 0039
ENCODING 57
SWIDTH 522 0
DWIDTH 94 0
BBX 84 156 5 -24
BITMAP
0003FFFFFFFFFFFFF80000
0007FFFFFFFFFFFFFC0000
000FFFFFFFFFFFFFFE0000
001FFFFFFFFFFFFFFF0000
003FFFFFFFFFFFFFFF8000
007FFFFFFFFFFFFFFFC000
00FFFFFFFFFFFFFFFFE000
01FFFFFFFFFFFFFFFFF000
03FFFFFFFFFFFFFFFFFC00
07FFFFFFFFFFFFFFFFFE00
0FFFFFFFFFFFFFFFFFFF00
0FFFFFFFFFFFFFFFFFFF80
1FFFFFFFFFFFFFFFFFFFC0
3FFFFFFFFFFFFFFFFFFFE0
7FFFFFFFFFFFFFFFFFFFF0
FFFFFFFFFFFFFFFFFFFFF0
FFFFFFFFFFFFFFFFFFFFF0
FFFFFFFFFFFFFFFFFFFFF0
FFFFFFFFFFFFFFFFFFFFF0
FFFFFFFFFFFFFFFFFFFFF0
FFFFFFFFFFFFFFFFFFFFF0
FFFFFFFFFFFFFFFFFFFFF0
FFFFFFFFFFFFFFFFFFFFF0
FFFFFFFFFFFFFFFFFFFFF0
FFFFFFFFFFFFFFFFFFFFF0
FFFFFF800000001FFFFFF0
FFFFFF800000001FFFFFF0
FFFFFF800000001FFFFFF0
FFFFFF800000001FFFFFF0
FFFFFF800000001FFFFFF0
FFFFFF800000001FFFFFF0
FFFFFF800000001FFFFFF0
FFFFFF800000001FFFFFF0
FFFFFF800000001FFFFFF0
FFFFFF800000001FFFFFF0
FFFFFF800000001FFFFFF0
FFFFFF800000001FFFFFF0
FFFFFF800000001FFFFFF0
FFFFFF800000001FFFFFF0
FFFFFF800000001FFFFFF0
FFFFFF800000001FFFFFF0
FFFFFF800000001FFFFFF0
FFFFFF800000001FFFFFF0
FFFFFF800000001FFFFFF0
FFFFFF800000001FFFFFF0
FFFFFF800000001FFFFFF0
FFFFFF800000001FFFFFF0
FFFFFF800000001FFFFFF0
FFFFFF800000001FFFFFF0
FFFFFF800000001FFFFFF0
FFFFFF800000001FFFFFF0
FFFFFF800000001FFFFFF0
FFFFFF800000001FFFFFF0
FFFFFF800000001FFFFFF0
FFFFFF800000001FFFFFF0
FFFFFF800000001FFFFFF0
FFFFFF800000001FFFFFF0
FFFFFF800000001FFFFFF0
FFFFFF800000001FFFFFF0
FFFFFF800000001FFFFFF0
FFFFFF800000001FFFFFF0
FFFFFF800000001FFFFFF0
FFFFFF800000001FFFFFF0
FFFFFF800000001FFFFFF0
FFFFFFFFFFFFFFFFFFFFF0
FFFFFFFFFFFFFFFFFFFFF0
FFFFFFFFFFFFFFFFFFFFF0
FFFFFFFFFFFFFFFFFFFFF0
FFFFFFFFFFFFFFFFFFFFF0
FFFFFFFFFFFFFFFFFFFFF0
FFFFFFFFFFFFFFFFFFFFF0
FFFFFFFFFFFFFFFFFFFFF0
FFFFFFFFFFFFFFFFFFFFF0
FFFFFFFFFFFFFFFFFFFFF0
FFFFFFFFFFFFFFFFFFFFF0
7FFFFFFFFFFFFFFFFFFFF0
3FFFFFFFFFFFFFFFFFFFF0
1FFFFFFFFFFFFFFFFFFFF0
0FFFFFFFFFFFFFFFFFFFF0
07FFFFFFFFFFFFFFFFFFF0
03FFFFFFFFFFFFFFFFFFF0
01FFFFFFFFFFFFFFFFFFF0
00FFFFFFFFFFFFFFFFFFF0
007FFFFFFFFFFFFFFFFFF0
003FFFFFFFFFFFFFFFFFF0
001FFFFFFFFFFFFFFFFFF0
000FFFFFFFFFFFFFFFFFF0
0007FFFFFFFFFFFFFFFFF0
0003FFFFFFFFFFFFFFFFF0
000000000000001FFFFFF0
000000000000001FFFFFF0
000000000000001FFFFFF0
000000000000001FFFFFF0
000000000000001FFFFFF0
000000000000001FFFFFF0
000000000000001FFFFFF0
000000000000001FFFFFF0
000000000000001FFFFFF0
000000000000001FFFFFF0
000000000000001FFFFFF0
000000000000001FFFFFF0
000000000000001FFFFFF0
000000000000001FFFFFF0
000000000000001FFFFFF0
000000000000001FFFFFF0
000000000000001FFFFFF0
000000000000001FFFFFF0
000000000000001FFFFFF0
000000000000001FFFFFF0
000000000000001FFFFFF0
000000000000001FFFFFF0
FFFFFF800000001FFFFFF0
FFFFFF800000001FFFFFF0
FFFFFF800000001FFFFFF0
FFFFFF800000001FFFFFF0
FFFFFF800000001FFFFFF0
FFFFFF800000001FFFFFF0
FFFFFF800000001FFFFFF0
FFFFFF800000001FFFFFF0
FFFFFF800000001FFFFFF0
FFFFFF800000001FFFFFF0
FFFFFF800000001FFFFFF0
FFFFFF800000001FFFFFF0
FFFFFF800000001FFFFFF0
FFFFFF800000001FFFFFF0
FFFFFF800000001FFFFFF0
FFFFFF800000001FFFFFF0
FFFFFF800000001FFFFFF0
FFFFFF800000001FFFFFF0
FFFFFF800000001FFFFFF0
FFFFFF800000001FFFFFF0
FFFFFFFFFFFFFFFFFFFFF0
FFFFFFFFFFFFFFFFFFFFF0
FFFFFFFFFFFFFFFFFFFFF0
FFFFFFFFFFFFFFFFFFFFF0
FFFFFFFFFFFFFFFFFFFFF0
FFFFFFFFFFFFFFFFFFFFF0
FFFFFFFFFFFFFFFFFFFFF0
FFFFFFFFFFFFFFFFFFFFF0
FFFFFFFFFFFFFFFFFFFFE0
FFFFFFFFFFFFFFFFFFFFC0
7FFFFFFFFFFFFFFFFFFF80
3FFFFFFFFFFFFFFFFFFF00
1FFFFFFFFFFFFFFFFFFE00
0FFFFFFFFFFFFFFFFFFC00
07FFFFFFFFFFFFFFFFF800
03FFFFFFFFFFFFFFFFF000
01FFFFFFFFFFFFFFFFE000
00FFFFFFFFFFFFFFFFC000
007FFFFFFFFFFFFFFF8000
003FFFFFFFFFFFFFFF0000
001FFFFFFFFFFFFFFE0000
000FFFFFFFFFFFFFFC0000
0007FFFFFFFFFFFFF00000
0003FFFFFFFFFFFFE00000
0001FFFFFFFFFFFFC00000
ENDCHAR
STARTCHAR 003A
ENCODING 58
SWIDTH 261 0
DWIDTH 47 0
BBX 25 80 11 -24
BITMAP
FFFFFF80
FFFFFF80
FFFFFF80
FFFFFF80
FFFFFF80
FFFFFF80
FFFFFF80
FFFFFF80
FFFFFF80
FFFFFF80
FFFFFF80
FFFFFF80
FFFFFF80
FFFFFF80
FFFFFF80
FFFFFF80
FFFFFF80
FFFFFF80
FFFFFF80
FFFFFF80
FFFFFF80
FFFFFF80
FFFFFF80
FFFFFF80
FFFFFF80
00000000
00000000
00000000
00000000
00000000
00000000
00000000
00000000
00000000
00000000
00000000
00000000
00000000
00000000
00000000
00000000
00000000
00000000
00000000
00000000
00000000
00000000
00000000
00000000
00000000
00000000
00000000
00000000
00000000
00000000
FFFFFF80
FFFFFF80
FFFFFF80
FFFFFF80
FFFFFF80
FFFFFF80
FFFFFF80
FFFFFF80
FFFFFF80
FFFFFF80
FFFFFF80
FFFFFF80
FFFFFF80
FFFFFF80
FFFFFF80
FFFFFF80
FFFFFF80
FFFFFF80
FFFFFF80
FFFFFF80
FFFFFF80
FFFFFF80
FFFFFF80
FFFFFF80
FFFFFF80
ENDCHAR
STARTCHAR 003B
ENCODING 59
SWIDTH 261 0
DWIDTH 47 0
BBX 25 98 11 -42
BITMAP
FFFFFF80
FFFFFF80
FFFFFF80
FFFFFF80
FFFFFF80
FFFFFF80
FFFFFF80
FFFFFF80
FFFFFF80
FFFFFF80
FFFFFF80
FFFFFF80
FFFFFF80
FFFFFF80
FFFFFF80
FFFFFF80
FFFFFF80
FFFFFF80
FFFFFF80
FFFFFF80
FFFFFF80
FFFFFF80
FFFFFF80
FFFFFF80
FFFFFF80
00000000
00000000
00000000
00000000
00000000
00000000
00000000
00000000
00000000
00000000
00000000
00000000
00000000
00000000
00000000
00000000
00000000
00000000
00000000
00000000
00000000
00000000
00000000
00000000
00000000
00000000
00000000
00000000
00000000
00000000
FFFFFF80
FFFFFF80
FFFFFF80
FFFFFF80
FFFFFF80
FFFFFF80
FFFFFF80
FFFFFF80
FFFFFF80
FFFFFF80
FFFFFF80
FFFFFF80
FFFFFF80
FFFFFF80
FFFFFF80
FFFFFF80
FFFFFF80
FFFFFF80
FFFFFF80
FFFFFF80
FFFFFF80
FFFFFF80
FFFFFF80
FFFFFF80
FFFFFF80
000FFF00
000FFF00
000FFF00
000FFF00
000FFF00
000FFE00
000FFE00
000FFE00
001FFC00
001FFC00
001FF800
003FF800
003FF000
003FE000
001FC000
000F8000
00070000
00020000
ENDCHAR
STARTCHAR 003C
ENCODING 60
SWIDTH 1316 0
DWIDTH 237 0
BBX 224 156 6 -24
BITMAP
00000000000000000000000000000000000000000000000007FFFFFF
00000000000000000000000000000000000000000000000007FFFFFF
0000000000000000000000000000000000000000000000000FFFFFFF
0000000000000000000000000000000000000000000000001FFFFFFF
0000000000000000000000000000000000000000000000001FFFFFFF
0000000000000000000000000000000000000000000000003FFFFFFF
0000000000000000000000000000000000000000000000003FFFFFFF
0000000000000000000000000000000000000000000000007FFFFFFF
000000000000000000000000000000000000000000000000FFFFFFFF
000000000000000000000000000000000000000000000001FFFFFFFF
00000000000000000000000000000000000000000000000FFFF003FF
0000000000000000000000000000000000000000000000FFFFF003FF
0000000000000000000000000000000000000000000007FFFFF003FF
000000000000000000000000000000000000000000007FFFFFF003FF
00000000000000000000000000000000000000000003FFFFFFF003FF
0000000000000000000000000000000000000000003FFFFFFFF003FF
000000000000000000000000000000000000000001FFFFFFFFF003FF
00000000000000000000000000000000000000001FFFFFFFFFF003FF
0000000000000000000000000000000000000000FFFFFFFFFFF003FF
000000000000000000000000000000000000000FFFFFFFFFFFF003FF
000000000000000000000000000000000000007FFFFFFFFFFFF003FF
00000000000000000000000000000000000003FFFFFFFFFFFFF003FF
0000000000000000000000000000000000003FFFFFFFFFFFFFF003FF
000000000000000000000000000000000001FFFFFFFFFFFFFFF003FF
00000000000000000000000000000000001FFFFFFFFFFFFFFFF003FF
0000000000000000000000000000000000FFFFFFFFFFFFFFFFF003FF
000000000000000000000000000000000FFFFFFFFFFFFFFFFFF003FF
000000000000000000000000000000007FFFFFFFFFFFFFFFFFF003FF
00000000000000000000000000000007FFFFFFFFFFFFFFFFFFF003FF
0000000000000000000000000000003FFFFFFFFFFFFFFFFFFFF003FF
000000000000000000000000000003FFFFFFFFFFFFFFFFFFFFF003FF
00000000000000000000000000001FFFFFFFFFFFFFFFFFFFFFF003FF
0000000000000000000000000001FFFFFFFFFFFFFFFFFFFFFFF003FF
000000000000000000000000000FFFFFFFFFFFFFFFFFFFFFFFF003FF
00000000000000000000000000FFFFFFFFFFFFFFFFFFFFFFFFF003FF
00000000000000000000000007FFFFFFFFFFFFFFFFFFFFFFFFF003FF
0000000000000000000000007FFFFFFFFFFFFFFFFFFFFFFFFFF003FF
000000000000000000000003FFFFFFFFFFFFFFFFFFFFFFFFFFF003FF
00000000000000000000003FFFFFFFFFFFFFFFFFFFFFFFFFFFF003FF
0000000000000000000001FFFFFFFFFFFFFFFFFFFFFFFFFFFFF003FF
000000000000000000001FFFFFFFFFFFFFFFFFFFFFFFFFFFFFF003FF
00000000000000000000FFFFFFFFFFFFFFFFFFFFFFFFFFFFFFF003FF
0000000000000000000FFFFFFFFFFFFFFFFFFFFFFFFFFFFFFFF003FF
0000000000000000007FFFFFFFFFFFFFFFFFFFFFFFFFFFFFFFF003FF
000000000000000007FFFFFFFFFFFFFFFFFFFFFFFFFFFFFFFFF003FF
00000000000000003FFFFFFFFFFFFFFFFFFFFFFFFFFFFFFFFFF003FF
0000000000000003FFFFFFFFFFFFFFFFFFFFFFFFFFFFFFFFFFF003FF
000000000000001FFFFFFFFFFFFFFFFFFFFFFFFFFFFFFFFFFFF003FF
00000000000001FFFFFFFFFFFFFFFFFFFFFFFFFFFFFFFFFFFFF003FF
0000000000000FFFFFFFFFFFFFFFFFFFFFFFFFFFFFFFFFFFFFF003FF
0000000000007FFFFFFFFFFFFFFFFFFFFFFFFFFFFFFFFFFFFFF003FF
000000000007FFFFFFFFFFFFFFFFFFFFFFFFFFFFFFFFFFFFFFF003FF
00000000003FFFFFFFFFFFFFFFFFFFFFFFFFFFFFFFFFFFFFFFF003FF
FFFFFFFFFFFFFFFFFFFFFFFFFFFFFFFFFFFFFFFFFFFFFFFFFFF003FF
FFFFFFFFFFFFFFFFFFFFFFFFFFFFFFFFFFFFFFFFFFFFFFFFFFF003FF
FFFFFFFFFFFFFFFFFFFFFFFFFFFFFFFFFFFFFFFFFFFFFFFFFFF003FF
FFFFFFFFFFFFFFFFFFFFFFFFFFFFFFFFFFFFFFFFFFFFFFFFFFF003FF
FFFFFFFFFFFFFFFFFFFFFFFFFFFFFFFFFFFFFFFFFFFFFFFFFFF003FF
FFFFFFFFFFFFFFFFFFFFFFFFFFFFFFFFFFFFFFFFFFFFFFFFFFF003FF
FFFFFFFFFFFFFFFFFFFFFFFFFFFFFFFFFFFFFFFFFFFFFFFFFFF003FF
FFFFFFFFFFFFFFFFFFFFFFFFFFFFFFFFFFFFFFFFFFFFFFFFFFF003FF
FFFFFFFFFFFFFFFFFFFFFFFFFFFFFFFFFFFFFFFFFFFFFFFFFFF003FF
FFFFFFFFFFFFFFFFFFFFFFFFFFFFFFFFFFFFFFFFFFFFFFFFFFF003FF
FFC0FFFFFFFFFFFFFFFFFFFFFFFFFFFFFFFFFFFFFFFFFFFFFFF003FF
FFC0FFFFFFFFFFFFFFFFFFFFFFFFFFFFFFFFFFFFFFFFFFFFFFF003FF
FFC0FFFFFFFFFFFFFFFFFFFFFFFFFFFFFFFFFFFFFFFFFFFFFFF003FF
FFC0FFFFFFFFFFFFFFFFFFFFFFFFFFFFFFFFFFFFFFFFFFFFFFF003FF
FFC0FFFFFFFFFFFFFFFFFFFFFFFFFFFFFFFFFFFFFFFFFFFFFFF003FF
FFC0FFFFFFFFFFFFFFFFFFFFFFFFFFFFFFFFFFFFFFFFFFFFFFF003FF
FFC0FFFFFFFFFFFFFFFFFFFFFFFFFFFFFFFFFFFFFFFFFFFFFFF003FF
FFC0FFFFFFFFFFFFFFFFFFFFFFFFFFFFFFFFFFFFFFFFFFFFFFF003FF
FFC0FFFFFFFFFFFFFFFFFFFFFFFFFFFFFFFFFFFFFFFFFFFFFFF003FF
FFC0FFFFFFFFFFFFFFFFFFFFFFFFFFFFFFFFFFFFFFFFFFFFFFF003FF
FFC0FFFFFFFFFFFFFFFFFFFFFFFFFFFFFFFFFFFFFFFFFFFFFFF003FF
FFC0FFFFFFFFFFFFFFFFFFFFFFFFFFFFFFFFFFFFFFFFFFFFFFF003FF
FFC0FFFFFFFFFFFFFFFFFFFFFFFFFFFFFFFFFFFFFFFFFFFFFFF003FF
FFC0FFFFFFFFFFFFFFFFFFFFFFFFFFFFFFFFFFFFFFFFFFFFFFF003FF
FFC0FFFFFFFFFFFFFFFFFFFFFFFFFFFFFFFFFFFFFFFFFFFFFFF003FF
FFC0FFFFFFFFFFFFFFFFFFFFFFFFFFFFFFFFFFFFFFFFFFFFFFF003FF
FFC0FFFFFFFFFFFFFFFFFFFFFFFFFFFFFFFFFFFFFFFFFFFFFFF003FF
FFC0FFFFFFFFFFFFFFFFFFFFFFFFFFFFFFFFFFFFFFFFFFFFFFF003FF
FFC0FFFFFFFFFFFFFFFFFFFFFFFFFFFFFFFFFFFFFFFFFFFFFFF003FF
FFC0FFFFFFFFFFFFFFFFFFFFFFFFFFFFFFFFFFFFFFFFFFFFFFF003FF
FFC0FFFFFFFFFFFFFFFFFFFFFFFFFFFFFFFFFFFFFFFFFFFFFFF003FF
FFC0FFFFFFFFFFFFFFFFFFFFFFFFFFFFFFFFFFFFFFFFFFFFFFF003FF
FFC0FFFFFFFFFFFFFFFFFFFFFFFFFFFFFFFFFFFFFFFFFFFFFFF003FF
FFC0FFFFFFFFFFFFFFFFFFFFFFFFFFFFFFFFFFFFFFFFFFFFFFF003FF
FFC0FFFFFFFFFFFFFFFFFFFFFFFFFFFFFFFFFFFFFFFFFFFFFFF003FF
FFC0FFFFFFFFFFFFFFFFFFFFFFFFFFFFFFFFFFFFFFFFFFFFFFF003FF
FFC0FFFFFFFFFFFFFFFFFFFFFFFFFFFFFFFFFFFFFFFFFFFFFFF003FF
FFC0FFFFFFFFFFFFFFFFFFFFFFFFFFFFFFFFFFFFFFFFFFFFFFF003FF
FFC0FFFFFFFFFFFFFFFFFFFFFFFFFFFFFFFFFFFFFFFFFFFFFFF003FF
FFC0FFFFFFFFFFFFFFFFFFFFFFFFFFFFFFFFFFFFFFFFFFFFFFF003FF
FFFFFFFFFFFFFFFFFFFFFFFFFFFFFFFFFFFFFFFFFFFFFFFFFFF003FF
FFFFFFFFFFFFFFFFFFFFFFFFFFFFFFFFFFFFFFFFFFFFFFFFFFF003FF
FFFFFFFFFFFFFFFFFFFFFFFFFFFFFFFFFFFFFFFFFFFFFFFFFFF003FF
FFFFFFFFFFFFFFFFFFFFFFFFFFFFFFFFFFFFFFFFFFFFFFFFFFF003FF
FFFFFFFFFFFFFFFFFFFFFFFFFFFFFFFFFFFFFFFFFFFFFFFFFFF003FF
FFFFFFFFFFFFFFFFFFFFFFFFFFFFFFFFFFFFFFFFFFFFFFFFFFF003FF
FFFFFFFFFFFFFFFFFFFFFFFFFFFFFFFFFFFFFFFFFFFFFFFFFFF003FF
FFFFFFFFFFFFFFFFFFFFFFFFFFFFFFFFFFFFFFFFFFFFFFFFFFF003FF
FFFFFFFFFFFFFFFFFFFFFFFFFFFFFFFFFFFFFFFFFFFFFFFFFFF003FF
FFFFFFFFFFFFFFFFFFFFFFFFFFFFFFFFFFFFFFFFFFFFFFFFFFF003FF
00000000007FFFFFFFFFFFFFFFFFFFFFFFFFFFFFFFFFFFFFFFF003FF
00000000007FFFFFFFFFFFFFFFFFFFFFFFFFFFFFFFFFFFFFFFF003FF
00000000003FFFFFFFFFFFFFFFFFFFFFFFFFFFFFFFFFFFFFFFF003FF
00000000003FFFFFFFFFFFFFFFFFFFFFFFFFFFFFFFFFFFFFFFF003FF
00000000003FFFFFFFFFFFFFFFFFFFFFFFFFFFFFFFFFFFFFFFF003FF
00000000003FFC7FFFFFFFFFFFFFFFFFFFFFFFFFFFFFFFFFFFF003FF
00000000001FFC0FFFFFFFFFFFFFFFFFFFFFFFFFFFFFFFFFFFF003FF
00000000001FFC01FFFFFFFFFFFFFFFFFFFFFFFFFFFFFFFFFFF003FF
00000000001FFC001FFFFFFFFFFFFFFFFFFFFFFFFFFFFFFFFFF003FF
00000000000FFE0003FFFFFFFFFFFFFFFFFFFFFFFFFFFFFFFFF003FF
00000000000FFE00003FFFFFFFFFFFFFFFFFFFFFFFFFFFFFFFF003FF
00000000000FFE000007FFFFFFFFFFFFFFFFFFFFFFFFFFFFFFF003FF
00000000000FFE000000FFFFFFFFFFFFFFFFFFFFFFFFFFFFFFF003FF
000000000007FF8000000FFFFFFFFFFFFFFFFFFFFFFFFFFFFFF003FF
000000000007FFF8000001FFFFFFFFFFFFFFFFFFFFFFFFFFFFF003FF
000000000007FFFF0000001FFFFFFFFFFFFFFFFFFFFFFFFFFFF003FF
000000000007FFFFF0000003FFFFFFFFFFFFFFFFFFFFFFFFFFF003FF
000000000003FFFFFE0000007FFFFFFFFFFFFFFFFFFFFFFFFFF003FF
000000000003FFFFFFE0000007FFFFFFFFFFFFFFFFFFFFFFFFF003FF
000000000003FFFFFFFE000003FFFFFFFFFFFFFFFFFFFFFFFFF003FF
000000000001FFFFFFFFC00007FFFFFFFFFFFFFFFFFFFFFFFFF003FF
000000000001FFFFFFFFFC000FFFFFFFFFFFFFFFFFFFFFFFFFF003FF
0000000000003FFFFFFFFF801FFF3FFFFFFFFFFFFFFFFFFFFFF003FF
00000000000003FFFFFFFFF83FFE03FFFFFFFFFFFFFFFFFFFFF003FF
000000000000007FFFFFFFFF7FFC003FFFFFFFFFFFFFFFFFFFF003FF
0000000000000007FFFFFFFFFFF80007FFFFFFFFFFFFFFFFFFF003FF
0000000000000000FFFFFFFFFFF000007FFFFFFFFFFFFFFFFFF003FF
00000000000000000FFFFFFFFFE0000007FFFFFFFFFFFFFFFFF003FF
000000000000000001FFFFFFFFE0000000FFFFFFFFFFFFFFFFF003FF
0000000000000000001FFFFFFFC00000000FFFFFFFFFFFFFFFF003FF
00000000000000000003FFFFFF8000000000FFFFFFFFFFFFFFF003FF
000000000000000000003FFFFF00000000001FFFFFFFFFFFFFF003FF
0000000000000000000007FFFE000000000001FFFFFFFFFFFFF003FF
00000000000000000000007FFC0000000000001FFFFFFFFFFFF003FF
00000000000000000000000FF800000000000003FFFFFFFFFFF003FF
000000000000000000000000F8000000000000003FFFFFFFFFF003FF
000000000000000000000000100000000000000003FFFFFFFFF003FF
0000000000000000000000000000000000000000007FFFFFFFF003FF
00000000000000000000000000000000000000000007FFFFFFF003FF
000000000000000000000000000000000000000000007FFFFFF003FF
000000000000000000000000000000000000000000000FFFFFF003FF
0000000000000000000000000000000000000000000000FFFFF003FF
00000000000000000000000000000000000000000000000FFFF003FF
000000000000000000000000000000000000000000000001FFFFFFFF
000000000000000000000000000000000000000000000000FFFFFFFF
0000000000000000000000000000000000000000000000007FFFFFFF
0000000000000000000000000000000000000000000000003FFFFFFF
0000000000000000000000000000000000000000000000003FFFFFFF
0000000000000000000000000000000000000000000000001FFFFFFF
0000000000000000000000000000000000000000000000001FFFFFFF
0000000000000000000000000000000000000000000000000FFFFFFF
00000000000000000000000000000000000000000000000007FFFFFF
00000000000000000000000000000000000000000000000007FFFFFF
ENDCHAR
STARTCHAR 003D
ENCODING 61
SWIDTH 711 0
DWIDTH 128 0
BBX 118 67 5 1
BITMAP
FFFFFFFFFFFFFFFFFFFFFFFFFFFFFC
FFFFFFFFFFFFFFFFFFFFFFFFFFFFFC
FFFFFFFFFFFFFFFFFFFFFFFFFFFFFC
FFFFFFFFFFFFFFFFFFFFFFFFFFFFFC
FFFFFFFFFFFFFFFFFFFFFFFFFFFFFC
FFFFFFFFFFFFFFFFFFFFFFFFFFFFFC
FFFFFFFFFFFFFFFFFFFFFFFFFFFFFC
FFFFFFFFFFFFFFFFFFFFFFFFFFFFFC
FFFFFFFFFFFFFFFFFFFFFFFFFFFFFC
FFFFFFFFFFFFFFFFFFFFFFFFFFFFFC
FFFFFFFFFFFFFFFFFFFFFFFFFFFFFC
FFFFFFFFFFFFFFFFFFFFFFFFFFFFFC
FFFFFFFFFFFFFFFFFFFFFFFFFFFFFC
FFFFFFFFFFFFFFFFFFFFFFFFFFFFFC
FFFFFFFFFFFFFFFFFFFFFFFFFFFFFC
FFFFFFFFFFFFFFFFFFFFFFFFFFFFFC
FFFFFFFFFFFFFFFFFFFFFFFFFFFFFC
FFFFFFFFFFFFFFFFFFFFFFFFFFFFFC
FFFFFFFFFFFFFFFFFFFFFFFFFFFFFC
FFFFFFFFFFFFFFFFFFFFFFFFFFFFFC
FFFFFFFFFFFFFFFFFFFFFFFFFFFFFC
FFFFFFFFFFFFFFFFFFFFFFFFFFFFFC
FFFFFFFFFFFFFFFFFFFFFFFFFFFFFC
FFFFFFFFFFFFFFFFFFFFFFFFFFFFFC
FFFFFFFFFFFFFFFFFFFFFFFFFFFFFC
000000000000000000000000000000
000000000000000000000000000000
000000000000000000000000000000
000000000000000000000000000000
000000000000000000000000000000
000000000000000000000000000000
000000000000000000000000000000
000000000000000000000000000000
000000000000000000000000000000
000000000000000000000000000000
000000000000000000000000000000
000000000000000000000000000000
000000000000000000000000000000
000000000000000000000000000000
000000000000000000000000000000
000000000000000000000000000000
000000000000000000000000000000
FFFFFFFFFFFFFFFFFFFFFFFFFFFFFC
FFFFFFFFFFFFFFFFFFFFFFFFFFFFFC
FFFFFFFFFFFFFFFFFFFFFFFFFFFFFC
FFFFFFFFFFFFFFFFFFFFFFFFFFFFFC
FFFFFFFFFFFFFFFFFFFFFFFFFFFFFC
FFFFFFFFFFFFFFFFFFFFFFFFFFFFFC
FFFFFFFFFFFFFFFFFFFFFFFFFFFFFC
FFFFFFFFFFFFFFFFFFFFFFFFFFFFFC
FFFFFFFFFFFFFFFFFFFFFFFFFFFFFC
FFFFFFFFFFFFFFFFFFFFFFFFFFFFFC
FFFFFFFFFFFFFFFFFFFFFFFFFFFFFC
FFFFFFFFFFFFFFFFFFFFFFFFFFFFFC
FFFFFFFFFFFFFFFFFFFFFFFFFFFFFC
FFFFFFFFFFFFFFFFFFFFFFFFFFFFFC
FFFFFFFFFFFFFFFFFFFFFFFFFFFFFC
FFFFFFFFFFFFFFFFFFFFFFFFFFFFFC
FFFFFFFFFFFFFFFFFFFFFFFFFFFFFC
FFFFFFFFFFFFFFFFFFFFFFFFFFFFFC
FFFFFFFFFFFFFFFFFFFFFFFFFFFFFC
FFFFFFFFFFFFFFFFFFFFFFFFFFFFFC
FFFFFFFFFFFFFFFFFFFFFFFFFFFFFC
FFFFFFFFFFFFFFFFFFFFFFFFFFFFFC
FFFFFFFFFFFFFFFFFFFFFFFFFFFFFC
FFFFFFFFFFFFFFFFFFFFFFFFFFFFFC
FFFFFFFFFFFFFFFFFFFFFFFFFFFFFC
ENDCHAR
STARTCHAR 003E
ENCODING 62
SWIDTH 1316 0
DWIDTH 237 0
BBX 224 156 6 -24
BITMAP
FFFFFFE0000000000000000000000000000000000000000000000000
FFFFFFE0000000000000000000000000000000000000000000000000
FFFFFFF0000000000000000000000000000000000000000000000000
FFFFFFF8000000000000000000000000000000000000000000000000
FFFFFFF8000000000000000000000000000000000000000000000000
FFFFFFFC000000000000000000000000000000000000000000000000
FFFFFFFC000000000000000000000000000000000000000000000000
FFFFFFFE000000000000000000000000000000000000000000000000
FFFFFFFF000000000000000000000000000000000000000000000000
FFFFFFFF800000000000000000000000000000000000000000000000
FFC00FFFF00000000000000000000000000000000000000000000000
FFC00FFFFF0000000000000000000000000000000000000000000000
FFC00FFFFFE000000000000000000000000000000000000000000000
FFC00FFFFFFE00000000000000000000000000000000000000000000
FFC00FFFFFFFC0000000000000000000000000000000000000000000
FFC00FFFFFFFFC000000000000000000000000000000000000000000
FFC00FFFFFFFFF800000000000000000000000000000000000000000
FFC00FFFFFFFFFF80000000000000000000000000000000000000000
FFC00FFFFFFFFFFF0000000000000000000000000000000000000000
FFC00FFFFFFFFFFFF000000000000000000000000000000000000000
FFC00FFFFFFFFFFFFE00000000000000000000000000000000000000
FFC00FFFFFFFFFFFFFE0000000000000000000000000000000000000
FFC00FFFFFFFFFFFFFFC000000000000000000000000000000000000
FFC00FFFFFFFFFFFFFFFC00000000000000000000000000000000000
FFC00FFFFFFFFFFFFFFFF80000000000000000000000000000000000
FFC00FFFFFFFFFFFFFFFFF0000000000000000000000000000000000
FFC00FFFFFFFFFFFFFFFFFF000000000000000000000000000000000
FFC00FFFFFFFFFFFFFFFFFFE00000000000000000000000000000000
FFC00FFFFFFFFFFFFFFFFFFFE0000000000000000000000000000000
FFC00FFFFFFFFFFFFFFFFFFFFC000000000000000000000000000000
FFC00FFFFFFFFFFFFFFFFFFFFFC00000000000000000000000000000
FFC00FFFFFFFFFFFFFFFFFFFFFF80000000000000000000000000000
FFC00FFFFFFFFFFFFFFFFFFFFFFF8000000000000000000000000000
FFC00FFFFFFFFFFFFFFFFFFFFFFFF000000000000000000000000000
FFC00FFFFFFFFFFFFFFFFFFFFFFFFF00000000000000000000000000
FFC00FFFFFFFFFFFFFFFFFFFFFFFFFE0000000000000000000000000
FFC00FFFFFFFFFFFFFFFFFFFFFFFFFFE000000000000000000000000
FFC00FFFFFFFFFFFFFFFFFFFFFFFFFFFC00000000000000000000000
FFC00FFFFFFFFFFFFFFFFFFFFFFFFFFFFC0000000000000000000000
FFC00FFFFFFFFFFFFFFFFFFFFFFFFFFFFF8000000000000000000000
FFC00FFFFFFFFFFFFFFFFFFFFFFFFFFFFFF800000000000000000000
FFC00FFFFFFFFFFFFFFFFFFFFFFFFFFFFFFF00000000000000000000
FFC00FFFFFFFFFFFFFFFFFFFFFFFFFFFFFFFF0000000000000000000
FFC00FFFFFFFFFFFFFFFFFFFFFFFFFFFFFFFFE000000000000000000
FFC00FFFFFFFFFFFFFFFFFFFFFFFFFFFFFFFFFE00000000000000000
FFC00FFFFFFFFFFFFFFFFFFFFFFFFFFFFFFFFFFC0000000000000000
FFC00FFFFFFFFFFFFFFFFFFFFFFFFFFFFFFFFFFFC000000000000000
FFC00FFFFFFFFFFFFFFFFFFFFFFFFFFFFFFFFFFFF800000000000000
FFC00FFFFFFFFFFFFFFFFFFFFFFFFFFFFFFFFFFFFF80000000000000
FFC00FFFFFFFFFFFFFFFFFFFFFFFFFFFFFFFFFFFFFF0000000000000
FFC00FFFFFFFFFFFFFFFFFFFFFFFFFFFFFFFFFFFFFFF000000000000
FFC00FFFFFFFFFFFFFFFFFFFFFFFFFFFFFFFFFFFFFFFE00000000000
FFC00FFFFFFFFFFFFFFFFFFFFFFFFFFFFFFFFFFFFFFFFE0000000000
FFC00FFFFFFFFFFFFFFFFFFFFFFFFFFFFFFFFFFFFFFFFFFFFFFFFFFF
FFC00FFFFFFFFFFFFFFFFFFFFFFFFFFFFFFFFFFFFFFFFFFFFFFFFFFF
FFC00FFFFFFFFFFFFFFFFFFFFFFFFFFFFFFFFFFFFFFFFFFFFFFFFFFF
FFC00FFFFFFFFFFFFFFFFFFFFFFFFFFFFFFFFFFFFFFFFFFFFFFFFFFF
FFC00FFFFFFFFFFFFFFFFFFFFFFFFFFFFFFFFFFFFFFFFFFFFFFFFFFF
FFC00FFFFFFFFFFFFFFFFFFFFFFFFFFFFFFFFFFFFFFFFFFFFFFFFFFF
FFC00FFFFFFFFFFFFFFFFFFFFFFFFFFFFFFFFFFFFFFFFFFFFFFFFFFF
FFC00FFFFFFFFFFFFFFFFFFFFFFFFFFFFFFFFFFFFFFFFFFFFFFFFFFF
FFC00FFFFFFFFFFFFFFFFFFFFFFFFFFFFFFFFFFFFFFFFFFFFFFFFFFF
FFC00FFFFFFFFFFFFFFFFFFFFFFFFFFFFFFFFFFFFFFFFFFFFFFFFFFF
FFC00FFFFFFFFFFFFFFFFFFFFFFFFFFFFFFFFFFFFFFFFFFFFFFF03FF
FFC00FFFFFFFFFFFFFFFFFFFFFFFFFFFFFFFFFFFFFFFFFFFFFFF03FF
FFC00FFFFFFFFFFFFFFFFFFFFFFFFFFFFFFFFFFFFFFFFFFFFFFF03FF
FFC00FFFFFFFFFFFFFFFFFFFFFFFFFFFFFFFFFFFFFFFFFFFFFFF03FF
FFC00FFFFFFFFFFFFFFFFFFFFFFFFFFFFFFFFFFFFFFFFFFFFFFF03FF
FFC00FFFFFFFFFFFFFFFFFFFFFFFFFFFFFFFFFFFFFFFFFFFFFFF03FF
FFC00FFFFFFFFFFFFFFFFFFFFFFFFFFFFFFFFFFFFFFFFFFFFFFF03FF
FFC00FFFFFFFFFFFFFFFFFFFFFFFFFFFFFFFFFFFFFFFFFFFFFFF03FF
FFC00FFFFFFFFFFFFFFFFFFFFFFFFFFFFFFFFFFFFFFFFFFFFFFF03FF
FFC00FFFFFFFFFFFFFFFFFFFFFFFFFFFFFFFFFFFFFFFFFFFFFFF03FF
FFC00FFFFFFFFFFFFFFFFFFFFFFFFFFFFFFFFFFFFFFFFFFFFFFF03FF
FFC00FFFFFFFFFFFFFFFFFFFFFFFFFFFFFFFFFFFFFFFFFFFFFFF03FF
FFC00FFFFFFFFFFFFFFFFFFFFFFFFFFFFFFFFFFFFFFFFFFFFFFF03FF
FFC00FFFFFFFFFFFFFFFFFFFFFFFFFFFFFFFFFFFFFFFFFFFFFFF03FF
FFC00FFFFFFFFFFFFFFFFFFFFFFFFFFFFFFFFFFFFFFFFFFFFFFF03FF
FFC00FFFFFFFFFFFFFFFFFFFFFFFFFFFFFFFFFFFFFFFFFFFFFFF03FF
FFC00FFFFFFFFFFFFFFFFFFFFFFFFFFFFFFFFFFFFFFFFFFFFFFF03FF
FFC00FFFFFFFFFFFFFFFFFFFFFFFFFFFFFFFFFFFFFFFFFFFFFFF03FF
FFC00FFFFFFFFFFFFFFFFFFFFFFFFFFFFFFFFFFFFFFFFFFFFFFF03FF
FFC00FFFFFFFFFFFFFFFFFFFFFFFFFFFFFFFFFFFFFFFFFFFFFFF03FF
FFC00FFFFFFFFFFFFFFFFFFFFFFFFFFFFFFFFFFFFFFFFFFFFFFF03FF
FFC00FFFFFFFFFFFFFFFFFFFFFFFFFFFFFFFFFFFFFFFFFFFFFFF03FF
FFC00FFFFFFFFFFFFFFFFFFFFFFFFFFFFFFFFFFFFFFFFFFFFFFF03FF
FFC00FFFFFFFFFFFFFFFFFFFFFFFFFFFFFFFFFFFFFFFFFFFFFFF03FF
FFC00FFFFFFFFFFFFFFFFFFFFFFFFFFFFFFFFFFFFFFFFFFFFFFF03FF
FFC00FFFFFFFFFFFFFFFFFFFFFFFFFFFFFFFFFFFFFFFFFFFFFFF03FF
FFC00FFFFFFFFFFFFFFFFFFFFFFFFFFFFFFFFFFFFFFFFFFFFFFF03FF
FFC00FFFFFFFFFFFFFFFFFFFFFFFFFFFFFFFFFFFFFFFFFFFFFFF03FF
FFC00FFFFFFFFFFFFFFFFFFFFFFFFFFFFFFFFFFFFFFFFFFFFFFF03FF
FFC00FFFFFFFFFFFFFFFFFFFFFFFFFFFFFFFFFFFFFFFFFFFFFFF03FF
FFC00FFFFFFFFFFFFFFFFFFFFFFFFFFFFFFFFFFFFFFFFFFFFFFFFFFF
FFC00FFFFFFFFFFFFFFFFFFFFFFFFFFFFFFFFFFFFFFFFFFFFFFFFFFF
FFC00FFFFFFFFFFFFFFFFFFFFFFFFFFFFFFFFFFFFFFFFFFFFFFFFFFF
FFC00FFFFFFFFFFFFFFFFFFFFFFFFFFFFFFFFFFFFFFFFFFFFFFFFFFF
FFC00FFFFFFFFFFFFFFFFFFFFFFFFFFFFFFFFFFFFFFFFFFFFFFFFFFF
FFC00FFFFFFFFFFFFFFFFFFFFFFFFFFFFFFFFFFFFFFFFFFFFFFFFFFF
FFC00FFFFFFFFFFFFFFFFFFFFFFFFFFFFFFFFFFFFFFFFFFFFFFFFFFF
FFC00FFFFFFFFFFFFFFFFFFFFFFFFFFFFFFFFFFFFFFFFFFFFFFFFFFF
FFC00FFFFFFFFFFFFFFFFFFFFFFFFFFFFFFFFFFFFFFFFFFFFFFFFFFF
FFC00FFFFFFFFFFFFFFFFFFFFFFFFFFFFFFFFFFFFFFFFFFFFFFFFFFF
FFC00FFFFFFFFFFFFFFFFFFFFFFFFFFFFFFFFFFFFFFFFE0000000000
FFC00FFFFFFFFFFFFFFFFFFFFFFFFFFFFFFFFFFFFFFFFE0000000000
FFC00FFFFFFFFFFFFFFFFFFFFFFFFFFFFFFFFFFFFFFFFC0000000000
FFC00FFFFFFFFFFFFFFFFFFFFFFFFFFFFFFFFFFFFFFFFC0000000000
FFC00FFFFFFFFFFFFFFFFFFFFFFFFFFFFFFFFFFFFFFFFC0000000000
FFC00FFFFFFFFFFFFFFFFFFFFFFFFFFFFFFFFFFFFE3FFC0000000000
FFC00FFFFFFFFFFFFFFFFFFFFFFFFFFFFFFFFFFFF03FF80000000000
FFC00FFFFFFFFFFFFFFFFFFFFFFFFFFFFFFFFFFF803FF80000000000
FFC00FFFFFFFFFFFFFFFFFFFFFFFFFFFFFFFFFF8003FF80000000000
FFC00FFFFFFFFFFFFFFFFFFFFFFFFFFFFFFFFFC0003FF00000000000
FFC00FFFFFFFFFFFFFFFFFFFFFFFFFFFFFFFFC00007FF00000000000
FFC00FFFFFFFFFFFFFFFFFFFFFFFFFFFFFFFE000007FF00000000000
FFC00FFFFFFFFFFFFFFFFFFFFFFFFFFFFFFF0000007FF00000000000
FFC00FFFFFFFFFFFFFFFFFFFFFFFFFFFFFF0000001FFE00000000000
FFC00FFFFFFFFFFFFFFFFFFFFFFFFFFFFF8000001FFFE00000000000
FFC00FFFFFFFFFFFFFFFFFFFFFFFFFFFF8000000FFFFE00000000000
FFC00FFFFFFFFFFFFFFFFFFFFFFFFFFFC000000FFFFFE00000000000
FFC00FFFFFFFFFFFFFFFFFFFFFFFFFFE0000007FFFFFC00000000000
FFC00FFFFFFFFFFFFFFFFFFFFFFFFFE0000007FFFFFFC00000000000
FFC00FFFFFFFFFFFFFFFFFFFFFFFFFC000007FFFFFFFC00000000000
FFC00FFFFFFFFFFFFFFFFFFFFFFFFFE00003FFFFFFFF800000000000
FFC00FFFFFFFFFFFFFFFFFFFFFFFFFF0003FFFFFFFFF800000000000
FFC00FFFFFFFFFFFFFFFFFFFFFFCFFF801FFFFFFFFFC000000000000
FFC00FFFFFFFFFFFFFFFFFFFFFC07FFC1FFFFFFFFFC0000000000000
FFC00FFFFFFFFFFFFFFFFFFFFC003FFEFFFFFFFFFE00000000000000
FFC00FFFFFFFFFFFFFFFFFFFE0001FFFFFFFFFFFE000000000000000
FFC00FFFFFFFFFFFFFFFFFFE00000FFFFFFFFFFF0000000000000000
FFC00FFFFFFFFFFFFFFFFFE000000FFFFFFFFFF00000000000000000
FFC00FFFFFFFFFFFFFFFFF00000007FFFFFFFF800000000000000000
FFC00FFFFFFFFFFFFFFFF000000003FFFFFFF8000000000000000000
FFC00FFFFFFFFFFFFFFF0000000001FFFFFFC0000000000000000000
FFC00FFFFFFFFFFFFFF80000000000FFFFFC00000000000000000000
FFC00FFFFFFFFFFFFF8000000000007FFFE000000000000000000000
FFC00FFFFFFFFFFFF80000000000003FFE0000000000000000000000
FFC00FFFFFFFFFFFC00000000000001FF00000000000000000000000
FFC00FFFFFFFFFFC000000000000001F000000000000000000000000
FFC00FFFFFFFFFC00000000000000008000000000000000000000000
FFC00FFFFFFFFE000000000000000000000000000000000000000000
FFC00FFFFFFFE0000000000000000000000000000000000000000000
FFC00FFFFFFE00000000000000000000000000000000000000000000
FFC00FFFFFF000000000000000000000000000000000000000000000
FFC00FFFFF0000000000000000000000000000000000000000000000
FFC00FFFF00000000000000000000000000000000000000000000000
FFFFFFFF800000000000000000000000000000000000000000000000
FFFFFFFF000000000000000000000000000000000000000000000000
FFFFFFFE000000000000000000000000000000000000000000000000
FFFFFFFC000000000000000000000000000000000000000000000000
FFFFFFFC000000000000000000000000000000000000000000000000
FFFFFFF8000000000000000000000000000000000000000000000000
FFFFFFF8000000000000000000000000000000000000000000000000
FFFFFFF0000000000000000000000000000000000000000000000000
FFFFFFE0000000000000000000000000000000000000000000000000
FFFFFFE0000000000000000000000000000000000000000000000000
ENDCHAR
STARTCHAR 003F
ENCODING 63
SWIDTH 533 0
DWIDTH 96 0
BBX 84 156 6 -24
BITMAP
00007FFFFFFFFFFFC00000
0000FFFFFFFFFFFFE00000
0001FFFFFFFFFFFFF00000
0003FFFFFFFFFFFFF80000
0007FFFFFFFFFFFFFC0000
000FFFFFFFFFFFFFFE0000
000FFFFFFFFFFFFFFF0000
001FFFFFFFFFFFFFFF8000
003FFFFFFFFFFFFFFFC000
007FFFFFFFFFFFFFFFE000
00FFFFFFFFFFFFFFFFF000
01FFFFFFFFFFFFFFFFF800
03FFFFFFFFFFFFFFFFFC00
07FFFFFFFFFFFFFFFFFE00
0FFFFFFFFFFFFFFFFFFF00
1FFFFFFFFFFFFFFFFFFF80
3FFFFFFFFFFFFFFFFFFFC0
7FFFFFFFFFFFFFFFFFFFE0
FFFFFFFFFFFFFFFFFFFFF0
FFFFFFFFFFFFFFFFFFFFF0
FFFFFFFFFFFFFFFFFFFFF0
FFFFFFFFFFFFFFFFFFFFF0
FFFFFFFFFFFFFFFFFFFFF0
FFFFFFFFFFFFFFFFFFFFF0
FFFFFFFFFFFFFFFFFFFFF0
FFFFFF800000001FFFFFF0
FFFFFF800000001FFFFFF0
FFFFFF800000001FFFFFF0
FFFFFF800000001FFFFFF0
FFFFFF800000001FFFFFF0
FFFFFF800000001FFFFFF0
FFFFFF800000001FFFFFF0
FFFFFF800000001FFFFFF0
FFFFFF800000001FFFFFF0
FFFFFF800000001FFFFFF0
FFFFFF800000001FFFFFF0
FFFFFF800000001FFFFFF0
FFFFFF800000001FFFFFF0
FFFFFF800000001FFFFFF0
FFFFFF800000001FFFFFF0
FFFFFF800000001FFFFFF0
FFFFFF800000001FFFFFF0
FFFFFF800000001FFFFFF0
FFFFFF800000001FFFFFF0
FFFFFF800000001FFFFFF0
FFFFFF800000001FFFFFF0
FFFFFF800000001FFFFFF0
FFFFFF800000001FFFFFF0
FFFFFF800000001FFFFFF0
FFFFFF800000001FFFFFF0
000000000000001FFFFFF0
000000000000001FFFFFF0
000000000000001FFFFFF0
000000000000001FFFFFF0
000000000000001FFFFFF0
000000000000001FFFFFF0
000000000000001FFFFFF0
000000000000001FFFFFF0
000000000000001FFFFFF0
000000000000001FFFFFF0
000000000000001FFFFFF0
000000000000001FFFFFF0
000000000000001FFFFFF0
000000000000001FFFFFF0
000000000000001FFFFFF0
000000000000001FFFFFF0
000000000000001FFFFFF0
000000000000001FFFFFF0
00000000000FFFFFFFFFF0
00000000001FFFFFFFFFF0
00000000003FFFFFFFFFF0
00000000007FFFFFFFFFF0
0000000000FFFFFFFFFFF0
0000000001FFFFFFFFFFF0
0000000003FFFFFFFFFFF0
0000000007FFFFFFFFFFF0
000000000FFFFFFFFFFFF0
000000000FFFFFFFFFFFF0
000000001FFFFFFFFFFFE0
000000003FFFFFFFFFFFC0
000000007FFFFFFFFFFF80
00000000FFFFFFFFFFFF00
00000001FFFFFFFFFFFE00
00000003FFFFFFFFFFFC00
00000007FFFFFFFFFFF800
00000007FFFFFFFFFFF000
00000007FFFFFFFFFFE000
00000007FFFFFFFFFFC000
00000007FFFFFFFFFF8000
00000007FFFFFFFFFF0000
00000007FFFFFFFFFE0000
00000007FFFFFFFFFC0000
00000007FFFFFFFFF80000
00000007FFFFFFFFF00000
00000007FFFFFC00000000
00000007FFFFFC00000000
00000007FFFFFC00000000
00000007FFFFFC00000000
00000007FFFFFC00000000
00000007FFFFFC00000000
00000007FFFFFC00000000
00000007FFFFFC00000000
00000007FFFFFC00000000
00000007FFFFFC00000000
00000007FFFFFC00000000
00000007FFFFFC00000000
00000007FFFFFC00000000
00000007FFFFFC00000000
00000007FFFFFC00000000
00000007FFFFFC00000000
00000007FFFFFC00000000
00000007FFFFFC00000000
00000007FFFFFC00000000
00000007FFFFFC00000000
00000007FFFFFC00000000
00000007FFFFFC00000000
00000007FFFFFC00000000
00000007FFFFFC00000000
00000007FFFFFC00000000
00000007FFFFFC00000000
00000007FFFFFC00000000
0000000000000000000000
0000000000000000000000
0000000000000000000000
0000000000000000000000
0000000000000000000000
0000000000000000000000
0000000000000000000000
0000000000000000000000
0000000000000000000000
0000000000000000000000
00000007FFFFFC00000000
00000007FFFFFC00000000
00000007FFFFFC00000000
00000007FFFFFC00000000
00000007FFFFFC00000000
00000007FFFFFC00000000
00000007FFFFFC00000000
00000007FFFFFC00000000
00000007FFFFFC00000000
00000007FFFFFC00000000
00000007FFFFFC00000000
00000007FFFFFC00000000
00000007FFFFFC00000000
00000007FFFFFC00000000
00000007FFFFFC00000000
00000007FFFFFC00000000
00000007FFFFFC00000000
00000007FFFFFC00000000
00000007FFFFFC00000000
00000007FFFFFC00000000
00000007FFFFFC00000000
00000007FFFFFC00000000
00000007FFFFFC00000000
00000007FFFFFC00000000
00000007FFFFFC00000000
ENDCHAR
STARTCHAR 0040
ENCODING 64
SWIDTH 1000 0
DWIDTH 180 0
BBX 146 140 17 -24
BITMAP
000000000000000000FFFF8000000000000000
00000000000000007FFFFFFF00000000000000
0000000000000007FFFFFFFFF0000000000000
000000000000003FFFFFFFFFFF000000000000
00000000000001FFFFFFFFFFFFE00000000000
0000000000000FFFFFFFFFFFFFF80000000000
0000000000003FFFFFFFFFFFFFFE0000000000
000000000000FFFFFFFFFFFFFFFF8000000000
000000000007FFFFFFFFFFFFFFFFE000000000
00000000000FFFFFFFC0003FFFFFF800000000
00000000003FFFFFF0000000FFFFFE00000000
0000000000FFFFFF800000000FFFFF00000000
0000000003FFFFFC0000000001FFFFC0000000
0000000007FFFFE000000000003FFFE0000000
000000001FFFFF8000000000000FFFF8000000
000000003FFFFE00000000000003FFFC000000
000000007FFFF800000000000000FFFE000000
00000001FFFFE0000000000000003FFF000000
00000003FFFFC0000000000000000FFF800000
00000007FFFF000000000000000007FFC00000
0000000FFFFC000000000000000001FFE00000
0000001FFFF8000000000000000000FFF00000
0000003FFFF00000000000000000007FF80000
0000007FFFC00000000000000000003FFC0000
000000FFFF800000000000000000001FFE0000
000001FFFF000000000000000000000FFE0000
000003FFFE0000000000000000000007FF0000
000007FFF80000000000000000000003FF8000
00000FFFF00000000000000000000001FF8000
00001FFFE00000000000000000000000FFC000
00003FFFC00000000000000000000000FFC000
00007FFF80000000001FFF00000000007FE000
00007FFF0000000001FFFFE0000000003FF000
0000FFFE0000000007FFFFF8000000003FF000
0001FFFC000000001FFFFFFE003FFFC01FF800
0003FFFC000000007FFFFFFF003FFF800FF800
0003FFF800000000FFFFFFFF803FFF800FF800
0007FFF000000003FFFFFFFFC07FFF8007FC00
000FFFE000000007FFFFC03FE07FFF0007FC00
000FFFC00000000FFFFE000FF0FFFF0003FE00
001FFFC00000001FFFFC0007F0FFFE0003FE00
001FFF800000007FFFF00003F8FFFE0003FE00
003FFF00000000FFFFE00001FDFFFE0001FF00
007FFF00000001FFFFC00001FDFFFC0001FF00
007FFE00000003FFFF800000FFFFFC0001FF00
00FFFC00000007FFFF000000FFFFF80000FF00
00FFFC0000000FFFFE0000007FFFF80000FF80
01FFF80000000FFFFC0000007FFFF80000FF80
01FFF80000001FFFF80000007FFFF00000FF80
01FFF00000003FFFF00000007FFFF000007F80
03FFF00000007FFFE00000007FFFE000007F80
03FFE00000007FFFE00000007FFFE000007F80
07FFE0000000FFFFC00000007FFFE000007F80
07FFC0000001FFFF800000007FFFC000007FC0
0FFFC0000003FFFF00000000FFFFC000007FC0
0FFF80000003FFFF00000000FFFF8000007FC0
0FFF80000007FFFE00000000FFFF8000007FC0
1FFF00000007FFFE00000000FFFF8000007FC0
1FFF0000000FFFFC00000000FFFF0000007FC0
1FFF0000001FFFF800000001FFFF0000007FC0
1FFE0000001FFFF800000001FFFE0000007FC0
3FFE0000003FFFF000000001FFFE0000007FC0
3FFE0000003FFFF000000003FFFE0000007FC0
3FFC0000007FFFE000000003FFFC0000007F80
3FFC0000007FFFE000000003FFFC0000007F80
7FFC0000007FFFC000000003FFF80000007F80
7FFC000000FFFFC000000007FFF80000007F80
7FF8000000FFFF8000000007FFF80000007F80
7FF8000001FFFF8000000007FFF00000007F80
7FF8000001FFFF000000000FFFF0000000FF80
7FF8000001FFFF000000000FFFE0000000FF80
FFF8000003FFFE000000000FFFE0000000FF00
FFF0000003FFFE000000001FFFE0000000FF00
FFF0000003FFFC000000001FFFC0000001FF00
FFF0000007FFFC000000003FFFC0000001FF00
FFF0000007FFFC000000003FFF80000001FE00
FFF0000007FFF8000000003FFF80000001FE00
FFF000000FFFF8000000007FFF00000003FE00
FFF000000FFFF8000000007FFF00000003FC00
FFF000000FFFF000000000FFFF00000007FC00
FFF000000FFFF000000000FFFE00000007FC00
FFF000000FFFF000000000FFFE0000000FF800
FFF000001FFFE000000001FFFE0000000FF800
FFF000001FFFE000000001FFFC0000000FF000
FFF000001FFFE000000003FFFC0000001FF000
FFF000001FFFE000000003FFF80000003FE000
FFF000001FFFC000000007FFF80000003FE000
FFF800001FFFC000000007FFF80000007FC000
7FF800001FFFC00000000FFFF00000007FC000
7FF800001FFFC00000000FFFF0000000FF8000
7FF800001FFF800000001FFFF0000001FF0000
7FF800001FFF800000003FFFE0000001FF0000
7FFC00001FFF800000003FFFE0000003FE0000
3FFC00001FFF800000007FFFC0000007FC0000
3FFC00001FFF800000007FFFC000000FFC0000
3FFC00001FFF80000000FFFFC000001FF80000
3FFE00000FFF80000001FFFF8000003FF00000
1FFE00000FFF80000001FFFF8000007FE00000
1FFE00000FFF80000003FFFF800000FFE00000
1FFF00000FFF80000007FFFF000001FFC00000
0FFF000007FFC000000FFFFF000003FF800000
0FFF800007FFC000000FFFFF00000FFF000000
07FF800003FFC000001FFFFF00001FFE000000
07FFC00003FFE000007FFFFF00007FFC000000
03FFC00001FFF00000FFBFFF0001FFF0000000
03FFE00001FFF80001FF3FFF8007FFE0000000
01FFF00000FFFE0007FE3FFFC07FFFC0000000
01FFF000007FFF803FFC3FFFFFFFFF80000000
00FFF800003FFFFFFFF81FFFFFFFFE00000000
00FFFC00001FFFFFFFF01FFFFFFFF800000000
007FFE00000FFFFFFFC00FFFFFFFF000000000
003FFE000007FFFFFF000FFFFFFFC000000000
003FFF000001FFFFFC0007FFFFFF0000000000
001FFF8000003FFFF00003FFFFF80001000000
000FFFC0000007FF000000FFFFC00003800000
0007FFE0000000000000003FF800000FC00000
0003FFF800000000000000000000001FE00000
0001FFFC00000000000000000000003FF00000
0000FFFE0000000000000000000000FFE00000
00007FFF0000000000000000000001FFC00000
00003FFFC000000000000000000007FF800000
00001FFFE00000000000000000001FFE000000
00000FFFF80000000000000000003FFC000000
000007FFFE000000000000000000FFF8000000
000001FFFF800000000000000007FFE0000000
000000FFFFE0000000000000001FFFC0000000
0000003FFFF800000000000000FFFF00000000
0000001FFFFF00000000000007FFFE00000000
00000007FFFFE000000000003FFFF800000000
00000001FFFFFE0000000003FFFFE000000000
000000007FFFFFF00000007FFFFF8000000000
000000001FFFFFFFFF03FFFFFFFE0000000000
0000000007FFFFFFFFFFFFFFFFF00000000000
0000000001FFFFFFFFFFFFFFFFC00000000000
00000000003FFFFFFFFFFFFFFE000000000000
000000000007FFFFFFFFFFFFF0000000000000
000000000000FFFFFFFFFFFF80000000000000
0000000000000FFFFFFFFFF800000000000000
000000000000003FFFFFFF8000000000000000
00000000000000000FFF000000000000000000
ENDCHAR
STARTCHAR 0041
ENCODING 65
SWIDTH 705 0
DWIDTH 127 0
BBX 117 156 5 -24
BITMAP
000000000003FFFFF8000000000000
000000000007FFFFFC000000000000
000000000007FFFFFC000000000000
000000000007FFFFFC000000000000
000000000007FFFFFC000000000000
00000000000FFFFFFE000000000000
00000000000FFFFFFE000000000000
00000000000FFFFFFE000000000000
00000000000FFFFFFE000000000000
00000000001FFFFFFF000000000000
00000000001FFFFFFF000000000000
00000000001FFFFFFF000000000000
00000000001FFFFFFF000000000000
00000000003FFFFFFF800000000000
00000000003FFFFFFF800000000000
00000000003FFFFFFF800000000000
00000000007FFFFFFFC00000000000
00000000007FFFFFFFC00000000000
00000000007FFFFFFFC00000000000
00000000007FFFFFFFC00000000000
0000000000FFFFFFFFE00000000000
0000000000FFFFFFFFE00000000000
0000000000FFFFFFFFE00000000000
0000000000FFFFFFFFE00000000000
0000000001FFFFFFFFF00000000000
0000000001FFFFFFFFF00000000000
0000000001FFFFFFFFF00000000000
0000000003FFFFFFFFF80000000000
0000000003FFFFFFFFF80000000000
0000000003FFFFFFFFF80000000000
0000000003FFFFFFFFF80000000000
0000000007FFFFFFFFFC0000000000
0000000007FFFFFFFFFC0000000000
0000000007FFFFFFFFFC0000000000
0000000007FFFFFFFFFC0000000000
000000000FFFFFFFFFFE0000000000
000000000FFFFFFFFFFE0000000000
000000000FFFFFFFFFFE0000000000
000000000FFFFFFFFFFE0000000000
000000001FFFFFFFFFFF0000000000
000000001FFFFFFFFFFF0000000000
000000001FFFFFFFFFFF0000000000
000000003FFFFFFFFFFF8000000000
000000003FFFFFFFFFFF8000000000
000000003FFFFFFFFFFF8000000000
000000003FFFFFFFFFFF8000000000
000000007FFFFFFFFFFFC000000000
000000007FFFFFFFFFFFC000000000
000000007FFFFFFFFFFFC000000000
000000007FFFFFBFFFFFC000000000
00000000FFFFFFBFFFFFE000000000
00000000FFFFFF9FFFFFE000000000
00000000FFFFFF1FFFFFE000000000
00000000FFFFFF1FFFFFE000000000
00000001FFFFFF1FFFFFF000000000
00000001FFFFFF0FFFFFF000000000
00000001FFFFFE0FFFFFF000000000
00000003FFFFFE0FFFFFF800000000
00000003FFFFFE07FFFFF800000000
00000003FFFFFE07FFFFF800000000
00000003FFFFFC07FFFFF800000000
00000007FFFFFC07FFFFFC00000000
00000007FFFFFC03FFFFFC00000000
00000007FFFFF803FFFFFC00000000
00000007FFFFF803FFFFFC00000000
0000000FFFFFF803FFFFFE00000000
0000000FFFFFF801FFFFFE00000000
0000000FFFFFF001FFFFFE00000000
0000001FFFFFF001FFFFFE00000000
0000001FFFFFF001FFFFFF00000000
0000001FFFFFF000FFFFFF00000000
0000001FFFFFE000FFFFFF00000000
0000003FFFFFE000FFFFFF80000000
0000003FFFFFE000FFFFFF80000000
0000003FFFFFC0007FFFFF80000000
0000003FFFFFC0007FFFFF80000000
0000007FFFFFC0007FFFFFC0000000
0000007FFFFFC0007FFFFFC0000000
0000007FFFFF80003FFFFFC0000000
0000007FFFFF80003FFFFFC0000000
000000FFFFFF80003FFFFFE0000000
000000FFFFFF80003FFFFFE0000000
000000FFFFFF00001FFFFFE0000000
000001FFFFFF00001FFFFFE0000000
000001FFFFFF00001FFFFFF0000000
000001FFFFFE00001FFFFFF0000000
000001FFFFFE00000FFFFFF0000000
000003FFFFFE00000FFFFFF8000000
000003FFFFFE00000FFFFFF8000000
000003FFFFFC00000FFFFFF8000000
000003FFFFFC000007FFFFF8000000
000007FFFFFC000007FFFFFC000000
000007FFFFFC000007FFFFFC000000
000007FFFFF8000007FFFFFC000000
00000FFFFFF8000003FFFFFC000000
00000FFFFFFFFFFFFFFFFFFE000000
00000FFFFFFFFFFFFFFFFFFE000000
00000FFFFFFFFFFFFFFFFFFE000000
00001FFFFFFFFFFFFFFFFFFE000000
00001FFFFFFFFFFFFFFFFFFF000000
00001FFFFFFFFFFFFFFFFFFF000000
00001FFFFFFFFFFFFFFFFFFF000000
00003FFFFFFFFFFFFFFFFFFF800000
00003FFFFFFFFFFFFFFFFFFF800000
00003FFFFFFFFFFFFFFFFFFF800000
00003FFFFFFFFFFFFFFFFFFF800000
00007FFFFFFFFFFFFFFFFFFFC00000
00007FFFFFFFFFFFFFFFFFFFC00000
00007FFFFFFFFFFFFFFFFFFFC00000
0000FFFFFFFFFFFFFFFFFFFFC00000
0000FFFFFFFFFFFFFFFFFFFFE00000
0000FFFFFFFFFFFFFFFFFFFFE00000
0000FFFFFFFFFFFFFFFFFFFFE00000
0001FFFFFFFFFFFFFFFFFFFFF00000
0001FFFFFFFFFFFFFFFFFFFFF00000
0001FFFFFFFFFFFFFFFFFFFFF00000
0001FFFFFFFFFFFFFFFFFFFFF00000
0003FFFFFFFFFFFFFFFFFFFFF80000
0003FFFFFFFFFFFFFFFFFFFFF80000
0003FFFFFFFFFFFFFFFFFFFFF80000
0007FFFFFC0000000007FFFFF80000
0007FFFFFC0000000007FFFFFC0000
0007FFFFFC0000000007FFFFFC0000
0007FFFFF80000000003FFFFFC0000
000FFFFFF80000000003FFFFFC0000
000FFFFFF80000000003FFFFFE0000
000FFFFFF80000000003FFFFFE0000
000FFFFFF00000000001FFFFFE0000
001FFFFFF00000000001FFFFFF0000
001FFFFFF00000000001FFFFFF0000
001FFFFFF00000000001FFFFFF0000
FFFFFFFFFFFF80001FFFFFFFFFFFF8
FFFFFFFFFFFF80001FFFFFFFFFFFF8
FFFFFFFFFFFF80001FFFFFFFFFFFF8
FFFFFFFFFFFF80001FFFFFFFFFFFF8
FFFFFFFFFFFF80001FFFFFFFFFFFF8
FFFFFFFFFFFF80001FFFFFFFFFFFF8
FFFFFFFFFFFF80001FFFFFFFFFFFF8
FFFFFFFFFFFF80001FFFFFFFFFFFF8
FFFFFFFFFFFF80001FFFFFFFFFFFF8
FFFFFFFFFFFF80001FFFFFFFFFFFF8
FFFFFFFFFFFF80001FFFFFFFFFFFF8
FFFFFFFFFFFF80001FFFFFFFFFFFF8
FFFFFFFFFFFF80001FFFFFFFFFFFF8
FFFFFFFFFFFF80001FFFFFFFFFFFF8
FFFFFFFFFFFF80001FFFFFFFFFFFF8
FFFFFFFFFFFF80001FFFFFFFFFFFF8
FFFFFFFFFFFF80001FFFFFFFFFFFF8
FFFFFFFFFFFF80001FFFFFFFFFFFF8
FFFFFFFFFFFF80001FFFFFFFFFFFF8
FFFFFFFFFFFF80001FFFFFFFFFFFF8
FFFFFFFFFFFF80001FFFFFFFFFFFF8
FFFFFFFFFFFF80001FFFFFFFFFFFF8
FFFFFFFFFFFF80001FFFFFFFFFFFF8
FFFFFFFFFFFF80001FFFFFFFFFFFF8
FFFFFFFFFFFF80001FFFFFFFFFFFF8
ENDCHAR
STARTCHAR 0042
ENCODING 66
SWIDTH 588 0
DWIDTH 106 0
BBX 96 156 5 -24
BITMAP
FFFFFFFFFFFFFFFFFFFF8000
FFFFFFFFFFFFFFFFFFFFC000
FFFFFFFFFFFFFFFFFFFFE000
FFFFFFFFFFFFFFFFFFFFF000
FFFFFFFFFFFFFFFFFFFFF800
FFFFFFFFFFFFFFFFFFFFFC00
FFFFFFFFFFFFFFFFFFFFFE00
FFFFFFFFFFFFFFFFFFFFFF00
FFFFFFFFFFFFFFFFFFFFFF80
FFFFFFFFFFFFFFFFFFFFFFC0
FFFFFFFFFFFFFFFFFFFFFFE0
FFFFFFFFFFFFFFFFFFFFFFF0
FFFFFFFFFFFFFFFFFFFFFFF8
FFFFFFFFFFFFFFFFFFFFFFFC
FFFFFFFFFFFFFFFFFFFFFFFE
FFFFFFFFFFFFFFFFFFFFFFFF
FFFFFFFFFFFFFFFFFFFFFFFF
FFFFFFFFFFFFFFFFFFFFFFFF
FFFFFFFFFFFFFFFFFFFFFFFF
FFFFFFFFFFFFFFFFFFFFFFFF
FFFFFFFFFFFFFFFFFFFFFFFF
FFFFFFFFFFFFFFFFFFFFFFFF
FFFFFFFFFFFFFFFFFFFFFFFF
FFFFFFFFFFFFFFFFFFFFFFFF
FFFFFFFFFFFFFFFFFFFFFFFF
000FFFFFF800000001FFFFFF
000FFFFFF800000001FFFFFF
000FFFFFF800000001FFFFFF
000FFFFFF800000001FFFFFF
000FFFFFF800000001FFFFFF
000FFFFFF800000001FFFFFF
000FFFFFF800000001FFFFFF
000FFFFFF800000001FFFFFF
000FFFFFF800000001FFFFFF
000FFFFFF800000001FFFFFF
000FFFFFF800000001FFFFFF
000FFFFFF800000001FFFFFF
000FFFFFF800000001FFFFFF
000FFFFFF800000001FFFFFF
000FFFFFF800000001FFFFFF
000FFFFFF800000001FFFFFF
000FFFFFF800000001FFFFFF
000FFFFFF800000001FFFFFF
000FFFFFF800000001FFFFFF
000FFFFFF800000001FFFFFF
000FFFFFF800000001FFFFFF
000FFFFFF800000001FFFFFF
000FFFFFF800000001FFFFFF
000FFFFFF800000001FFFFFF
000FFFFFF800000001FFFFFF
000FFFFFF800000001FFFFFF
000FFFFFF800000001FFFFFF
000FFFFFF800000001FFFFFF
000FFFFFF800000001FFFFFF
000FFFFFF800000001FFFFFF
000FFFFFF800000001FFFFFF
000FFFFFF800000001FFFFFF
000FFFFFF800000001FFFFFF
000FFFFFFFFFFFFFFFFFFFFE
000FFFFFFFFFFFFFFFFFFFFC
000FFFFFFFFFFFFFFFFFFFF8
000FFFFFFFFFFFFFFFFFFFF0
000FFFFFFFFFFFFFFFFFFFE0
000FFFFFFFFFFFFFFFFFFFC0
000FFFFFFFFFFFFFFFFFFF80
000FFFFFFFFFFFFFFFFFFF00
000FFFFFFFFFFFFFFFFFFE00
000FFFFFFFFFFFFFFFFFFC00
000FFFFFFFFFFFFFFFFFF800
000FFFFFFFFFFFFFFFFFF800
000FFFFFFFFFFFFFFFFFFC00
000FFFFFFFFFFFFFFFFFFE00
000FFFFFFFFFFFFFFFFFFF00
000FFFFFFFFFFFFFFFFFFF80
000FFFFFFFFFFFFFFFFFFFC0
000FFFFFFFFFFFFFFFFFFFE0
000FFFFFFFFFFFFFFFFFFFF0
000FFFFFFFFFFFFFFFFFFFF8
000FFFFFFFFFFFFFFFFFFFFC
000FFFFFFFFFFFFFFFFFFFFE
000FFFFFFFFFFFFFFFFFFFFF
000FFFFFFFFFFFFFFFFFFFFF
000FFFFFFFFFFFFFFFFFFFFF
000FFFFFF800000001FFFFFF
000FFFFFF800000001FFFFFF
000FFFFFF800000001FFFFFF
000FFFFFF800000001FFFFFF
000FFFFFF800000001FFFFFF
000FFFFFF800000001FFFFFF
000FFFFFF800000001FFFFFF
000FFFFFF800000001FFFFFF
000FFFFFF800000001FFFFFF
000FFFFFF800000001FFFFFF
000FFFFFF800000001FFFFFF
000FFFFFF800000001FFFFFF
000FFFFFF800000001FFFFFF
000FFFFFF800000001FFFFFF
000FFFFFF800000001FFFFFF
000FFFFFF800000001FFFFFF
000FFFFFF800000001FFFFFF
000FFFFFF800000001FFFFFF
000FFFFFF800000001FFFFFF
000FFFFFF800000001FFFFFF
000FFFFFF800000001FFFFFF
000FFFFFF800000001FFFFFF
000FFFFFF800000001FFFFFF
000FFFFFF800000001FFFFFF
000FFFFFF800000001FFFFFF
000FFFFFF800000001FFFFFF
000FFFFFF800000001FFFFFF
000FFFFFF800000001FFFFFF
000FFFFFF800000001FFFFFF
000FFFFFF800000001FFFFFF
000FFFFFF800000001FFFFFF
000FFFFFF800000001FFFFFF
000FFFFFF800000001FFFFFF
000FFFFFF800000001FFFFFF
000FFFFFF800000001FFFFFF
000FFFFFF800000001FFFFFF
000FFFFFF800000001FFFFFF
000FFFFFF800000001FFFFFF
000FFFFFF800000001FFFFFF
000FFFFFF800000001FFFFFF
000FFFFFF800000001FFFFFF
000FFFFFF800000001FFFFFF
000FFFFFF800000001FFFFFF
000FFFFFF800000001FFFFFF
000FFFFFF800000001FFFFFF
000FFFFFF800000001FFFFFF
000FFFFFF800000001FFFFFF
000FFFFFF800000001FFFFFF
FFFFFFFFFFFFFFFFFFFFFFFF
FFFFFFFFFFFFFFFFFFFFFFFF
FFFFFFFFFFFFFFFFFFFFFFFF
FFFFFFFFFFFFFFFFFFFFFFFF
FFFFFFFFFFFFFFFFFFFFFFFF
FFFFFFFFFFFFFFFFFFFFFFFF
FFFFFFFFFFFFFFFFFFFFFFFF
FFFFFFFFFFFFFFFFFFFFFFFF
FFFFFFFFFFFFFFFFFFFFFFFF
FFFFFFFFFFFFFFFFFFFFFFFE
FFFFFFFFFFFFFFFFFFFFFFFC
FFFFFFFFFFFFFFFFFFFFFFF8
FFFFFFFFFFFFFFFFFFFFFFF0
FFFFFFFFFFFFFFFFFFFFFFE0
FFFFFFFFFFFFFFFFFFFFFFC0
FFFFFFFFFFFFFFFFFFFFFF80
FFFFFFFFFFFFFFFFFFFFFF00
FFFFFFFFFFFFFFFFFFFFFE00
FFFFFFFFFFFFFFFFFFFFFC00
FFFFFFFFFFFFFFFFFFFFF800
FFFFFFFFFFFFFFFFFFFFF000
FFFFFFFFFFFFFFFFFFFFE000
FFFFFFFFFFFFFFFFFFFFC000
FFFFFFFFFFFFFFFFFFFF8000
FFFFFFFFFFFFFFFFFFFF0000
ENDCHAR
STARTCHAR 0043
ENCODING 67
SWIDTH 522 0
DWIDTH 94 0
BBX 84 156 5 -24
BITMAP
0000FFFFFFFFFFFFF80000
0001FFFFFFFFFFFFFC0000
0003FFFFFFFFFFFFFE0000
0007FFFFFFFFFFFFFF0000
000FFFFFFFFFFFFFFF8000
001FFFFFFFFFFFFFFFC000
003FFFFFFFFFFFFFFFE000
007FFFFFFFFFFFFFFFF000
00FFFFFFFFFFFFFFFFF800
01FFFFFFFFFFFFFFFFFC00
03FFFFFFFFFFFFFFFFFE00
07FFFFFFFFFFFFFFFFFF00
0FFFFFFFFFFFFFFFFFFFC0
1FFFFFFFFFFFFFFFFFFFE0
3FFFFFFFFFFFFFFFFFFFF0
7FFFFFFFFFFFFFFFFFFFF0
FFFFFFFFFFFFFFFFFFFFF0
FFFFFFFFFFFFFFFFFFFFF0
FFFFFFFFFFFFFFFFFFFFF0
FFFFFFFFFFFFFFFFFFFFF0
FFFFFFFFFFFFFFFFFFFFF0
FFFFFFFFFFFFFFFFFFFFF0
FFFFFFFFFFFFFFFFFFFFF0
FFFFFFFFFFFFFFFFFFFFF0
FFFFFFFFFFFFFFFFFFFFF0
FFFFFF800000001FFFFFF0
FFFFFF800000001FFFFFF0
FFFFFF800000001FFFFFF0
FFFFFF800000001FFFFFF0
FFFFFF800000001FFFFFF0
FFFFFF800000001FFFFFF0
FFFFFF800000001FFFFFF0
FFFFFF800000001FFFFFF0
FFFFFF800000001FFFFFF0
FFFFFF800000001FFFFFF0
FFFFFF800000001FFFFFF0
FFFFFF800000001FFFFFF0
FFFFFF800000001FFFFFF0
FFFFFF800000001FFFFFF0
FFFFFF800000001FFFFFF0
FFFFFF800000001FFFFFF0
FFFFFF800000001FFFFFF0
FFFFFF800000001FFFFFF0
FFFFFF800000001FFFFFF0
FFFFFF800000001FFFFFF0
FFFFFF800000001FFFFFF0
FFFFFF800000001FFFFFF0
FFFFFF8000000000000000
FFFFFF8000000000000000
FFFFFF8000000000000000
FFFFFF8000000000000000
FFFFFF8000000000000000
FFFFFF8000000000000000
FFFFFF8000000000000000
FFFFFF8000000000000000
FFFFFF8000000000000000
FFFFFF8000000000000000
FFFFFF8000000000000000
FFFFFF8000000000000000
FFFFFF8000000000000000
FFFFFF8000000000000000
FFFFFF8000000000000000
FFFFFF8000000000000000
FFFFFF8000000000000000
FFFFFF8000000000000000
FFFFFF8000000000000000
FFFFFF8000000000000000
FFFFFF8000000000000000
FFFFFF8000000000000000
FFFFFF8000000000000000
FFFFFF8000000000000000
FFFFFF8000000000000000
FFFFFF8000000000000000
FFFFFF8000000000000000
FFFFFF8000000000000000
FFFFFF8000000000000000
FFFFFF8000000000000000
FFFFFF8000000000000000
FFFFFF8000000000000000
FFFFFF8000000000000000
FFFFFF8000000000000000
FFFFFF8000000000000000
FFFFFF8000000000000000
FFFFFF8000000000000000
FFFFFF8000000000000000
FFFFFF8000000000000000
FFFFFF8000000000000000
FFFFFF8000000000000000
FFFFFF8000000000000000
FFFFFF8000000000000000
FFFFFF8000000000000000
FFFFFF8000000000000000
FFFFFF8000000000000000
FFFFFF8000000000000000
FFFFFF8000000000000000
FFFFFF8000000000000000
FFFFFF8000000000000000
FFFFFF8000000000000000
FFFFFF8000000000000000
FFFFFF8000000000000000
FFFFFF8000000000000000
FFFFFF8000000000000000
FFFFFF8000000000000000
FFFFFF8000000000000000
FFFFFF8000000000000000
FFFFFF8000000000000000
FFFFFF8000000000000000
FFFFFF8000000000000000
FFFFFF800000001FFFFFF0
FFFFFF800000001FFFFFF0
FFFFFF800000001FFFFFF0
FFFFFF800000001FFFFFF0
FFFFFF800000001FFFFFF0
FFFFFF800000001FFFFFF0
FFFFFF800000001FFFFFF0
FFFFFF800000001FFFFFF0
FFFFFF800000001FFFFFF0
FFFFFF800000001FFFFFF0
FFFFFF800000001FFFFFF0
FFFFFF800000001FFFFFF0
FFFFFF800000001FFFFFF0
FFFFFF800000001FFFFFF0
FFFFFF800000001FFFFFF0
FFFFFF800000001FFFFFF0
FFFFFF800000001FFFFFF0
FFFFFF800000001FFFFFF0
FFFFFF800000001FFFFFF0
FFFFFF800000001FFFFFF0
FFFFFF800000001FFFFFF0
FFFFFF800000001FFFFFF0
FFFFFF800000001FFFFFF0
FFFFFFFFFFFFFFFFFFFFF0
FFFFFFFFFFFFFFFFFFFFF0
FFFFFFFFFFFFFFFFFFFFF0
FFFFFFFFFFFFFFFFFFFFF0
FFFFFFFFFFFFFFFFFFFFF0
FFFFFFFFFFFFFFFFFFFFF0
FFFFFFFFFFFFFFFFFFFFF0
FFFFFFFFFFFFFFFFFFFFF0
FFFFFFFFFFFFFFFFFFFFF0
FFFFFFFFFFFFFFFFFFFFF0
7FFFFFFFFFFFFFFFFFFFF0
3FFFFFFFFFFFFFFFFFFFF0
1FFFFFFFFFFFFFFFFFFFE0
0FFFFFFFFFFFFFFFFFFFC0
07FFFFFFFFFFFFFFFFFF80
03FFFFFFFFFFFFFFFFFF00
01FFFFFFFFFFFFFFFFFE00
00FFFFFFFFFFFFFFFFFC00
007FFFFFFFFFFFFFFFF800
003FFFFFFFFFFFFFFFF000
001FFFFFFFFFFFFFFFE000
000FFFFFFFFFFFFFFFC000
0007FFFFFFFFFFFFFF8000
0003FFFFFFFFFFFFFF0000
0001FFFFFFFFFFFFFE0000
ENDCHAR
STARTCHAR 0044
ENCODING 68
SWIDTH 588 0
DWIDTH 106 0
BBX 96 156 5 -24
BITMAP
FFFFFFFFFFFFFFFFFFFFE000
FFFFFFFFFFFFFFFFFFFFF000
FFFFFFFFFFFFFFFFFFFFF800
FFFFFFFFFFFFFFFFFFFFFC00
FFFFFFFFFFFFFFFFFFFFFE00
FFFFFFFFFFFFFFFFFFFFFF00
FFFFFFFFFFFFFFFFFFFFFFC0
FFFFFFFFFFFFFFFFFFFFFFE0
FFFFFFFFFFFFFFFFFFFFFFF0
FFFFFFFFFFFFFFFFFFFFFFF8
FFFFFFFFFFFFFFFFFFFFFFFC
FFFFFFFFFFFFFFFFFFFFFFFE
FFFFFFFFFFFFFFFFFFFFFFFF
FFFFFFFFFFFFFFFFFFFFFFFF
FFFFFFFFFFFFFFFFFFFFFFFF
FFFFFFFFFFFFFFFFFFFFFFFF
FFFFFFFFFFFFFFFFFFFFFFFF
FFFFFFFFFFFFFFFFFFFFFFFF
FFFFFFFFFFFFFFFFFFFFFFFF
FFFFFFFFFFFFFFFFFFFFFFFF
FFFFFFFFFFFFFFFFFFFFFFFF
FFFFFFFFFFFFFFFFFFFFFFFF
FFFFFFFFFFFFFFFFFFFFFFFF
FFFFFFFFFFFFFFFFFFFFFFFF
FFFFFFFFFFFFFFFFFFFFFFFF
000FFFFFF800000001FFFFFF
000FFFFFF800000001FFFFFF
000FFFFFF800000001FFFFFF
000FFFFFF800000001FFFFFF
000FFFFFF800000001FFFFFF
000FFFFFF800000001FFFFFF
000FFFFFF800000001FFFFFF
000FFFFFF800000001FFFFFF
000FFFFFF800000001FFFFFF
000FFFFFF800000001FFFFFF
000FFFFFF800000001FFFFFF
000FFFFFF800000001FFFFFF
000FFFFFF800000001FFFFFF
000FFFFFF800000001FFFFFF
000FFFFFF800000001FFFFFF
000FFFFFF800000001FFFFFF
000FFFFFF800000001FFFFFF
000FFFFFF800000001FFFFFF
000FFFFFF800000001FFFFFF
000FFFFFF800000001FFFFFF
000FFFFFF800000001FFFFFF
000FFFFFF800000001FFFFFF
000FFFFFF800000001FFFFFF
000FFFFFF800000001FFFFFF
000FFFFFF800000001FFFFFF
000FFFFFF800000001FFFFFF
000FFFFFF800000001FFFFFF
000FFFFFF800000001FFFFFF
000FFFFFF800000001FFFFFF
000FFFFFF800000001FFFFFF
000FFFFFF800000001FFFFFF
000FFFFFF800000001FFFFFF
000FFFFFF800000001FFFFFF
000FFFFFF800000001FFFFFF
000FFFFFF800000001FFFFFF
000FFFFFF800000001FFFFFF
000FFFFFF800000001FFFFFF
000FFFFFF800000001FFFFFF
000FFFFFF800000001FFFFFF
000FFFFFF800000001FFFFFF
000FFFFFF800000001FFFFFF
000FFFFFF800000001FFFFFF
000FFFFFF800000001FFFFFF
000FFFFFF800000001FFFFFF
000FFFFFF800000001FFFFFF
000FFFFFF800000001FFFFFF
000FFFFFF800000001FFFFFF
000FFFFFF800000001FFFFFF
000FFFFFF800000001FFFFFF
000FFFFFF800000001FFFFFF
000FFFFFF800000001FFFFFF
000FFFFFF800000001FFFFFF
000FFFFFF800000001FFFFFF
000FFFFFF800000001FFFFFF
000FFFFFF800000001FFFFFF
000FFFFFF800000001FFFFFF
000FFFFFF800000001FFFFFF
000FFFFFF800000001FFFFFF
000FFFFFF800000001FFFFFF
000FFFFFF800000001FFFFFF
000FFFFFF800000001FFFFFF
000FFFFFF800000001FFFFFF
000FFFFFF800000001FFFFFF
000FFFFFF800000001FFFFFF
000FFFFFF800000001FFFFFF
000FFFFFF800000001FFFFFF
000FFFFFF800000001FFFFFF
000FFFFFF800000001FFFFFF
000FFFFFF800000001FFFFFF
000FFFFFF800000001FFFFFF
000FFFFFF800000001FFFFFF
000FFFFFF800000001FFFFFF
000FFFFFF800000001FFFFFF
000FFFFFF800000001FFFFFF
000FFFFFF800000001FFFFFF
000FFFFFF800000001FFFFFF
000FFFFFF800000001FFFFFF
000FFFFFF800000001FFFFFF
000FFFFFF800000001FFFFFF
000FFFFFF800000001FFFFFF
000FFFFFF800000001FFFFFF
000FFFFFF800000001FFFFFF
000FFFFFF800000001FFFFFF
000FFFFFF800000001FFFFFF
000FFFFFF800000001FFFFFF
000FFFFFF800000001FFFFFF
000FFFFFF800000001FFFFFF
000FFFFFF800000001FFFFFF
000FFFFFF800000001FFFFFF
000FFFFFF800000001FFFFFF
000FFFFFF800000001FFFFFF
000FFFFFF800000001FFFFFF
000FFFFFF800000001FFFFFF
000FFFFFF800000001FFFFFF
000FFFFFF800000001FFFFFF
000FFFFFF800000001FFFFFF
000FFFFFF800000001FFFFFF
000FFFFFF800000001FFFFFF
000FFFFFF800000001FFFFFF
000FFFFFF800000001FFFFFF
000FFFFFF800000001FFFFFF
000FFFFFF800000001FFFFFF
000FFFFFF800000001FFFFFF
000FFFFFF800000001FFFFFF
000FFFFFF800000001FFFFFF
000FFFFFF800000001FFFFFF
FFFFFFFFFFFFFFFFFFFFFFFF
FFFFFFFFFFFFFFFFFFFFFFFF
FFFFFFFFFFFFFFFFFFFFFFFF
FFFFFFFFFFFFFFFFFFFFFFFF
FFFFFFFFFFFFFFFFFFFFFFFF
FFFFFFFFFFFFFFFFFFFFFFFF
FFFFFFFFFFFFFFFFFFFFFFFF
FFFFFFFFFFFFFFFFFFFFFFFF
FFFFFFFFFFFFFFFFFFFFFFFF
FFFFFFFFFFFFFFFFFFFFFFFF
FFFFFFFFFFFFFFFFFFFFFFFF
FFFFFFFFFFFFFFFFFFFFFFFE
FFFFFFFFFFFFFFFFFFFFFFFC
FFFFFFFFFFFFFFFFFFFFFFF8
FFFFFFFFFFFFFFFFFFFFFFF0
FFFFFFFFFFFFFFFFFFFFFFE0
FFFFFFFFFFFFFFFFFFFFFFC0
FFFFFFFFFFFFFFFFFFFFFF80
FFFFFFFFFFFFFFFFFFFFFF00
FFFFFFFFFFFFFFFFFFFFFE00
FFFFFFFFFFFFFFFFFFFFF800
FFFFFFFFFFFFFFFFFFFFF000
FFFFFFFFFFFFFFFFFFFFE000
FFFFFFFFFFFFFFFFFFFFC000
FFFFFFFFFFFFFFFFFFFF8000
ENDCHAR
STARTCHAR 0045
ENCODING 69
SWIDTH 588 0
DWIDTH 106 0
BBX 96 156 5 -24
BITMAP
FFFFFFFFFFFFFFFFFFFFFFFF
FFFFFFFFFFFFFFFFFFFFFFFF
FFFFFFFFFFFFFFFFFFFFFFFF
FFFFFFFFFFFFFFFFFFFFFFFF
FFFFFFFFFFFFFFFFFFFFFFFF
FFFFFFFFFFFFFFFFFFFFFFFF
FFFFFFFFFFFFFFFFFFFFFFFF
FFFFFFFFFFFFFFFFFFFFFFFF
FFFFFFFFFFFFFFFFFFFFFFFF
FFFFFFFFFFFFFFFFFFFFFFFF
FFFFFFFFFFFFFFFFFFFFFFFF
FFFFFFFFFFFFFFFFFFFFFFFF
FFFFFFFFFFFFFFFFFFFFFFFF
FFFFFFFFFFFFFFFFFFFFFFFF
FFFFFFFFFFFFFFFFFFFFFFFF
FFFFFFFFFFFFFFFFFFFFFFFF
FFFFFFFFFFFFFFFFFFFFFFFF
FFFFFFFFFFFFFFFFFFFFFFFF
FFFFFFFFFFFFFFFFFFFFFFFF
FFFFFFFFFFFFFFFFFFFFFFFF
FFFFFFFFFFFFFFFFFFFFFFFF
FFFFFFFFFFFFFFFFFFFFFFFF
FFFFFFFFFFFFFFFFFFFFFFFF
FFFFFFFFFFFFFFFFFFFFFFFF
FFFFFFFFFFFFFFFFFFFFFFFF
000FFFFFF800000001FFFFFF
000FFFFFF800000001FFFFFF
000FFFFFF800000001FFFFFF
000FFFFFF800000001FFFFFF
000FFFFFF800000001FFFFFF
000FFFFFF800000001FFFFFF
000FFFFFF800000001FFFFFF
000FFFFFF800000001FFFFFF
000FFFFFF800000001FFFFFF
000FFFFFF800000001FFFFFF
000FFFFFF800000001FFFFFF
000FFFFFF800000001FFFFFF
000FFFFFF800000001FFFFFF
000FFFFFF800000001FFFFFF
000FFFFFF800000001FFFFFF
000FFFFFF800000001FFFFFF
000FFFFFF800000001FFFFFF
000FFFFFF800000001FFFFFF
000FFFFFF800000001FFFFFF
000FFFFFF800000001FFFFFF
000FFFFFF800000001FFFFFF
000FFFFFF800000000000000
000FFFFFF800000000000000
000FFFFFF800000000000000
000FFFFFF800000000000000
000FFFFFF800000000000000
000FFFFFF800000000000000
000FFFFFF800000000000000
000FFFFFF800000000000000
000FFFFFF800000000000000
000FFFFFF800000000000000
000FFFFFF800000000000000
000FFFFFF800000000000000
000FFFFFFFFFFFFFFE000000
000FFFFFFFFFFFFFFE000000
000FFFFFFFFFFFFFFE000000
000FFFFFFFFFFFFFFE000000
000FFFFFFFFFFFFFFE000000
000FFFFFFFFFFFFFFE000000
000FFFFFFFFFFFFFFE000000
000FFFFFFFFFFFFFFE000000
000FFFFFFFFFFFFFFE000000
000FFFFFFFFFFFFFFE000000
000FFFFFFFFFFFFFFE000000
000FFFFFFFFFFFFFFE000000
000FFFFFFFFFFFFFFE000000
000FFFFFFFFFFFFFFE000000
000FFFFFFFFFFFFFFE000000
000FFFFFFFFFFFFFFE000000
000FFFFFFFFFFFFFFE000000
000FFFFFFFFFFFFFFE000000
000FFFFFFFFFFFFFFE000000
000FFFFFFFFFFFFFFE000000
000FFFFFFFFFFFFFFE000000
000FFFFFFFFFFFFFFE000000
000FFFFFFFFFFFFFFE000000
000FFFFFFFFFFFFFFE000000
000FFFFFFFFFFFFFFE000000
000FFFFFF800000000000000
000FFFFFF800000000000000
000FFFFFF800000000000000
000FFFFFF800000000000000
000FFFFFF800000000000000
000FFFFFF800000000000000
000FFFFFF800000000000000
000FFFFFF800000000000000
000FFFFFF800000000000000
000FFFFFF800000000000000
000FFFFFF800000000000000
000FFFFFF800000000000000
000FFFFFF800000000000000
000FFFFFF800000000000000
000FFFFFF800000000000000
000FFFFFF800000000000000
000FFFFFF800000001FFFFFF
000FFFFFF800000001FFFFFF
000FFFFFF800000001FFFFFF
000FFFFFF800000001FFFFFF
000FFFFFF800000001FFFFFF
000FFFFFF800000001FFFFFF
000FFFFFF800000001FFFFFF
000FFFFFF800000001FFFFFF
000FFFFFF800000001FFFFFF
000FFFFFF800000001FFFFFF
000FFFFFF800000001FFFFFF
000FFFFFF800000001FFFFFF
000FFFFFF800000001FFFFFF
000FFFFFF800000001FFFFFF
000FFFFFF800000001FFFFFF
000FFFFFF800000001FFFFFF
000FFFFFF800000001FFFFFF
000FFFFFF800000001FFFFFF
000FFFFFF800000001FFFFFF
000FFFFFF800000001FFFFFF
000FFFFFF800000001FFFFFF
000FFFFFF800000001FFFFFF
000FFFFFF800000001FFFFFF
000FFFFFF800000001FFFFFF
000FFFFFF800000001FFFFFF
000FFFFFF800000001FFFFFF
000FFFFFF800000001FFFFFF
000FFFFFF800000001FFFFFF
000FFFFFF800000001FFFFFF
000FFFFFF800000001FFFFFF
000FFFFFF800000001FFFFFF
000FFFFFF800000001FFFFFF
FFFFFFFFFFFFFFFFFFFFFFFF
FFFFFFFFFFFFFFFFFFFFFFFF
FFFFFFFFFFFFFFFFFFFFFFFF
FFFFFFFFFFFFFFFFFFFFFFFF
FFFFFFFFFFFFFFFFFFFFFFFF
FFFFFFFFFFFFFFFFFFFFFFFF
FFFFFFFFFFFFFFFFFFFFFFFF
FFFFFFFFFFFFFFFFFFFFFFFF
FFFFFFFFFFFFFFFFFFFFFFFF
FFFFFFFFFFFFFFFFFFFFFFFF
FFFFFFFFFFFFFFFFFFFFFFFF
FFFFFFFFFFFFFFFFFFFFFFFF
FFFFFFFFFFFFFFFFFFFFFFFF
FFFFFFFFFFFFFFFFFFFFFFFF
FFFFFFFFFFFFFFFFFFFFFFFF
FFFFFFFFFFFFFFFFFFFFFFFF
FFFFFFFFFFFFFFFFFFFFFFFF
FFFFFFFFFFFFFFFFFFFFFFFF
FFFFFFFFFFFFFFFFFFFFFFFF
FFFFFFFFFFFFFFFFFFFFFFFF
FFFFFFFFFFFFFFFFFFFFFFFF
FFFFFFFFFFFFFFFFFFFFFFFF
FFFFFFFFFFFFFFFFFFFFFFFF
FFFFFFFFFFFFFFFFFFFFFFFF
FFFFFFFFFFFFFFFFFFFFFFFF
ENDCHAR
STARTCHAR 0046
ENCODING 70
SWIDTH 588 0
DWIDTH 106 0
BBX 96 156 5 -24
BITMAP
FFFFFFFFFFFFFFFFFFFFFFFF
FFFFFFFFFFFFFFFFFFFFFFFF
FFFFFFFFFFFFFFFFFFFFFFFF
FFFFFFFFFFFFFFFFFFFFFFFF
FFFFFFFFFFFFFFFFFFFFFFFF
FFFFFFFFFFFFFFFFFFFFFFFF
FFFFFFFFFFFFFFFFFFFFFFFF
FFFFFFFFFFFFFFFFFFFFFFFF
FFFFFFFFFFFFFFFFFFFFFFFF
FFFFFFFFFFFFFFFFFFFFFFFF
FFFFFFFFFFFFFFFFFFFFFFFF
FFFFFFFFFFFFFFFFFFFFFFFF
FFFFFFFFFFFFFFFFFFFFFFFF
FFFFFFFFFFFFFFFFFFFFFFFF
FFFFFFFFFFFFFFFFFFFFFFFF
FFFFFFFFFFFFFFFFFFFFFFFF
FFFFFFFFFFFFFFFFFFFFFFFF
FFFFFFFFFFFFFFFFFFFFFFFF
FFFFFFFFFFFFFFFFFFFFFFFF
FFFFFFFFFFFFFFFFFFFFFFFF
FFFFFFFFFFFFFFFFFFFFFFFF
FFFFFFFFFFFFFFFFFFFFFFFF
FFFFFFFFFFFFFFFFFFFFFFFF
FFFFFFFFFFFFFFFFFFFFFFFF
FFFFFFFFFFFFFFFFFFFFFFFF
000FFFFFF800000001FFFFFF
000FFFFFF800000001FFFFFF
000FFFFFF800000001FFFFFF
000FFFFFF800000001FFFFFF
000FFFFFF800000001FFFFFF
000FFFFFF800000001FFFFFF
000FFFFFF800000001FFFFFF
000FFFFFF800000001FFFFFF
000FFFFFF800000001FFFFFF
000FFFFFF800000001FFFFFF
000FFFFFF800000001FFFFFF
000FFFFFF800000001FFFFFF
000FFFFFF800000001FFFFFF
000FFFFFF800000001FFFFFF
000FFFFFF800000001FFFFFF
000FFFFFF800000001FFFFFF
000FFFFFF800000001FFFFFF
000FFFFFF800000001FFFFFF
000FFFFFF800000001FFFFFF
000FFFFFF800000001FFFFFF
000FFFFFF800000001FFFFFF
000FFFFFF800000001FFFFFF
000FFFFFF800000000000000
000FFFFFF800000000000000
000FFFFFF800000000000000
000FFFFFF800000000000000
000FFFFFF800000000000000
000FFFFFF800000000000000
000FFFFFF800000000000000
000FFFFFF800000000000000
000FFFFFF800000000000000
000FFFFFF800000000000000
000FFFFFF800000000000000
000FFFFFFFFFFFFFFE000000
000FFFFFFFFFFFFFFE000000
000FFFFFFFFFFFFFFE000000
000FFFFFFFFFFFFFFE000000
000FFFFFFFFFFFFFFE000000
000FFFFFFFFFFFFFFE000000
000FFFFFFFFFFFFFFE000000
000FFFFFFFFFFFFFFE000000
000FFFFFFFFFFFFFFE000000
000FFFFFFFFFFFFFFE000000
000FFFFFFFFFFFFFFE000000
000FFFFFFFFFFFFFFE000000
000FFFFFFFFFFFFFFE000000
000FFFFFFFFFFFFFFE000000
000FFFFFFFFFFFFFFE000000
000FFFFFFFFFFFFFFE000000
000FFFFFFFFFFFFFFE000000
000FFFFFFFFFFFFFFE000000
000FFFFFFFFFFFFFFE000000
000FFFFFFFFFFFFFFE000000
000FFFFFFFFFFFFFFE000000
000FFFFFFFFFFFFFFE000000
000FFFFFFFFFFFFFFE000000
000FFFFFFFFFFFFFFE000000
000FFFFFFFFFFFFFFE000000
000FFFFFF800000000000000
000FFFFFF800000000000000
000FFFFFF800000000000000
000FFFFFF800000000000000
000FFFFFF800000000000000
000FFFFFF800000000000000
000FFFFFF800000000000000
000FFFFFF800000000000000
000FFFFFF800000000000000
000FFFFFF800000000000000
000FFFFFF800000000000000
000FFFFFF800000000000000
000FFFFFF800000000000000
000FFFFFF800000000000000
000FFFFFF800000000000000
000FFFFFF800000000000000
000FFFFFF800000000000000
000FFFFFF800000000000000
000FFFFFF800000000000000
000FFFFFF800000000000000
000FFFFFF800000000000000
000FFFFFF800000000000000
000FFFFFF800000000000000
000FFFFFF800000000000000
000FFFFFF800000000000000
000FFFFFF800000000000000
000FFFFFF800000000000000
000FFFFFF800000000000000
000FFFFFF800000000000000
000FFFFFF800000000000000
000FFFFFF800000000000000
000FFFFFF800000000000000
000FFFFFF800000000000000
000FFFFFF800000000000000
000FFFFFF800000000000000
000FFFFFF800000000000000
000FFFFFF800000000000000
000FFFFFF800000000000000
000FFFFFF800000000000000
000FFFFFF800000000000000
000FFFFFF800000000000000
000FFFFFF800000000000000
000FFFFFF800000000000000
000FFFFFF800000000000000
000FFFFFF800000000000000
000FFFFFF800000000000000
000FFFFFF800000000000000
000FFFFFF800000000000000
FFFFFFFFFFFF800000000000
FFFFFFFFFFFF800000000000
FFFFFFFFFFFF800000000000
FFFFFFFFFFFF800000000000
FFFFFFFFFFFF800000000000
FFFFFFFFFFFF800000000000
FFFFFFFFFFFF800000000000
FFFFFFFFFFFF800000000000
FFFFFFFFFFFF800000000000
FFFFFFFFFFFF800000000000
FFFFFFFFFFFF800000000000
FFFFFFFFFFFF800000000000
FFFFFFFFFFFF800000000000
FFFFFFFFFFFF800000000000
FFFFFFFFFFFF800000000000
FFFFFFFFFFFF800000000000
FFFFFFFFFFFF800000000000
FFFFFFFFFFFF800000000000
FFFFFFFFFFFF800000000000
FFFFFFFFFFFF800000000000
FFFFFFFFFFFF800000000000
FFFFFFFFFFFF800000000000
FFFFFFFFFFFF800000000000
FFFFFFFFFFFF800000000000
FFFFFFFFFFFF800000000000
ENDCHAR
STARTCHAR 0047
ENCODING 71
SWIDTH 522 0
DWIDTH 94 0
BBX 84 156 5 -24
BITMAP
00007FFFFFFFFFFFFE0000
0000FFFFFFFFFFFFFF0000
0001FFFFFFFFFFFFFF8000
0003FFFFFFFFFFFFFFC000
0007FFFFFFFFFFFFFFE000
000FFFFFFFFFFFFFFFF000
001FFFFFFFFFFFFFFFF800
003FFFFFFFFFFFFFFFFC00
007FFFFFFFFFFFFFFFFE00
00FFFFFFFFFFFFFFFFFF00
01FFFFFFFFFFFFFFFFFF80
03FFFFFFFFFFFFFFFFFFC0
07FFFFFFFFFFFFFFFFFFE0
0FFFFFFFFFFFFFFFFFFFF0
1FFFFFFFFFFFFFFFFFFFF0
3FFFFFFFFFFFFFFFFFFFF0
7FFFFFFFFFFFFFFFFFFFF0
FFFFFFFFFFFFFFFFFFFFF0
FFFFFFFFFFFFFFFFFFFFF0
FFFFFFFFFFFFFFFFFFFFF0
FFFFFFFFFFFFFFFFFFFFF0
FFFFFFFFFFFFFFFFFFFFF0
FFFFFFFFFFFFFFFFFFFFF0
FFFFFFFFFFFFFFFFFFFFF0
FFFFFFFFFFFFFFFFFFFFF0
FFFFFF800000001FFFFFF0
FFFFFF800000001FFFFFF0
FFFFFF800000001FFFFFF0
FFFFFF800000001FFFFFF0
FFFFFF800000001FFFFFF0
FFFFFF800000001FFFFFF0
FFFFFF800000001FFFFFF0
FFFFFF800000001FFFFFF0
FFFFFF800000001FFFFFF0
FFFFFF800000001FFFFFF0
FFFFFF800000001FFFFFF0
FFFFFF800000001FFFFFF0
FFFFFF800000001FFFFFF0
FFFFFF800000001FFFFFF0
FFFFFF800000001FFFFFF0
FFFFFF800000001FFFFFF0
FFFFFF800000001FFFFFF0
FFFFFF800000001FFFFFF0
FFFFFF800000001FFFFFF0
FFFFFF800000001FFFFFF0
FFFFFF800000001FFFFFF0
FFFFFF800000001FFFFFF0
FFFFFF800000001FFFFFF0
FFFFFF8000000000000000
FFFFFF8000000000000000
FFFFFF8000000000000000
FFFFFF8000000000000000
FFFFFF8000000000000000
FFFFFF8000000000000000
FFFFFF8000000000000000
FFFFFF8000000000000000
FFFFFF8000000000000000
FFFFFF8000000000000000
FFFFFF8000000000000000
FFFFFF8000000000000000
FFFFFF8000000000000000
FFFFFF8000000000000000
FFFFFF8000000000000000
FFFFFF8000000000000000
FFFFFF8000000000000000
FFFFFF8000000000000000
FFFFFF8000000000000000
FFFFFF8000000000000000
FFFFFF8000000000000000
FFFFFF8000000000000000
FFFFFF80000FFFFFFFFFF0
FFFFFF80000FFFFFFFFFF0
FFFFFF80000FFFFFFFFFF0
FFFFFF80000FFFFFFFFFF0
FFFFFF80000FFFFFFFFFF0
FFFFFF80000FFFFFFFFFF0
FFFFFF80000FFFFFFFFFF0
FFFFFF80000FFFFFFFFFF0
FFFFFF80000FFFFFFFFFF0
FFFFFF80000FFFFFFFFFF0
FFFFFF80000FFFFFFFFFF0
FFFFFF80000FFFFFFFFFF0
FFFFFF80000FFFFFFFFFF0
FFFFFF80000FFFFFFFFFF0
FFFFFF80000FFFFFFFFFF0
FFFFFF80000FFFFFFFFFF0
FFFFFF80000FFFFFFFFFF0
FFFFFF80000FFFFFFFFFF0
FFFFFF80000FFFFFFFFFF0
FFFFFF80000FFFFFFFFFF0
FFFFFF80000FFFFFFFFFF0
FFFFFF80000FFFFFFFFFF0
FFFFFF80000FFFFFFFFFF0
FFFFFF80000FFFFFFFFFF0
FFFFFF80000FFFFFFFFFF0
FFFFFF800000001FFFFFF0
FFFFFF800000001FFFFFF0
FFFFFF800000001FFFFFF0
FFFFFF800000001FFFFFF0
FFFFFF800000001FFFFFF0
FFFFFF800000001FFFFFF0
FFFFFF800000001FFFFFF0
FFFFFF800000001FFFFFF0
FFFFFF800000001FFFFFF0
FFFFFF800000001FFFFFF0
FFFFFF800000001FFFFFF0
FFFFFF800000001FFFFFF0
FFFFFF800000001FFFFFF0
FFFFFF800000001FFFFFF0
FFFFFF800000001FFFFFF0
FFFFFF800000001FFFFFF0
FFFFFF800000001FFFFFF0
FFFFFF800000001FFFFFF0
FFFFFF800000001FFFFFF0
FFFFFF800000001FFFFFF0
FFFFFF800000001FFFFFF0
FFFFFF800000001FFFFFF0
FFFFFF800000001FFFFFF0
FFFFFF800000001FFFFFF0
FFFFFF800000001FFFFFF0
FFFFFF800000001FFFFFF0
FFFFFF800000001FFFFFF0
FFFFFF800000001FFFFFF0
FFFFFF800000001FFFFFF0
FFFFFF800000001FFFFFF0
FFFFFF800000001FFFFFF0
FFFFFF800000001FFFFFF0
FFFFFF800000001FFFFFF0
FFFFFF800000001FFFFFF0
FFFFFF800000001FFFFFF0
FFFFFF800000001FFFFFF0
FFFFFFFFFFFFFFFFFFFFF0
FFFFFFFFFFFFFFFFFFFFF0
FFFFFFFFFFFFFFFFFFFFF0
FFFFFFFFFFFFFFFFFFFFF0
FFFFFFFFFFFFFFFFFFFFF0
FFFFFFFFFFFFFFFFFFFFF0
FFFFFFFFFFFFFFFFFFFFF0
FFFFFFFFFFFFFFFFFFFFF0
FFFFFFFFFFFFFFFFFFFFF0
7FFFFFFFFFFFFFFFFFFFF0
3FFFFFFFFFFFFFFFFFFFE0
1FFFFFFFFFFFFFFFFFFFC0
0FFFFFFFFFFFFFFFFFFF80
07FFFFFFFFFFFFFFFFFF00
03FFFFFFFFFFFFFFFFFE00
01FFFFFFFFFFFFFFFFFC00
00FFFFFFFFFFFFFFFFFC00
007FFFFFFFFFFFFFFFF800
003FFFFFFFFFFFFFFFF000
001FFFFFFFFFFFFFFFE000
0007FFFFFFFFFFFFFFC000
0003FFFFFFFFFFFFFF8000
0001FFFFFFFFFFFFFF0000
0000FFFFFFFFFFFFFE0000
00007FFFFFFFFFFFFC0000
ENDCHAR
STARTCHAR 0048
ENCODING 72
SWIDTH 650 0
DWIDTH 117 0
BBX 107 156 5 -24
BITMAP
FFFFFFFFFFFF803FFFFFFFFFFFE0
FFFFFFFFFFFF803FFFFFFFFFFFE0
FFFFFFFFFFFF803FFFFFFFFFFFE0
FFFFFFFFFFFF803FFFFFFFFFFFE0
FFFFFFFFFFFF803FFFFFFFFFFFE0
FFFFFFFFFFFF803FFFFFFFFFFFE0
FFFFFFFFFFFF803FFFFFFFFFFFE0
FFFFFFFFFFFF803FFFFFFFFFFFE0
FFFFFFFFFFFF803FFFFFFFFFFFE0
FFFFFFFFFFFF803FFFFFFFFFFFE0
FFFFFFFFFFFF803FFFFFFFFFFFE0
FFFFFFFFFFFF803FFFFFFFFFFFE0
FFFFFFFFFFFF803FFFFFFFFFFFE0
FFFFFFFFFFFF803FFFFFFFFFFFE0
FFFFFFFFFFFF803FFFFFFFFFFFE0
FFFFFFFFFFFF803FFFFFFFFFFFE0
FFFFFFFFFFFF803FFFFFFFFFFFE0
FFFFFFFFFFFF803FFFFFFFFFFFE0
FFFFFFFFFFFF803FFFFFFFFFFFE0
FFFFFFFFFFFF803FFFFFFFFFFFE0
FFFFFFFFFFFF803FFFFFFFFFFFE0
FFFFFFFFFFFF803FFFFFFFFFFFE0
FFFFFFFFFFFF803FFFFFFFFFFFE0
FFFFFFFFFFFF803FFFFFFFFFFFE0
FFFFFFFFFFFF803FFFFFFFFFFFE0
000FFFFFF800000003FFFFFE0000
000FFFFFF800000003FFFFFE0000
000FFFFFF800000003FFFFFE0000
000FFFFFF800000003FFFFFE0000
000FFFFFF800000003FFFFFE0000
000FFFFFF800000003FFFFFE0000
000FFFFFF800000003FFFFFE0000
000FFFFFF800000003FFFFFE0000
000FFFFFF800000003FFFFFE0000
000FFFFFF800000003FFFFFE0000
000FFFFFF800000003FFFFFE0000
000FFFFFF800000003FFFFFE0000
000FFFFFF800000003FFFFFE0000
000FFFFFF800000003FFFFFE0000
000FFFFFF800000003FFFFFE0000
000FFFFFF800000003FFFFFE0000
000FFFFFF800000003FFFFFE0000
000FFFFFF800000003FFFFFE0000
000FFFFFF800000003FFFFFE0000
000FFFFFF800000003FFFFFE0000
000FFFFFF800000003FFFFFE0000
000FFFFFF800000003FFFFFE0000
000FFFFFF800000003FFFFFE0000
000FFFFFF800000003FFFFFE0000
000FFFFFF800000003FFFFFE0000
000FFFFFF800000003FFFFFE0000
000FFFFFF800000003FFFFFE0000
000FFFFFF800000003FFFFFE0000
000FFFFFF800000003FFFFFE0000
000FFFFFF800000003FFFFFE0000
000FFFFFF800000003FFFFFE0000
000FFFFFF800000003FFFFFE0000
000FFFFFF800000003FFFFFE0000
000FFFFFF800000003FFFFFE0000
000FFFFFF800000003FFFFFE0000
000FFFFFF800000003FFFFFE0000
000FFFFFF800000003FFFFFE0000
000FFFFFF800000003FFFFFE0000
000FFFFFF800000003FFFFFE0000
000FFFFFFFFFFFFFFFFFFFFE0000
000FFFFFFFFFFFFFFFFFFFFE0000
000FFFFFFFFFFFFFFFFFFFFE0000
000FFFFFFFFFFFFFFFFFFFFE0000
000FFFFFFFFFFFFFFFFFFFFE0000
000FFFFFFFFFFFFFFFFFFFFE0000
000FFFFFFFFFFFFFFFFFFFFE0000
000FFFFFFFFFFFFFFFFFFFFE0000
000FFFFFFFFFFFFFFFFFFFFE0000
000FFFFFFFFFFFFFFFFFFFFE0000
000FFFFFFFFFFFFFFFFFFFFE0000
000FFFFFFFFFFFFFFFFFFFFE0000
000FFFFFFFFFFFFFFFFFFFFE0000
000FFFFFFFFFFFFFFFFFFFFE0000
000FFFFFFFFFFFFFFFFFFFFE0000
000FFFFFFFFFFFFFFFFFFFFE0000
000FFFFFFFFFFFFFFFFFFFFE0000
000FFFFFFFFFFFFFFFFFFFFE0000
000FFFFFFFFFFFFFFFFFFFFE0000
000FFFFFFFFFFFFFFFFFFFFE0000
000FFFFFFFFFFFFFFFFFFFFE0000
000FFFFFFFFFFFFFFFFFFFFE0000
000FFFFFFFFFFFFFFFFFFFFE0000
000FFFFFFFFFFFFFFFFFFFFE0000
000FFFFFFFFFFFFFFFFFFFFE0000
000FFFFFF800000003FFFFFE0000
000FFFFFF800000003FFFFFE0000
000FFFFFF800000003FFFFFE0000
000FFFFFF800000003FFFFFE0000
000FFFFFF800000003FFFFFE0000
000FFFFFF800000003FFFFFE0000
000FFFFFF800000003FFFFFE0000
000FFFFFF800000003FFFFFE0000
000FFFFFF800000003FFFFFE0000
000FFFFFF800000003FFFFFE0000
000FFFFFF800000003FFFFFE0000
000FFFFFF800000003FFFFFE0000
000FFFFFF800000003FFFFFE0000
000FFFFFF800000003FFFFFE0000
000FFFFFF800000003FFFFFE0000
000FFFFFF800000003FFFFFE0000
000FFFFFF800000003FFFFFE0000
000FFFFFF800000003FFFFFE0000
000FFFFFF800000003FFFFFE0000
000FFFFFF800000003FFFFFE0000
000FFFFFF800000003FFFFFE0000
000FFFFFF800000003FFFFFE0000
000FFFFFF800000003FFFFFE0000
000FFFFFF800000003FFFFFE0000
000FFFFFF800000003FFFFFE0000
000FFFFFF800000003FFFFFE0000
000FFFFFF800000003FFFFFE0000
000FFFFFF800000003FFFFFE0000
000FFFFFF800000003FFFFFE0000
000FFFFFF800000003FFFFFE0000
000FFFFFF800000003FFFFFE0000
000FFFFFF800000003FFFFFE0000
000FFFFFF800000003FFFFFE0000
000FFFFFF800000003FFFFFE0000
000FFFFFF800000003FFFFFE0000
000FFFFFF800000003FFFFFE0000
000FFFFFF800000003FFFFFE0000
000FFFFFF800000003FFFFFE0000
000FFFFFF800000003FFFFFE0000
000FFFFFF800000003FFFFFE0000
000FFFFFF800000003FFFFFE0000
000FFFFFF800000003FFFFFE0000
FFFFFFFFFFFF803FFFFFFFFFFFE0
FFFFFFFFFFFF803FFFFFFFFFFFE0
FFFFFFFFFFFF803FFFFFFFFFFFE0
FFFFFFFFFFFF803FFFFFFFFFFFE0
FFFFFFFFFFFF803FFFFFFFFFFFE0
FFFFFFFFFFFF803FFFFFFFFFFFE0
FFFFFFFFFFFF803FFFFFFFFFFFE0
FFFFFFFFFFFF803FFFFFFFFFFFE0
FFFFFFFFFFFF803FFFFFFFFFFFE0
FFFFFFFFFFFF803FFFFFFFFFFFE0
FFFFFFFFFFFF803FFFFFFFFFFFE0
FFFFFFFFFFFF803FFFFFFFFFFFE0
FFFFFFFFFFFF803FFFFFFFFFFFE0
FFFFFFFFFFFF803FFFFFFFFFFFE0
FFFFFFFFFFFF803FFFFFFFFFFFE0
FFFFFFFFFFFF803FFFFFFFFFFFE0
FFFFFFFFFFFF803FFFFFFFFFFFE0
FFFFFFFFFFFF803FFFFFFFFFFFE0
FFFFFFFFFFFF803FFFFFFFFFFFE0
FFFFFFFFFFFF803FFFFFFFFFFFE0
FFFFFFFFFFFF803FFFFFFFFFFFE0
FFFFFFFFFFFF803FFFFFFFFFFFE0
FFFFFFFFFFFF803FFFFFFFFFFFE0
FFFFFFFFFFFF803FFFFFFFFFFFE0
FFFFFFFFFFFF803FFFFFFFFFFFE0
ENDCHAR
STARTCHAR 0049
ENCODING 73
SWIDTH 333 0
DWIDTH 60 0
BBX 49 156 5 -24
BITMAP
FFFFFFFFFFFF80
FFFFFFFFFFFF80
FFFFFFFFFFFF80
FFFFFFFFFFFF80
FFFFFFFFFFFF80
FFFFFFFFFFFF80
FFFFFFFFFFFF80
FFFFFFFFFFFF80
FFFFFFFFFFFF80
FFFFFFFFFFFF80
FFFFFFFFFFFF80
FFFFFFFFFFFF80
FFFFFFFFFFFF80
FFFFFFFFFFFF80
FFFFFFFFFFFF80
FFFFFFFFFFFF80
FFFFFFFFFFFF80
FFFFFFFFFFFF80
FFFFFFFFFFFF80
FFFFFFFFFFFF80
FFFFFFFFFFFF80
FFFFFFFFFFFF80
FFFFFFFFFFFF80
FFFFFFFFFFFF80
FFFFFFFFFFFF80
000FFFFFF80000
000FFFFFF80000
000FFFFFF80000
000FFFFFF80000
000FFFFFF80000
000FFFFFF80000
000FFFFFF80000
000FFFFFF80000
000FFFFFF80000
000FFFFFF80000
000FFFFFF80000
000FFFFFF80000
000FFFFFF80000
000FFFFFF80000
000FFFFFF80000
000FFFFFF80000
000FFFFFF80000
000FFFFFF80000
000FFFFFF80000
000FFFFFF80000
000FFFFFF80000
000FFFFFF80000
000FFFFFF80000
000FFFFFF80000
000FFFFFF80000
000FFFFFF80000
000FFFFFF80000
000FFFFFF80000
000FFFFFF80000
000FFFFFF80000
000FFFFFF80000
000FFFFFF80000
000FFFFFF80000
000FFFFFF80000
000FFFFFF80000
000FFFFFF80000
000FFFFFF80000
000FFFFFF80000
000FFFFFF80000
000FFFFFF80000
000FFFFFF80000
000FFFFFF80000
000FFFFFF80000
000FFFFFF80000
000FFFFFF80000
000FFFFFF80000
000FFFFFF80000
000FFFFFF80000
000FFFFFF80000
000FFFFFF80000
000FFFFFF80000
000FFFFFF80000
000FFFFFF80000
000FFFFFF80000
000FFFFFF80000
000FFFFFF80000
000FFFFFF80000
000FFFFFF80000
000FFFFFF80000
000FFFFFF80000
000FFFFFF80000
000FFFFFF80000
000FFFFFF80000
000FFFFFF80000
000FFFFFF80000
000FFFFFF80000
000FFFFFF80000
000FFFFFF80000
000FFFFFF80000
000FFFFFF80000
000FFFFFF80000
000FFFFFF80000
000FFFFFF80000
000FFFFFF80000
000FFFFFF80000
000FFFFFF80000
000FFFFFF80000
000FFFFFF80000
000FFFFFF80000
000FFFFFF80000
000FFFFFF80000
000FFFFFF80000
000FFFFFF80000
000FFFFFF80000
000FFFFFF80000
000FFFFFF80000
000FFFFFF80000
000FFFFFF80000
000FFFFFF80000
000FFFFFF80000
000FFFFFF80000
000FFFFFF80000
000FFFFFF80000
000FFFFFF80000
000FFFFFF80000
000FFFFFF80000
000FFFFFF80000
000FFFFFF80000
000FFFFFF80000
000FFFFFF80000
000FFFFFF80000
000FFFFFF80000
000FFFFFF80000
000FFFFFF80000
000FFFFFF80000
000FFFFFF80000
FFFFFFFFFFFF80
FFFFFFFFFFFF80
FFFFFFFFFFFF80
FFFFFFFFFFFF80
FFFFFFFFFFFF80
FFFFFFFFFFFF80
FFFFFFFFFFFF80
FFFFFFFFFFFF80
FFFFFFFFFFFF80
FFFFFFFFFFFF80
FFFFFFFFFFFF80
FFFFFFFFFFFF80
FFFFFFFFFFFF80
FFFFFFFFFFFF80
FFFFFFFFFFFF80
FFFFFFFFFFFF80
FFFFFFFFFFFF80
FFFFFFFFFFFF80
FFFFFFFFFFFF80
FFFFFFFFFFFF80
FFFFFFFFFFFF80
FFFFFFFFFFFF80
FFFFFFFFFFFF80
FFFFFFFFFFFF80
FFFFFFFFFFFF80
ENDCHAR
STARTCHAR 004A
ENCODING 74
SWIDTH 638 0
DWIDTH 115 0
BBX 105 156 5 -24
BITMAP
00000000000000FFFFFFFFFFFF80
00000000000000FFFFFFFFFFFF80
00000000000000FFFFFFFFFFFF80
00000000000000FFFFFFFFFFFF80
00000000000000FFFFFFFFFFFF80
00000000000000FFFFFFFFFFFF80
00000000000000FFFFFFFFFFFF80
00000000000000FFFFFFFFFFFF80
00000000000000FFFFFFFFFFFF80
00000000000000FFFFFFFFFFFF80
00000000000000FFFFFFFFFFFF80
00000000000000FFFFFFFFFFFF80
00000000000000FFFFFFFFFFFF80
00000000000000FFFFFFFFFFFF80
00000000000000FFFFFFFFFFFF80
00000000000000FFFFFFFFFFFF80
00000000000000FFFFFFFFFFFF80
00000000000000FFFFFFFFFFFF80
00000000000000FFFFFFFFFFFF80
00000000000000FFFFFFFFFFFF80
00000000000000FFFFFFFFFFFF80
00000000000000FFFFFFFFFFFF80
00000000000000FFFFFFFFFFFF80
00000000000000FFFFFFFFFFFF80
00000000000000FFFFFFFFFFFF80
00000000000000000FFFFFF80000
00000000000000000FFFFFF80000
00000000000000000FFFFFF80000
00000000000000000FFFFFF80000
00000000000000000FFFFFF80000
00000000000000000FFFFFF80000
00000000000000000FFFFFF80000
00000000000000000FFFFFF80000
00000000000000000FFFFFF80000
00000000000000000FFFFFF80000
00000000000000000FFFFFF80000
00000000000000000FFFFFF80000
00000000000000000FFFFFF80000
00000000000000000FFFFFF80000
00000000000000000FFFFFF80000
00000000000000000FFFFFF80000
00000000000000000FFFFFF80000
00000000000000000FFFFFF80000
00000000000000000FFFFFF80000
00000000000000000FFFFFF80000
00000000000000000FFFFFF80000
00000000000000000FFFFFF80000
00000000000000000FFFFFF80000
00000000000000000FFFFFF80000
00000000000000000FFFFFF80000
00000000000000000FFFFFF80000
00000000000000000FFFFFF80000
00000000000000000FFFFFF80000
00000000000000000FFFFFF80000
00000000000000000FFFFFF80000
00000000000000000FFFFFF80000
00000000000000000FFFFFF80000
00000000000000000FFFFFF80000
00000000000000000FFFFFF80000
00000000000000000FFFFFF80000
00000000000000000FFFFFF80000
00000000000000000FFFFFF80000
00000000000000000FFFFFF80000
00000000000000000FFFFFF80000
00000000000000000FFFFFF80000
00000000000000000FFFFFF80000
00000000000000000FFFFFF80000
00000000000000000FFFFFF80000
00000000000000000FFFFFF80000
00000000000000000FFFFFF80000
00000000000000000FFFFFF80000
00000000000000000FFFFFF80000
00000000000000000FFFFFF80000
00000000000000000FFFFFF80000
00000000000000000FFFFFF80000
00000000000000000FFFFFF80000
00000000000000000FFFFFF80000
00000000000000000FFFFFF80000
00000000000000000FFFFFF80000
00000000000000000FFFFFF80000
00000000000000000FFFFFF80000
00000000000000000FFFFFF80000
00000000000000000FFFFFF80000
00000000000000000FFFFFF80000
00000000000000000FFFFFF80000
00000000000000000FFFFFF80000
FFFFFFFFFFFF80000FFFFFF80000
FFFFFFFFFFFF80000FFFFFF80000
FFFFFFFFFFFF80000FFFFFF80000
FFFFFFFFFFFF80000FFFFFF80000
FFFFFFFFFFFF80000FFFFFF80000
FFFFFFFFFFFF80000FFFFFF80000
FFFFFFFFFFFF80000FFFFFF80000
FFFFFFFFFFFF80000FFFFFF80000
FFFFFFFFFFFF80000FFFFFF80000
FFFFFFFFFFFF80000FFFFFF80000
FFFFFFFFFFFF80000FFFFFF80000
FFFFFFFFFFFF80000FFFFFF80000
FFFFFFFFFFFF80000FFFFFF80000
FFFFFFFFFFFF80000FFFFFF80000
FFFFFFFFFFFF80000FFFFFF80000
FFFFFFFFFFFF80000FFFFFF80000
FFFFFFFFFFFF80000FFFFFF80000
FFFFFFFFFFFF80000FFFFFF80000
FFFFFFFFFFFF80000FFFFFF80000
FFFFFFFFFFFF80000FFFFFF80000
FFFFFFFFFFFF80000FFFFFF80000
FFFFFFFFFFFF80000FFFFFF80000
FFFFFFFFFFFF80000FFFFFF80000
FFFFFFFFFFFF80000FFFFFF80000
FFFFFFFFFFFF80000FFFFFF80000
000FFFFFF80000000FFFFFF80000
000FFFFFF80000000FFFFFF80000
000FFFFFF80000000FFFFFF80000
000FFFFFF80000000FFFFFF80000
000FFFFFF80000000FFFFFF80000
000FFFFFF80000000FFFFFF80000
000FFFFFF80000000FFFFFF80000
000FFFFFF80000000FFFFFF80000
000FFFFFF80000000FFFFFF80000
000FFFFFF80000000FFFFFF80000
000FFFFFF80000000FFFFFF80000
000FFFFFF80000000FFFFFF80000
000FFFFFF80000000FFFFFF80000
000FFFFFF80000000FFFFFF80000
000FFFFFF80000000FFFFFF80000
000FFFFFF80000000FFFFFF80000
000FFFFFF80000000FFFFFF80000
000FFFFFF80000000FFFFFF80000
000FFFFFF80000000FFFFFF80000
000FFFFFF80000000FFFFFF80000
000FFFFFFFFFFFFFFFFFFFF80000
000FFFFFFFFFFFFFFFFFFFF80000
000FFFFFFFFFFFFFFFFFFFF80000
000FFFFFFFFFFFFFFFFFFFF80000
000FFFFFFFFFFFFFFFFFFFF80000
000FFFFFFFFFFFFFFFFFFFF80000
000FFFFFFFFFFFFFFFFFFFF80000
000FFFFFFFFFFFFFFFFFFFF80000
000FFFFFFFFFFFFFFFFFFFF80000
0007FFFFFFFFFFFFFFFFFFF80000
0003FFFFFFFFFFFFFFFFFFF80000
0001FFFFFFFFFFFFFFFFFFF80000
0000FFFFFFFFFFFFFFFFFFF00000
00007FFFFFFFFFFFFFFFFFC00000
00003FFFFFFFFFFFFFFFFF800000
00001FFFFFFFFFFFFFFFFF000000
00000FFFFFFFFFFFFFFFFE000000
000007FFFFFFFFFFFFFFFC000000
000003FFFFFFFFFFFFFFF8000000
000001FFFFFFFFFFFFFFF0000000
000000FFFFFFFFFFFFFFE0000000
0000007FFFFFFFFFFFFFC0000000
0000003FFFFFFFFFFFFF80000000
0000001FFFFFFFFFFFFF00000000
0000000FFFFFFFFFFFFE00000000
ENDCHAR
STARTCHAR 004B
ENCODING 75
SWIDTH 772 0
DWIDTH 139 0
BBX 128 156 5 -24
BITMAP
FFFFFFFFFFFF80000FFFFFFFFFFFFFC0
FFFFFFFFFFFF80000FFFFFFFFFFFFFC0
FFFFFFFFFFFF80000FFFFFFFFFFFFFC0
FFFFFFFFFFFF80000FFFFFFFFFFFFFC0
FFFFFFFFFFFF80000FFFFFFFFFFFFFC0
FFFFFFFFFFFF80000FFFFFFFFFFFFFC0
FFFFFFFFFFFF80000FFFFFFFFFFFFFC0
FFFFFFFFFFFF80000FFFFFFFFFFFFFC0
FFFFFFFFFFFF80000FFFFFFFFFFFFFC0
FFFFFFFFFFFF80000FFFFFFFFFFFFFC0
FFFFFFFFFFFF80000FFFFFFFFFFFFFC0
FFFFFFFFFFFF80000FFFFFFFFFFFFFC0
FFFFFFFFFFFF80000FFFFFFFFFFFFFC0
FFFFFFFFFFFF80000FFFFFFFFFFFFFC0
FFFFFFFFFFFF80000FFFFFFFFFFFFFC0
FFFFFFFFFFFF80000FFFFFFFFFFFFFC0
FFFFFFFFFFFF80000FFFFFFFFFFFFFC0
FFFFFFFFFFFF80000FFFFFFFFFFFFFC0
FFFFFFFFFFFF80000FFFFFFFFFFFFFC0
FFFFFFFFFFFF80000FFFFFFFFFFFFFC0
FFFFFFFFFFFF80000FFFFFFFFFFFFFC0
FFFFFFFFFFFF80000FFFFFFFFFFFFFC0
FFFFFFFFFFFF80000FFFFFFFFFFFFFC0
FFFFFFFFFFFF80000FFFFFFFFFFFFFC0
FFFFFFFFFFFF80000FFFFFFFFFFFFFC0
000FFFFFF800000000007FFFFFFE0000
000FFFFFF80000000000FFFFFFFC0000
000FFFFFF80000000001FFFFFFFC0000
000FFFFFF80000000003FFFFFFF80000
000FFFFFF80000000007FFFFFFF00000
000FFFFFF80000000007FFFFFFE00000
000FFFFFF8000000000FFFFFFFC00000
000FFFFFF8000000001FFFFFFFC00000
000FFFFFF8000000003FFFFFFF800000
000FFFFFF8000000007FFFFFFF000000
000FFFFFF8000000007FFFFFFE000000
000FFFFFF800000000FFFFFFFC000000
000FFFFFF800000001FFFFFFF8000000
000FFFFFF800000003FFFFFFF8000000
000FFFFFF800000007FFFFFFF0000000
000FFFFFF800000007FFFFFFE0000000
000FFFFFF80000000FFFFFFFC0000000
000FFFFFF80000001FFFFFFF80000000
000FFFFFF80000003FFFFFFF80000000
000FFFFFF80000007FFFFFFF00000000
000FFFFFF8000000FFFFFFFE00000000
000FFFFFF8000000FFFFFFFC00000000
000FFFFFF8000001FFFFFFF800000000
000FFFFFF8000003FFFFFFF000000000
000FFFFFF8000007FFFFFFF000000000
000FFFFFF800000FFFFFFFE000000000
000FFFFFF800000FFFFFFFC000000000
000FFFFFF800001FFFFFFF8000000000
000FFFFFF800003FFFFFFF0000000000
000FFFFFF800007FFFFFFF0000000000
000FFFFFF80000FFFFFFFE0000000000
000FFFFFF80000FFFFFFFC0000000000
000FFFFFF80001FFFFFFF80000000000
000FFFFFF80003FFFFFFF00000000000
000FFFFFF80007FFFFFFF00000000000
000FFFFFF8000FFFFFFFE00000000000
000FFFFFF8000FFFFFFFC00000000000
000FFFFFF8001FFFFFFF800000000000
000FFFFFF8003FFFFFFF000000000000
000FFFFFF8007FFFFFFF000000000000
000FFFFFF800FFFFFFFF800000000000
000FFFFFF800FFFFFFFF800000000000
000FFFFFF801FFFFFFFFC00000000000
000FFFFFF803FFFFFFFFC00000000000
000FFFFFF807FFFFFFFFE00000000000
000FFFFFF80FFFFFFFFFE00000000000
000FFFFFF80FFFFFFFFFF00000000000
000FFFFFF81FFFFFFFFFF00000000000
000FFFFFF83FFFFFFFFFF80000000000
000FFFFFF87FFFFFFFFFFC0000000000
000FFFFFF8FFFFFFFFFFFC0000000000
000FFFFFF8FFFFFFFFFFFE0000000000
000FFFFFF9FFFFFFFFFFFE0000000000
000FFFFFFBFFFFFFFFFFFF0000000000
000FFFFFFFFFFFFFFFFFFF0000000000
000FFFFFFFFFFFFFFFFFFF8000000000
000FFFFFFFFFFFFFFFFFFF8000000000
000FFFFFFFFFFFFFFFFFFFC000000000
000FFFFFFFFFFFFFFFFFFFC000000000
000FFFFFFFFFFFFEFFFFFFE000000000
000FFFFFFFFFFFFC7FFFFFE000000000
000FFFFFFFFFFFF87FFFFFF000000000
000FFFFFFFFFFFF03FFFFFF000000000
000FFFFFFFFFFFF03FFFFFF800000000
000FFFFFFFFFFFE01FFFFFFC00000000
000FFFFFFFFFFFC01FFFFFFC00000000
000FFFFFFFFFFF800FFFFFFE00000000
000FFFFFFFFFFF000FFFFFFE00000000
000FFFFFFFFFFE0007FFFFFF00000000
000FFFFFFFFFFE0007FFFFFF00000000
000FFFFFFFFFFC0003FFFFFF80000000
000FFFFFFFFFF80003FFFFFF80000000
000FFFFFFFFFF00001FFFFFFC0000000
000FFFFFFFFFE00001FFFFFFC0000000
000FFFFFFFFFC00000FFFFFFE0000000
000FFFFFFFFFC000007FFFFFE0000000
000FFFFFFFFF8000007FFFFFF0000000
000FFFFFFFFF0000003FFFFFF0000000
000FFFFFFFFE0000003FFFFFF8000000
000FFFFFFFFC0000001FFFFFFC000000
000FFFFFFFFC0000001FFFFFFC000000
000FFFFFFFF80000000FFFFFFE000000
000FFFFFFFF00000000FFFFFFE000000
000FFFFFFFE000000007FFFFFF000000
000FFFFFFFC000000007FFFFFF000000
000FFFFFFF8000000003FFFFFF800000
000FFFFFFF8000000003FFFFFF800000
000FFFFFFF0000000001FFFFFFC00000
000FFFFFFE0000000001FFFFFFC00000
000FFFFFFC0000000000FFFFFFE00000
000FFFFFF800000000007FFFFFE00000
000FFFFFF800000000007FFFFFF00000
000FFFFFF800000000003FFFFFF00000
000FFFFFF800000000003FFFFFF80000
000FFFFFF800000000001FFFFFFC0000
000FFFFFF800000000001FFFFFFC0000
000FFFFFF800000000000FFFFFFE0000
000FFFFFF800000000000FFFFFFE0000
000FFFFFF8000000000007FFFFFF0000
000FFFFFF8000000000007FFFFFF0000
000FFFFFF8000000000003FFFFFF8000
000FFFFFF8000000000003FFFFFF8000
000FFFFFF8000000000001FFFFFFC000
000FFFFFF8000000000001FFFFFFC000
000FFFFFF8000000000000FFFFFFE000
000FFFFFF80000000000007FFFFFE000
FFFFFFFFFFFF80000007FFFFFFFFFFFF
FFFFFFFFFFFF80000007FFFFFFFFFFFF
FFFFFFFFFFFF80000007FFFFFFFFFFFF
FFFFFFFFFFFF80000007FFFFFFFFFFFF
FFFFFFFFFFFF80000007FFFFFFFFFFFF
FFFFFFFFFFFF80000007FFFFFFFFFFFF
FFFFFFFFFFFF80000007FFFFFFFFFFFF
FFFFFFFFFFFF80000007FFFFFFFFFFFF
FFFFFFFFFFFF80000007FFFFFFFFFFFF
FFFFFFFFFFFF80000007FFFFFFFFFFFF
FFFFFFFFFFFF80000007FFFFFFFFFFFF
FFFFFFFFFFFF80000007FFFFFFFFFFFF
FFFFFFFFFFFF80000007FFFFFFFFFFFF
FFFFFFFFFFFF80000007FFFFFFFFFFFF
FFFFFFFFFFFF80000007FFFFFFFFFFFF
FFFFFFFFFFFF80000007FFFFFFFFFFFF
FFFFFFFFFFFF80000007FFFFFFFFFFFF
FFFFFFFFFFFF80000007FFFFFFFFFFFF
FFFFFFFFFFFF80000007FFFFFFFFFFFF
FFFFFFFFFFFF80000007FFFFFFFFFFFF
FFFFFFFFFFFF80000007FFFFFFFFFFFF
FFFFFFFFFFFF80000007FFFFFFFFFFFF
FFFFFFFFFFFF80000007FFFFFFFFFFFF
FFFFFFFFFFFF80000007FFFFFFFFFFFF
FFFFFFFFFFFF80000007FFFFFFFFFFFF
ENDCHAR
STARTCHAR 004C
ENCODING 76
SWIDTH 588 0
DWIDTH 106 0
BBX 96 156 5 -24
BITMAP
FFFFFFFFFFFF800000000000
FFFFFFFFFFFF800000000000
FFFFFFFFFFFF800000000000
FFFFFFFFFFFF800000000000
FFFFFFFFFFFF800000000000
FFFFFFFFFFFF800000000000
FFFFFFFFFFFF800000000000
FFFFFFFFFFFF800000000000
FFFFFFFFFFFF800000000000
FFFFFFFFFFFF800000000000
FFFFFFFFFFFF800000000000
FFFFFFFFFFFF800000000000
FFFFFFFFFFFF800000000000
FFFFFFFFFFFF800000000000
FFFFFFFFFFFF800000000000
FFFFFFFFFFFF800000000000
FFFFFFFFFFFF800000000000
FFFFFFFFFFFF800000000000
FFFFFFFFFFFF800000000000
FFFFFFFFFFFF800000000000
FFFFFFFFFFFF800000000000
FFFFFFFFFFFF800000000000
FFFFFFFFFFFF800000000000
FFFFFFFFFFFF800000000000
FFFFFFFFFFFF800000000000
000FFFFFF800000000000000
000FFFFFF800000000000000
000FFFFFF800000000000000
000FFFFFF800000000000000
000FFFFFF800000000000000
000FFFFFF800000000000000
000FFFFFF800000000000000
000FFFFFF800000000000000
000FFFFFF800000000000000
000FFFFFF800000000000000
000FFFFFF800000000000000
000FFFFFF800000000000000
000FFFFFF800000000000000
000FFFFFF800000000000000
000FFFFFF800000000000000
000FFFFFF800000000000000
000FFFFFF800000000000000
000FFFFFF800000000000000
000FFFFFF800000000000000
000FFFFFF800000000000000
000FFFFFF800000000000000
000FFFFFF800000000000000
000FFFFFF800000000000000
000FFFFFF800000000000000
000FFFFFF800000000000000
000FFFFFF800000000000000
000FFFFFF800000000000000
000FFFFFF800000000000000
000FFFFFF800000000000000
000FFFFFF800000000000000
000FFFFFF800000000000000
000FFFFFF800000000000000
000FFFFFF800000000000000
000FFFFFF800000000000000
000FFFFFF800000000000000
000FFFFFF800000000000000
000FFFFFF800000000000000
000FFFFFF800000000000000
000FFFFFF800000000000000
000FFFFFF800000000000000
000FFFFFF800000000000000
000FFFFFF800000000000000
000FFFFFF800000000000000
000FFFFFF800000000000000
000FFFFFF800000000000000
000FFFFFF800000000000000
000FFFFFF800000000000000
000FFFFFF800000000000000
000FFFFFF800000000000000
000FFFFFF800000000000000
000FFFFFF800000000000000
000FFFFFF800000000000000
000FFFFFF800000000000000
000FFFFFF800000000000000
000FFFFFF800000000000000
000FFFFFF800000000000000
000FFFFFF800000000000000
000FFFFFF800000000000000
000FFFFFF800000000000000
000FFFFFF800000000000000
000FFFFFF800000000000000
000FFFFFF800000000000000
000FFFFFF800000000000000
000FFFFFF800000000000000
000FFFFFF800000000000000
000FFFFFF800000000000000
000FFFFFF800000000000000
000FFFFFF800000000000000
000FFFFFF800000000000000
000FFFFFF800000001FFFFFF
000FFFFFF800000001FFFFFF
000FFFFFF800000001FFFFFF
000FFFFFF800000001FFFFFF
000FFFFFF800000001FFFFFF
000FFFFFF800000001FFFFFF
000FFFFFF800000001FFFFFF
000FFFFFF800000001FFFFFF
000FFFFFF800000001FFFFFF
000FFFFFF800000001FFFFFF
000FFFFFF800000001FFFFFF
000FFFFFF800000001FFFFFF
000FFFFFF800000001FFFFFF
000FFFFFF800000001FFFFFF
000FFFFFF800000001FFFFFF
000FFFFFF800000001FFFFFF
000FFFFFF800000001FFFFFF
000FFFFFF800000001FFFFFF
000FFFFFF800000001FFFFFF
000FFFFFF800000001FFFFFF
000FFFFFF800000001FFFFFF
000FFFFFF800000001FFFFFF
000FFFFFF800000001FFFFFF
000FFFFFF800000001FFFFFF
000FFFFFF800000001FFFFFF
000FFFFFF800000001FFFFFF
000FFFFFF800000001FFFFFF
000FFFFFF800000001FFFFFF
000FFFFFF800000001FFFFFF
000FFFFFF800000001FFFFFF
000FFFFFF800000001FFFFFF
000FFFFFF800000001FFFFFF
000FFFFFF800000001FFFFFF
000FFFFFF800000001FFFFFF
000FFFFFF800000001FFFFFF
000FFFFFF800000001FFFFFF
000FFFFFF800000001FFFFFF
FFFFFFFFFFFFFFFFFFFFFFFF
FFFFFFFFFFFFFFFFFFFFFFFF
FFFFFFFFFFFFFFFFFFFFFFFF
FFFFFFFFFFFFFFFFFFFFFFFF
FFFFFFFFFFFFFFFFFFFFFFFF
FFFFFFFFFFFFFFFFFFFFFFFF
FFFFFFFFFFFFFFFFFFFFFFFF
FFFFFFFFFFFFFFFFFFFFFFFF
FFFFFFFFFFFFFFFFFFFFFFFF
FFFFFFFFFFFFFFFFFFFFFFFF
FFFFFFFFFFFFFFFFFFFFFFFF
FFFFFFFFFFFFFFFFFFFFFFFF
FFFFFFFFFFFFFFFFFFFFFFFF
FFFFFFFFFFFFFFFFFFFFFFFF
FFFFFFFFFFFFFFFFFFFFFFFF
FFFFFFFFFFFFFFFFFFFFFFFF
FFFFFFFFFFFFFFFFFFFFFFFF
FFFFFFFFFFFFFFFFFFFFFFFF
FFFFFFFFFFFFFFFFFFFFFFFF
FFFFFFFFFFFFFFFFFFFFFFFF
FFFFFFFFFFFFFFFFFFFFFFFF
FFFFFFFFFFFFFFFFFFFFFFFF
FFFFFFFFFFFFFFFFFFFFFFFF
FFFFFFFFFFFFFFFFFFFFFFFF
FFFFFFFFFFFFFFFFFFFFFFFF
ENDCHAR
STARTCHAR 004D
ENCODING 77
SWIDTH 883 0
DWIDTH 159 0
BBX 149 157 5 -26
BITMAP
FFFFFFFFC00000000000000000007FFFFFFFF8
FFFFFFFFE00000000000000000007FFFFFFFF8
FFFFFFFFE00000000000000000007FFFFFFFF8
FFFFFFFFE0000000000000000000FFFFFFFFF8
FFFFFFFFF0000000000000000000FFFFFFFFF8
FFFFFFFFF0000000000000000000FFFFFFFFF8
FFFFFFFFF8000000000000000001FFFFFFFFF8
FFFFFFFFF8000000000000000001FFFFFFFFF8
FFFFFFFFFC000000000000000003FFFFFFFFF8
FFFFFFFFFC000000000000000003FFFFFFFFF8
FFFFFFFFFC000000000000000003FFFFFFFFF8
FFFFFFFFFE000000000000000007FFFFFFFFF8
FFFFFFFFFE000000000000000007FFFFFFFFF8
FFFFFFFFFF00000000000000000FFFFFFFFFF8
FFFFFFFFFF00000000000000000FFFFFFFFFF8
FFFFFFFFFF80000000000000000FFFFFFFFFF8
FFFFFFFFFF80000000000000001FFFFFFFFFF8
FFFFFFFFFF80000000000000001FFFFFFFFFF8
FFFFFFFFFFC0000000000000003FFFFFFFFFF8
FFFFFFFFFFC0000000000000003FFFFFFFFFF8
FFFFFFFFFFE0000000000000003FFFFFFFFFF8
FFFFFFFFFFE0000000000000007FFFFFFFFFF8
FFFFFFFFFFF0000000000000007FFFFFFFFFF8
FFFFFFFFFFF000000000000000FFFFFFFFFFF8
FFFFFFFFFFF000000000000000FFFFFFFFFFF8
000FFFFFFFF800000000000000FFFFFFFF8000
000FFFFFFFF800000000000001FFFFFFFF8000
000FFFFFFFFC00000000000001FFFFFFFF8000
000FFFFFFFFC00000000000003FFFFFFFF8000
000FFFFFFFFE00000000000003FFFFFFFF8000
000FFFFFFFFE00000000000003FFFFFFFF8000
000FFFFFFFFE00000000000007FFFFFFFF8000
000FFFFFFFFF00000000000007FFFFFFFF8000
000FFFFFFFFF0000000000000FFFFFFFFF8000
000FFFFFFFFF8000000000000FFFFFFFFF8000
000FFFFFFFFF8000000000000FFFFFFFFF8000
000FFFFFFFFFC000000000001FFFFFFFFF8000
000FFFFFFFFFC000000000001FFFFFFFFF8000
000FFFFFFFFFC000000000003FFFFFFFFF8000
000FFFFFFFFFE000000000003FFFFFFFFF8000
000FFFFFFFFFE000000000003FFFFFFFFF8000
000FFFFFFFFFF000000000007FFFFFFFFF8000
000FFFFFFFFFF000000000007FFFFFFFFF8000
000FFFFFFFFFF80000000000FFFFFFFFFF8000
000FFFFFFFFFF80000000000FFFFFFFFFF8000
000FFFFFFFFFFC0000000000FFFFFFFFFF8000
000FFFFFFFFFFC0000000001FFFFFFFFFF8000
000FFFFFFFFFFC0000000001FFFFFFFFFF8000
000FFFFFFFFFFE0000000003FFFFFFFFFF8000
000FFFFFFFFFFE0000000003FFFFFFFFFF8000
000FFFFFFFFFFF0000000003FFFFFFFFFF8000
000FFFFFFFFFFF0000000007FFFFFFFFFF8000
000FFFFFFFFFFF8000000007FFFFFFFFFF8000
000FFFFFFFFFFF800000000FFFFFFFFFFF8000
000FFFFFFFFFFF800000000FFFFFFFFFFF8000
000FFFFFFFFFFFC00000000FFFFFFFFFFF8000
000FFFFFFFFFFFC00000001FFFFFFFFFFF8000
000FFFFFFFFFFFE00000001FFFFFFFFFFF8000
000FFFFFFFFFFFE00000003FFFFFFFFFFF8000
000FFFFFFFFFFFF00000003FFFFFFFFFFF8000
000FFFFFFFFFFFF00000003FFFFFFFFFFF8000
000FFFFFFFFFFFF00000007FFFFFFFFFFF8000
000FFFFFFFFFFFF80000007FFFFFFFFFFF8000
000FFFFFFFFFFFF8000000FFFFFFFFFFFF8000
000FFFFFFFFFFFFC000000FFFFFFFFFFFF8000
000FFFFFFFFFFFFC000000FFFFFFFFFFFF8000
000FFFFFFFFFFFFE000001FFFFFFFFFFFF8000
000FFFFFFFFFFFFE000001FFFFFFFFFFFF8000
000FFFFFFFFFFFFE000003FFFFFFFFFFFF8000
000FFFFFFBFFFFFF000003FFFFFEFFFFFF8000
000FFFFFFBFFFFFF000003FFFFFEFFFFFF8000
000FFFFFF9FFFFFF800007FFFFFCFFFFFF8000
000FFFFFF9FFFFFF800007FFFFFCFFFFFF8000
000FFFFFF9FFFFFFC0000FFFFFFCFFFFFF8000
000FFFFFF8FFFFFFC0000FFFFFF8FFFFFF8000
000FFFFFF8FFFFFFC0000FFFFFF8FFFFFF8000
000FFFFFF87FFFFFE0001FFFFFF0FFFFFF8000
000FFFFFF87FFFFFE0001FFFFFF0FFFFFF8000
000FFFFFF83FFFFFF0003FFFFFF0FFFFFF8000
000FFFFFF83FFFFFF0003FFFFFE0FFFFFF8000
000FFFFFF83FFFFFF8003FFFFFE0FFFFFF8000
000FFFFFF81FFFFFF8007FFFFFC0FFFFFF8000
000FFFFFF81FFFFFF8007FFFFFC0FFFFFF8000
000FFFFFF80FFFFFFC00FFFFFF80FFFFFF8000
000FFFFFF80FFFFFFC00FFFFFF80FFFFFF8000
000FFFFFF80FFFFFFE00FFFFFF80FFFFFF8000
000FFFFFF807FFFFFE01FFFFFF00FFFFFF8000
000FFFFFF807FFFFFF01FFFFFF00FFFFFF8000
000FFFFFF803FFFFFF01FFFFFE00FFFFFF8000
000FFFFFF803FFFFFF03FFFFFE00FFFFFF8000
000FFFFFF801FFFFFF83FFFFFE00FFFFFF8000
000FFFFFF801FFFFFF87FFFFFC00FFFFFF8000
000FFFFFF801FFFFFFC7FFFFFC00FFFFFF8000
000FFFFFF800FFFFFFC7FFFFF800FFFFFF8000
000FFFFFF800FFFFFFEFFFFFF800FFFFFF8000
000FFFFFF8007FFFFFEFFFFFF800FFFFFF8000
000FFFFFF8007FFFFFFFFFFFF000FFFFFF8000
000FFFFFF8003FFFFFFFFFFFF000FFFFFF8000
000FFFFFF8003FFFFFFFFFFFE000FFFFFF8000
000FFFFFF8003FFFFFFFFFFFE000FFFFFF8000
000FFFFFF8001FFFFFFFFFFFC000FFFFFF8000
000FFFFFF8001FFFFFFFFFFFC000FFFFFF8000
000FFFFFF8000FFFFFFFFFFFC000FFFFFF8000
000FFFFFF8000FFFFFFFFFFF8000FFFFFF8000
000FFFFFF8000FFFFFFFFFFF8000FFFFFF8000
000FFFFFF80007FFFFFFFFFF0000FFFFFF8000
000FFFFFF80007FFFFFFFFFF0000FFFFFF8000
000FFFFFF80003FFFFFFFFFF0000FFFFFF8000
000FFFFFF80003FFFFFFFFFE0000FFFFFF8000
000FFFFFF80001FFFFFFFFFE0000FFFFFF8000
000FFFFFF80001FFFFFFFFFC0000FFFFFF8000
000FFFFFF80001FFFFFFFFFC0000FFFFFF8000
000FFFFFF80000FFFFFFFFF80000FFFFFF8000
000FFFFFF80000FFFFFFFFF80000FFFFFF8000
000FFFFFF800007FFFFFFFF80000FFFFFF8000
000FFFFFF800007FFFFFFFF00000FFFFFF8000
000FFFFFF800003FFFFFFFF00000FFFFFF8000
000FFFFFF800003FFFFFFFE00000FFFFFF8000
000FFFFFF800003FFFFFFFE00000FFFFFF8000
000FFFFFF800001FFFFFFFE00000FFFFFF8000
000FFFFFF800001FFFFFFFC00000FFFFFF8000
000FFFFFF800000FFFFFFFC00000FFFFFF8000
000FFFFFF800000FFFFFFF800000FFFFFF8000
000FFFFFF800000FFFFFFF800000FFFFFF8000
000FFFFFF8000007FFFFFF800000FFFFFF8000
000FFFFFF8000007FFFFFF000000FFFFFF8000
000FFFFFF8000003FFFFFF000000FFFFFF8000
000FFFFFF8000003FFFFFE000000FFFFFF8000
000FFFFFF8000001FFFFFE000000FFFFFF8000
000FFFFFF8000001FFFFFC000000FFFFFF8000
000FFFFFF8000001FFFFFC000000FFFFFF8000
FFFFFFFFFFFF8000FFFFFC000FFFFFFFFFFFF8
FFFFFFFFFFFF8000FFFFF8000FFFFFFFFFFFF8
FFFFFFFFFFFF80007FFFF8000FFFFFFFFFFFF8
FFFFFFFFFFFF80007FFFF0000FFFFFFFFFFFF8
FFFFFFFFFFFF80003FFFF0000FFFFFFFFFFFF8
FFFFFFFFFFFF80003FFFF0000FFFFFFFFFFFF8
FFFFFFFFFFFF80003FFFE0000FFFFFFFFFFFF8
FFFFFFFFFFFF80001FFFE0000FFFFFFFFFFFF8
FFFFFFFFFFFF80001FFFC0000FFFFFFFFFFFF8
FFFFFFFFFFFF80000FFFC0000FFFFFFFFFFFF8
FFFFFFFFFFFF80000FFFC0000FFFFFFFFFFFF8
FFFFFFFFFFFF80000FFF80000FFFFFFFFFFFF8
FFFFFFFFFFFF800007FF80000FFFFFFFFFFFF8
FFFFFFFFFFFF800007FF00000FFFFFFFFFFFF8
FFFFFFFFFFFF800003FF00000FFFFFFFFFFFF8
FFFFFFFFFFFF800003FE00000FFFFFFFFFFFF8
FFFFFFFFFFFF800001FE00000FFFFFFFFFFFF8
FFFFFFFFFFFF800001FE00000FFFFFFFFFFFF8
FFFFFFFFFFFF800001FC00000FFFFFFFFFFFF8
FFFFFFFFFFFF800000FC00000FFFFFFFFFFFF8
FFFFFFFFFFFF800000F800000FFFFFFFFFFFF8
FFFFFFFFFFFF8000007800000FFFFFFFFFFFF8
FFFFFFFFFFFF8000007800000FFFFFFFFFFFF8
FFFFFFFFFFFF8000003000000FFFFFFFFFFFF8
FFFFFFFFFFFF8000003000000FFFFFFFFFFFF8
00000000000000000020000000000000000000
ENDCHAR
STARTCHAR 004E
ENCODING 78
SWIDTH 666 0
DWIDTH 120 0
BBX 110 156 5 -24
BITMAP
FFFFFFFFE0000007FFFFFFFFFFFC
FFFFFFFFF0000007FFFFFFFFFFFC
FFFFFFFFF0000007FFFFFFFFFFFC
FFFFFFFFF8000007FFFFFFFFFFFC
FFFFFFFFF8000007FFFFFFFFFFFC
FFFFFFFFFC000007FFFFFFFFFFFC
FFFFFFFFFC000007FFFFFFFFFFFC
FFFFFFFFFC000007FFFFFFFFFFFC
FFFFFFFFFE000007FFFFFFFFFFFC
FFFFFFFFFE000007FFFFFFFFFFFC
FFFFFFFFFF000007FFFFFFFFFFFC
FFFFFFFFFF000007FFFFFFFFFFFC
FFFFFFFFFF000007FFFFFFFFFFFC
FFFFFFFFFF800007FFFFFFFFFFFC
FFFFFFFFFF800007FFFFFFFFFFFC
FFFFFFFFFFC00007FFFFFFFFFFFC
FFFFFFFFFFC00007FFFFFFFFFFFC
FFFFFFFFFFE00007FFFFFFFFFFFC
FFFFFFFFFFE00007FFFFFFFFFFFC
FFFFFFFFFFE00007FFFFFFFFFFFC
FFFFFFFFFFF00007FFFFFFFFFFFC
FFFFFFFFFFF00007FFFFFFFFFFFC
FFFFFFFFFFF80007FFFFFFFFFFFC
FFFFFFFFFFF80007FFFFFFFFFFFC
FFFFFFFFFFFC0007FFFFFFFFFFFC
000FFFFFFFFC0000007FFFFFC000
000FFFFFFFFC0000007FFFFFC000
000FFFFFFFFE0000007FFFFFC000
000FFFFFFFFE0000007FFFFFC000
000FFFFFFFFF0000007FFFFFC000
000FFFFFFFFF0000007FFFFFC000
000FFFFFFFFF0000007FFFFFC000
000FFFFFFFFF8000007FFFFFC000
000FFFFFFFFF8000007FFFFFC000
000FFFFFFFFFC000007FFFFFC000
000FFFFFFFFFC000007FFFFFC000
000FFFFFFFFFE000007FFFFFC000
000FFFFFFFFFE000007FFFFFC000
000FFFFFFFFFE000007FFFFFC000
000FFFFFFFFFF000007FFFFFC000
000FFFFFFFFFF000007FFFFFC000
000FFFFFFFFFF800007FFFFFC000
000FFFFFFFFFF800007FFFFFC000
000FFFFFFFFFFC00007FFFFFC000
000FFFFFFFFFFC00007FFFFFC000
000FFFFFFFFFFC00007FFFFFC000
000FFFFFFFFFFE00007FFFFFC000
000FFFFFFFFFFE00007FFFFFC000
000FFFFFFFFFFF00007FFFFFC000
000FFFFFFFFFFF00007FFFFFC000
000FFFFFFFFFFF00007FFFFFC000
000FFFFFFFFFFF80007FFFFFC000
000FFFFFFFFFFF80007FFFFFC000
000FFFFFFFFFFFC0007FFFFFC000
000FFFFFFFFFFFC0007FFFFFC000
000FFFFFFFFFFFE0007FFFFFC000
000FFFFFFFFFFFE0007FFFFFC000
000FFFFFFFFFFFE0007FFFFFC000
000FFFFFFFFFFFF0007FFFFFC000
000FFFFFFFFFFFF0007FFFFFC000
000FFFFFFFFFFFF8007FFFFFC000
000FFFFFFFFFFFF8007FFFFFC000
000FFFFFFFFFFFFC007FFFFFC000
000FFFFFFFFFFFFC007FFFFFC000
000FFFFFFFFFFFFC007FFFFFC000
000FFFFFFFFFFFFE007FFFFFC000
000FFFFFFFFFFFFE007FFFFFC000
000FFFFFFFFFFFFF007FFFFFC000
000FFFFFFFFFFFFF007FFFFFC000
000FFFFFFFFFFFFF007FFFFFC000
000FFFFFFBFFFFFF807FFFFFC000
000FFFFFFBFFFFFF807FFFFFC000
000FFFFFFBFFFFFFC07FFFFFC000
000FFFFFF9FFFFFFC07FFFFFC000
000FFFFFF9FFFFFFE07FFFFFC000
000FFFFFF8FFFFFFE07FFFFFC000
000FFFFFF8FFFFFFE07FFFFFC000
000FFFFFF87FFFFFF07FFFFFC000
000FFFFFF87FFFFFF07FFFFFC000
000FFFFFF87FFFFFF87FFFFFC000
000FFFFFF83FFFFFF87FFFFFC000
000FFFFFF83FFFFFFC7FFFFFC000
000FFFFFF81FFFFFFC7FFFFFC000
000FFFFFF81FFFFFFC7FFFFFC000
000FFFFFF80FFFFFFE7FFFFFC000
000FFFFFF80FFFFFFE7FFFFFC000
000FFFFFF80FFFFFFF7FFFFFC000
000FFFFFF807FFFFFF7FFFFFC000
000FFFFFF807FFFFFF7FFFFFC000
000FFFFFF803FFFFFFFFFFFFC000
000FFFFFF803FFFFFFFFFFFFC000
000FFFFFF801FFFFFFFFFFFFC000
000FFFFFF801FFFFFFFFFFFFC000
000FFFFFF800FFFFFFFFFFFFC000
000FFFFFF800FFFFFFFFFFFFC000
000FFFFFF800FFFFFFFFFFFFC000
000FFFFFF8007FFFFFFFFFFFC000
000FFFFFF8007FFFFFFFFFFFC000
000FFFFFF8003FFFFFFFFFFFC000
000FFFFFF8003FFFFFFFFFFFC000
000FFFFFF8001FFFFFFFFFFFC000
000FFFFFF8001FFFFFFFFFFFC000
000FFFFFF8001FFFFFFFFFFFC000
000FFFFFF8000FFFFFFFFFFFC000
000FFFFFF8000FFFFFFFFFFFC000
000FFFFFF80007FFFFFFFFFFC000
000FFFFFF80007FFFFFFFFFFC000
000FFFFFF80003FFFFFFFFFFC000
000FFFFFF80003FFFFFFFFFFC000
000FFFFFF80003FFFFFFFFFFC000
000FFFFFF80001FFFFFFFFFFC000
000FFFFFF80001FFFFFFFFFFC000
000FFFFFF80000FFFFFFFFFFC000
000FFFFFF80000FFFFFFFFFFC000
000FFFFFF800007FFFFFFFFFC000
000FFFFFF800007FFFFFFFFFC000
000FFFFFF800007FFFFFFFFFC000
000FFFFFF800003FFFFFFFFFC000
000FFFFFF800003FFFFFFFFFC000
000FFFFFF800001FFFFFFFFFC000
000FFFFFF800001FFFFFFFFFC000
000FFFFFF800000FFFFFFFFFC000
000FFFFFF800000FFFFFFFFFC000
000FFFFFF800000FFFFFFFFFC000
000FFFFFF8000007FFFFFFFFC000
000FFFFFF8000007FFFFFFFFC000
000FFFFFF8000003FFFFFFFFC000
000FFFFFF8000003FFFFFFFFC000
000FFFFFF8000001FFFFFFFFC000
000FFFFFF8000001FFFFFFFFC000
000FFFFFF8000001FFFFFFFFC000
FFFFFFFFFFFF8000FFFFFFFFC000
FFFFFFFFFFFF8000FFFFFFFFC000
FFFFFFFFFFFF80007FFFFFFFC000
FFFFFFFFFFFF80007FFFFFFFC000
FFFFFFFFFFFF80003FFFFFFFC000
FFFFFFFFFFFF80003FFFFFFFC000
FFFFFFFFFFFF80003FFFFFFFC000
FFFFFFFFFFFF80001FFFFFFFC000
FFFFFFFFFFFF80001FFFFFFFC000
FFFFFFFFFFFF80000FFFFFFFC000
FFFFFFFFFFFF80000FFFFFFFC000
FFFFFFFFFFFF800007FFFFFFC000
FFFFFFFFFFFF800007FFFFFFC000
FFFFFFFFFFFF800007FFFFFFC000
FFFFFFFFFFFF800003FFFFFFC000
FFFFFFFFFFFF800003FFFFFFC000
FFFFFFFFFFFF800001FFFFFFC000
FFFFFFFFFFFF800001FFFFFFC000
FFFFFFFFFFFF800000FFFFFFC000
FFFFFFFFFFFF800000FFFFFFC000
FFFFFFFFFFFF8000007FFFFFC000
FFFFFFFFFFFF8000007FFFFFC000
FFFFFFFFFFFF8000007FFFFFC000
FFFFFFFFFFFF8000003FFFFFC000
FFFFFFFFFFFF8000003FFFFFC000
ENDCHAR
STARTCHAR 004F
ENCODING 79
SWIDTH 522 0
DWIDTH 94 0
BBX 84 156 5 -24
BITMAP
0000FFFFFFFFFFFFF00000
0001FFFFFFFFFFFFF80000
0003FFFFFFFFFFFFFC0000
0007FFFFFFFFFFFFFE0000
000FFFFFFFFFFFFFFF0000
001FFFFFFFFFFFFFFF8000
003FFFFFFFFFFFFFFFC000
007FFFFFFFFFFFFFFFE000
00FFFFFFFFFFFFFFFFF000
01FFFFFFFFFFFFFFFFF800
03FFFFFFFFFFFFFFFFFC00
07FFFFFFFFFFFFFFFFFE00
0FFFFFFFFFFFFFFFFFFF00
1FFFFFFFFFFFFFFFFFFF80
3FFFFFFFFFFFFFFFFFFFC0
7FFFFFFFFFFFFFFFFFFFE0
FFFFFFFFFFFFFFFFFFFFF0
FFFFFFFFFFFFFFFFFFFFF0
FFFFFFFFFFFFFFFFFFFFF0
FFFFFFFFFFFFFFFFFFFFF0
FFFFFFFFFFFFFFFFFFFFF0
FFFFFFFFFFFFFFFFFFFFF0
FFFFFFFFFFFFFFFFFFFFF0
FFFFFFFFFFFFFFFFFFFFF0
FFFFFFFFFFFFFFFFFFFFF0
FFFFFF800000001FFFFFF0
FFFFFF800000001FFFFFF0
FFFFFF800000001FFFFFF0
FFFFFF800000001FFFFFF0
FFFFFF800000001FFFFFF0
FFFFFF800000001FFFFFF0
FFFFFF800000001FFFFFF0
FFFFFF800000001FFFFFF0
FFFFFF800000001FFFFFF0
FFFFFF800000001FFFFFF0
FFFFFF800000001FFFFFF0
FFFFFF800000001FFFFFF0
FFFFFF800000001FFFFFF0
FFFFFF800000001FFFFFF0
FFFFFF800000001FFFFFF0
FFFFFF800000001FFFFFF0
FFFFFF800000001FFFFFF0
FFFFFF800000001FFFFFF0
FFFFFF800000001FFFFFF0
FFFFFF800000001FFFFFF0
FFFFFF800000001FFFFFF0
FFFFFF800000001FFFFFF0
FFFFFF800000001FFFFFF0
FFFFFF800000001FFFFFF0
FFFFFF800000001FFFFFF0
FFFFFF800000001FFFFFF0
FFFFFF800000001FFFFFF0
FFFFFF800000001FFFFFF0
FFFFFF800000001FFFFFF0
FFFFFF800000001FFFFFF0
FFFFFF800000001FFFFFF0
FFFFFF800000001FFFFFF0
FFFFFF800000001FFFFFF0
FFFFFF800000001FFFFFF0
FFFFFF800000001FFFFFF0
FFFFFF800000001FFFFFF0
FFFFFF800000001FFFFFF0
FFFFFF800000001FFFFFF0
FFFFFF800000001FFFFFF0
FFFFFF800000001FFFFFF0
FFFFFF800000001FFFFFF0
FFFFFF800000001FFFFFF0
FFFFFF800000001FFFFFF0
FFFFFF800000001FFFFFF0
FFFFFF800000001FFFFFF0
FFFFFF800000001FFFFFF0
FFFFFF800000001FFFFFF0
FFFFFF800000001FFFFFF0
FFFFFF800000001FFFFFF0
FFFFFF800000001FFFFFF0
FFFFFF800000001FFFFFF0
FFFFFF800000001FFFFFF0
FFFFFF800000001FFFFFF0
FFFFFF800000001FFFFFF0
FFFFFF800000001FFFFFF0
FFFFFF800000001FFFFFF0
FFFFFF800000001FFFFFF0
FFFFFF800000001FFFFFF0
FFFFFF800000001FFFFFF0
FFFFFF800000001FFFFFF0
FFFFFF800000001FFFFFF0
FFFFFF800000001FFFFFF0
FFFFFF800000001FFFFFF0
FFFFFF800000001FFFFFF0
FFFFFF800000001FFFFFF0
FFFFFF800000001FFFFFF0
FFFFFF800000001FFFFFF0
FFFFFF800000001FFFFFF0
FFFFFF800000001FFFFFF0
FFFFFF800000001FFFFFF0
FFFFFF800000001FFFFFF0
FFFFFF800000001FFFFFF0
FFFFFF800000001FFFFFF0
FFFFFF800000001FFFFFF0
FFFFFF800000001FFFFFF0
FFFFFF800000001FFFFFF0
FFFFFF800000001FFFFFF0
FFFFFF800000001FFFFFF0
FFFFFF800000001FFFFFF0
FFFFFF800000001FFFFFF0
FFFFFF800000001FFFFFF0
FFFFFF800000001FFFFFF0
FFFFFF800000001FFFFFF0
FFFFFF800000001FFFFFF0
FFFFFF800000001FFFFFF0
FFFFFF800000001FFFFFF0
FFFFFF800000001FFFFFF0
FFFFFF800000001FFFFFF0
FFFFFF800000001FFFFFF0
FFFFFF800000001FFFFFF0
FFFFFF800000001FFFFFF0
FFFFFF800000001FFFFFF0
FFFFFF800000001FFFFFF0
FFFFFF800000001FFFFFF0
FFFFFF800000001FFFFFF0
FFFFFF800000001FFFFFF0
FFFFFF800000001FFFFFF0
FFFFFF800000001FFFFFF0
FFFFFF800000001FFFFFF0
FFFFFF800000001FFFFFF0
FFFFFF800000001FFFFFF0
FFFFFF800000001FFFFFF0
FFFFFF800000001FFFFFF0
FFFFFF800000001FFFFFF0
FFFFFF800000001FFFFFF0
FFFFFF800000001FFFFFF0
FFFFFFFFFFFFFFFFFFFFF0
FFFFFFFFFFFFFFFFFFFFF0
FFFFFFFFFFFFFFFFFFFFF0
FFFFFFFFFFFFFFFFFFFFF0
FFFFFFFFFFFFFFFFFFFFF0
FFFFFFFFFFFFFFFFFFFFF0
FFFFFFFFFFFFFFFFFFFFF0
FFFFFFFFFFFFFFFFFFFFF0
FFFFFFFFFFFFFFFFFFFFF0
7FFFFFFFFFFFFFFFFFFFE0
3FFFFFFFFFFFFFFFFFFFC0
1FFFFFFFFFFFFFFFFFFF80
0FFFFFFFFFFFFFFFFFFF00
07FFFFFFFFFFFFFFFFFE00
03FFFFFFFFFFFFFFFFFC00
01FFFFFFFFFFFFFFFFF800
00FFFFFFFFFFFFFFFFF000
007FFFFFFFFFFFFFFFE000
003FFFFFFFFFFFFFFFC000
001FFFFFFFFFFFFFFF8000
000FFFFFFFFFFFFFFF0000
0007FFFFFFFFFFFFFE0000
0007FFFFFFFFFFFFFC0000
0003FFFFFFFFFFFFF80000
0001FFFFFFFFFFFFF00000
ENDCHAR
STARTCHAR 0050
ENCODING 80
SWIDTH 588 0
DWIDTH 106 0
BBX 96 156 5 -24
BITMAP
FFFFFFFFFFFFFFFFFFFFC000
FFFFFFFFFFFFFFFFFFFFE000
FFFFFFFFFFFFFFFFFFFFF000
FFFFFFFFFFFFFFFFFFFFF800
FFFFFFFFFFFFFFFFFFFFFC00
FFFFFFFFFFFFFFFFFFFFFE00
FFFFFFFFFFFFFFFFFFFFFF00
FFFFFFFFFFFFFFFFFFFFFF80
FFFFFFFFFFFFFFFFFFFFFFC0
FFFFFFFFFFFFFFFFFFFFFFE0
FFFFFFFFFFFFFFFFFFFFFFF0
FFFFFFFFFFFFFFFFFFFFFFF8
FFFFFFFFFFFFFFFFFFFFFFFC
FFFFFFFFFFFFFFFFFFFFFFFE
FFFFFFFFFFFFFFFFFFFFFFFF
FFFFFFFFFFFFFFFFFFFFFFFF
FFFFFFFFFFFFFFFFFFFFFFFF
FFFFFFFFFFFFFFFFFFFFFFFF
FFFFFFFFFFFFFFFFFFFFFFFF
FFFFFFFFFFFFFFFFFFFFFFFF
FFFFFFFFFFFFFFFFFFFFFFFF
FFFFFFFFFFFFFFFFFFFFFFFF
FFFFFFFFFFFFFFFFFFFFFFFF
FFFFFFFFFFFFFFFFFFFFFFFF
FFFFFFFFFFFFFFFFFFFFFFFF
000FFFFFF800000001FFFFFF
000FFFFFF800000001FFFFFF
000FFFFFF800000001FFFFFF
000FFFFFF800000001FFFFFF
000FFFFFF800000001FFFFFF
000FFFFFF800000001FFFFFF
000FFFFFF800000001FFFFFF
000FFFFFF800000001FFFFFF
000FFFFFF800000001FFFFFF
000FFFFFF800000001FFFFFF
000FFFFFF800000001FFFFFF
000FFFFFF800000001FFFFFF
000FFFFFF800000001FFFFFF
000FFFFFF800000001FFFFFF
000FFFFFF800000001FFFFFF
000FFFFFF800000001FFFFFF
000FFFFFF800000001FFFFFF
000FFFFFF800000001FFFFFF
000FFFFFF800000001FFFFFF
000FFFFFF800000001FFFFFF
000FFFFFF800000001FFFFFF
000FFFFFF800000001FFFFFF
000FFFFFF800000001FFFFFF
000FFFFFF800000001FFFFFF
000FFFFFF800000001FFFFFF
000FFFFFF800000001FFFFFF
000FFFFFF800000001FFFFFF
000FFFFFF800000001FFFFFF
000FFFFFF800000001FFFFFF
000FFFFFF800000001FFFFFF
000FFFFFF800000001FFFFFF
000FFFFFF800000001FFFFFF
000FFFFFF800000001FFFFFF
000FFFFFF800000001FFFFFF
000FFFFFF800000001FFFFFF
000FFFFFF800000001FFFFFF
000FFFFFF800000001FFFFFF
000FFFFFF800000001FFFFFF
000FFFFFF800000001FFFFFF
000FFFFFF800000001FFFFFF
000FFFFFFFFFFFFFFFFFFFFF
000FFFFFFFFFFFFFFFFFFFFF
000FFFFFFFFFFFFFFFFFFFFF
000FFFFFFFFFFFFFFFFFFFFF
000FFFFFFFFFFFFFFFFFFFFF
000FFFFFFFFFFFFFFFFFFFFF
000FFFFFFFFFFFFFFFFFFFFF
000FFFFFFFFFFFFFFFFFFFFF
000FFFFFFFFFFFFFFFFFFFFF
000FFFFFFFFFFFFFFFFFFFFF
000FFFFFFFFFFFFFFFFFFFFE
000FFFFFFFFFFFFFFFFFFFFC
000FFFFFFFFFFFFFFFFFFFF8
000FFFFFFFFFFFFFFFFFFFF0
000FFFFFFFFFFFFFFFFFFFE0
000FFFFFFFFFFFFFFFFFFFC0
000FFFFFFFFFFFFFFFFFFF80
000FFFFFFFFFFFFFFFFFFF00
000FFFFFFFFFFFFFFFFFFE00
000FFFFFFFFFFFFFFFFFF800
000FFFFFFFFFFFFFFFFFF000
000FFFFFFFFFFFFFFFFFE000
000FFFFFFFFFFFFFFFFFC000
000FFFFFFFFFFFFFFFFF8000
000FFFFFFFFFFFFFFFFF0000
000FFFFFF800000000000000
000FFFFFF800000000000000
000FFFFFF800000000000000
000FFFFFF800000000000000
000FFFFFF800000000000000
000FFFFFF800000000000000
000FFFFFF800000000000000
000FFFFFF800000000000000
000FFFFFF800000000000000
000FFFFFF800000000000000
000FFFFFF800000000000000
000FFFFFF800000000000000
000FFFFFF800000000000000
000FFFFFF800000000000000
000FFFFFF800000000000000
000FFFFFF800000000000000
000FFFFFF800000000000000
000FFFFFF800000000000000
000FFFFFF800000000000000
000FFFFFF800000000000000
000FFFFFF800000000000000
000FFFFFF800000000000000
000FFFFFF800000000000000
000FFFFFF800000000000000
000FFFFFF800000000000000
000FFFFFF800000000000000
000FFFFFF800000000000000
000FFFFFF800000000000000
000FFFFFF800000000000000
000FFFFFF800000000000000
000FFFFFF800000000000000
000FFFFFF800000000000000
000FFFFFF800000000000000
000FFFFFF800000000000000
000FFFFFF800000000000000
000FFFFFF800000000000000
000FFFFFF800000000000000
000FFFFFF800000000000000
000FFFFFF800000000000000
000FFFFFF800000000000000
000FFFFFF800000000000000
FFFFFFFFFFFF800000000000
FFFFFFFFFFFF800000000000
FFFFFFFFFFFF800000000000
FFFFFFFFFFFF800000000000
FFFFFFFFFFFF800000000000
FFFFFFFFFFFF800000000000
FFFFFFFFFFFF800000000000
FFFFFFFFFFFF800000000000
FFFFFFFFFFFF800000000000
FFFFFFFFFFFF800000000000
FFFFFFFFFFFF800000000000
FFFFFFFFFFFF800000000000
FFFFFFFFFFFF800000000000
FFFFFFFFFFFF800000000000
FFFFFFFFFFFF800000000000
FFFFFFFFFFFF800000000000
FFFFFFFFFFFF800000000000
FFFFFFFFFFFF800000000000
FFFFFFFFFFFF800000000000
FFFFFFFFFFFF800000000000
FFFFFFFFFFFF800000000000
FFFFFFFFFFFF800000000000
FFFFFFFFFFFF800000000000
FFFFFFFFFFFF800000000000
FFFFFFFFFFFF800000000000
ENDCHAR
STARTCHAR 0051
ENCODING 81
SWIDTH 522 0
DWIDTH 94 0
BBX 85 176 5 -45
BITMAP
0000FFFFFFFFFFFFF00000
0001FFFFFFFFFFFFF80000
0003FFFFFFFFFFFFFC0000
0007FFFFFFFFFFFFFE0000
000FFFFFFFFFFFFFFF0000
001FFFFFFFFFFFFFFF8000
003FFFFFFFFFFFFFFFC000
007FFFFFFFFFFFFFFFE000
00FFFFFFFFFFFFFFFFF000
01FFFFFFFFFFFFFFFFF800
03FFFFFFFFFFFFFFFFFC00
07FFFFFFFFFFFFFFFFFE00
0FFFFFFFFFFFFFFFFFFF00
1FFFFFFFFFFFFFFFFFFF80
3FFFFFFFFFFFFFFFFFFFC0
7FFFFFFFFFFFFFFFFFFFF0
FFFFFFFFFFFFFFFFFFFFF0
FFFFFFFFFFFFFFFFFFFFF0
FFFFFFFFFFFFFFFFFFFFF0
FFFFFFFFFFFFFFFFFFFFF0
FFFFFFFFFFFFFFFFFFFFF0
FFFFFFFFFFFFFFFFFFFFF0
FFFFFFFFFFFFFFFFFFFFF0
FFFFFFFFFFFFFFFFFFFFF0
FFFFFFFFFFFFFFFFFFFFF0
FFFFFF800000001FFFFFF0
FFFFFF800000001FFFFFF0
FFFFFF800000001FFFFFF0
FFFFFF800000001FFFFFF0
FFFFFF800000001FFFFFF0
FFFFFF800000001FFFFFF0
FFFFFF800000001FFFFFF0
FFFFFF800000001FFFFFF0
FFFFFF800000001FFFFFF0
FFFFFF800000001FFFFFF0
FFFFFF800000001FFFFFF0
FFFFFF800000001FFFFFF0
FFFFFF800000001FFFFFF0
FFFFFF800000001FFFFFF0
FFFFFF800000001FFFFFF0
FFFFFF800000001FFFFFF0
FFFFFF800000001FFFFFF0
FFFFFF800000001FFFFFF0
FFFFFF800000001FFFFFF0
FFFFFF800000001FFFFFF0
FFFFFF800000001FFFFFF0
FFFFFF800000001FFFFFF0
FFFFFF800000001FFFFFF0
FFFFFF800000001FFFFFF0
FFFFFF800000001FFFFFF0
FFFFFF800000001FFFFFF0
FFFFFF800000001FFFFFF0
FFFFFF800000001FFFFFF0
FFFFFF800000001FFFFFF0
FFFFFF800000001FFFFFF0
FFFFFF800000001FFFFFF0
FFFFFF800000001FFFFFF0
FFFFFF800000001FFFFFF0
FFFFFF800000001FFFFFF0
FFFFFF800000001FFFFFF0
FFFFFF800000001FFFFFF0
FFFFFF800000001FFFFFF0
FFFFFF800000001FFFFFF0
FFFFFF800000001FFFFFF0
FFFFFF800000001FFFFFF0
FFFFFF800000001FFFFFF0
FFFFFF800000001FFFFFF0
FFFFFF800000001FFFFFF0
FFFFFF800000001FFFFFF0
FFFFFF800000001FFFFFF0
FFFFFF800000001FFFFFF0
FFFFFF800000001FFFFFF0
FFFFFF800000001FFFFFF0
FFFFFF800000001FFFFFF0
FFFFFF800000001FFFFFF0
FFFFFF800000001FFFFFF0
FFFFFF800000001FFFFFF0
FFFFFF800000001FFFFFF0
FFFFFF800000001FFFFFF0
FFFFFF800000001FFFFFF0
FFFFFF800000001FFFFFF0
FFFFFF800000001FFFFFF0
FFFFFF800000001FFFFFF0
FFFFFF800000001FFFFFF0
FFFFFF800000001FFFFFF0
FFFFFF800000001FFFFFF0
FFFFFF800000001FFFFFF0
FFFFFF800000001FFFFFF0
FFFFFF800000001FFFFFF0
FFFFFF800000001FFFFFF0
FFFFFF800000001FFFFFF0
FFFFFF800000001FFFFFF0
FFFFFF800000001FFFFFF0
FFFFFF800000001FFFFFF0
FFFFFF800000001FFFFFF0
FFFFFF800000001FFFFFF0
FFFFFF800000001FFFFFF0
FFFFFF800000001FFFFFF0
FFFFFF800000001FFFFFF0
FFFFFF800000001FFFFFF0
FFFFFF800000001FFFFFF0
FFFFFF800000001FFFFFF0
FFFFFF800000001FFFFFF0
FFFFFF800000001FFFFFF0
FFFFFF800000001FFFFFF0
FFFFFF800000001FFFFFF0
FFFFFF800000001FFFFFF0
FFFFFF800000001FFFFFF0
FFFFFF800000001FFFFFF0
FFFFFF800000001FFFFFF0
FFFFFF800000001FFFFFF0
FFFFFF800000001FFFFFF0
FFFFFF800000001FFFFFF0
FFFFFF800000001FFFFFF0
FFFFFF800000001FFFFFF0
FFFFFF800000001FFFFFF0
FFFFFF800000301FFFFFF0
FFFFFF800000F01FFFFFF0
FFFFFF800003F81FFFFFF0
FFFFFF800007FC1FFFFFF0
FFFFFF80001FFE1FFFFFF0
FFFFFF80003FFF1FFFFFF0
FFFFFF8000FFFF1FFFFFF0
FFFFFF8001FFFF9FFFFFF0
FFFFFF8001FFFFDFFFFFF0
FFFFFF8000FFFFFFFFFFF0
FFFFFF8000FFFFFFFFFFF0
FFFFFF8000FFFFFFFFFFF0
FFFFFF80007FFFFFFFFFF0
FFFFFF80007FFFFFFFFFF0
FFFFFF80003FFFFFFFFFF0
FFFFFFFFFFFFFFFFFFFFF0
FFFFFFFFFFFFFFFFFFFFF0
FFFFFFFFFFFFFFFFFFFFF0
FFFFFFFFFFFFFFFFFFFFF0
FFFFFFFFFFFFFFFFFFFFF0
FFFFFFFFFFFFFFFFFFFFF0
FFFFFFFFFFFFFFFFFFFFF0
FFFFFFFFFFFFFFFFFFFFF0
FFFFFFFFFFFFFFFFFFFFF0
FFFFFFFFFFFFFFFFFFFFF0
7FFFFFFFFFFFFFFFFFFFE0
3FFFFFFFFFFFFFFFFFFFC0
1FFFFFFFFFFFFFFFFFFF80
0FFFFFFFFFFFFFFFFFFE00
07FFFFFFFFFFFFFFFFFC00
03FFFFFFFFFFFFFFFFF800
01FFFFFFFFFFFFFFFFF000
00FFFFFFFFFFFFFFFFF000
007FFFFFFFFFFFFFFFF800
003FFFFFFFFFFFFFFFFC00
001FFFFFFFFFFFFFFFFC00
000FFFFFFFFFFFFFFFFE00
0007FFFFFFFFFFFFFFFF00
0003FFFFFFFFFFFFFFFF00
0001FFFFFFFFFFFFFFFF80
00000000000007FFFFFFC0
00000000000007FFFFFFE0
00000000000003FFFFFFE0
00000000000003FFFFFFF0
00000000000001FFFFFFF8
00000000000001FFFFFFF0
00000000000000FFFFFFC0
00000000000000FFFFFF80
00000000000000FFFFFE00
000000000000007FFFFC00
000000000000007FFFF000
000000000000003FFFE000
000000000000003FFF8000
000000000000003FFF0000
000000000000001FFC0000
000000000000001FF80000
000000000000000FE00000
000000000000000FC00000
0000000000000007000000
0000000000000006000000
ENDCHAR
STARTCHAR 0052
ENCODING 82
SWIDTH 627 0
DWIDTH 113 0
BBX 103 156 5 -24
BITMAP
FFFFFFFFFFFFFFFFFFFFC00000
FFFFFFFFFFFFFFFFFFFFE00000
FFFFFFFFFFFFFFFFFFFFF00000
FFFFFFFFFFFFFFFFFFFFF80000
FFFFFFFFFFFFFFFFFFFFFC0000
FFFFFFFFFFFFFFFFFFFFFE0000
FFFFFFFFFFFFFFFFFFFFFF0000
FFFFFFFFFFFFFFFFFFFFFFC000
FFFFFFFFFFFFFFFFFFFFFFE000
FFFFFFFFFFFFFFFFFFFFFFF000
FFFFFFFFFFFFFFFFFFFFFFF800
FFFFFFFFFFFFFFFFFFFFFFFC00
FFFFFFFFFFFFFFFFFFFFFFFE00
FFFFFFFFFFFFFFFFFFFFFFFE00
FFFFFFFFFFFFFFFFFFFFFFFE00
FFFFFFFFFFFFFFFFFFFFFFFE00
FFFFFFFFFFFFFFFFFFFFFFFE00
FFFFFFFFFFFFFFFFFFFFFFFE00
FFFFFFFFFFFFFFFFFFFFFFFE00
FFFFFFFFFFFFFFFFFFFFFFFE00
FFFFFFFFFFFFFFFFFFFFFFFE00
FFFFFFFFFFFFFFFFFFFFFFFE00
FFFFFFFFFFFFFFFFFFFFFFFE00
FFFFFFFFFFFFFFFFFFFFFFFE00
FFFFFFFFFFFFFFFFFFFFFFFE00
000FFFFFF800000003FFFFFE00
000FFFFFF800000003FFFFFE00
000FFFFFF800000003FFFFFE00
000FFFFFF800000003FFFFFE00
000FFFFFF800000003FFFFFE00
000FFFFFF800000003FFFFFE00
000FFFFFF800000003FFFFFE00
000FFFFFF800000003FFFFFE00
000FFFFFF800000003FFFFFE00
000FFFFFF800000003FFFFFE00
000FFFFFF800000003FFFFFE00
000FFFFFF800000003FFFFFE00
000FFFFFF800000003FFFFFE00
000FFFFFF800000003FFFFFE00
000FFFFFF800000003FFFFFE00
000FFFFFF800000003FFFFFE00
000FFFFFF800000003FFFFFE00
000FFFFFF800000003FFFFFE00
000FFFFFF800000003FFFFFE00
000FFFFFF800000003FFFFFE00
000FFFFFF800000003FFFFFE00
000FFFFFF800000003FFFFFE00
000FFFFFF800000003FFFFFE00
000FFFFFF800000003FFFFFE00
000FFFFFF800000003FFFFFE00
000FFFFFF800000003FFFFFE00
000FFFFFF800000003FFFFFE00
000FFFFFF800000003FFFFFE00
000FFFFFF800000003FFFFFE00
000FFFFFF800000003FFFFFE00
000FFFFFF800000003FFFFFE00
000FFFFFF800000003FFFFFE00
000FFFFFF800000003FFFFFE00
000FFFFFF800000003FFFFFE00
000FFFFFF800000003FFFFFE00
000FFFFFF800000003FFFFFE00
000FFFFFF800000003FFFFFE00
000FFFFFF800000003FFFFFE00
000FFFFFF800000003FFFFFE00
000FFFFFF800000003FFFFFE00
000FFFFFF800000003FFFFFE00
000FFFFFF800000003FFFFFE00
000FFFFFF800000003FFFFFE00
000FFFFFF800000003FFFFFE00
000FFFFFFFFFFFFFFFFFFFFE00
000FFFFFFFFFFFFFFFFFFFFE00
000FFFFFFFFFFFFFFFFFFFFE00
000FFFFFFFFFFFFFFFFFFFFE00
000FFFFFFFFFFFFFFFFFFFFE00
000FFFFFFFFFFFFFFFFFFFFE00
000FFFFFFFFFFFFFFFFFFFFE00
000FFFFFFFFFFFFFFFFFFFFE00
000FFFFFFFFFFFFFFFFFFFFE00
000FFFFFFFFFFFFFFFFFFFFE00
000FFFFFFFFFFFFFFFFFFFFE00
000FFFFFFFFFFFFFFFFFFFFE00
000FFFFFFFFFFFFFFFFFFFFC00
000FFFFFFFFFFFFFFFFFFFF800
000FFFFFFFFFFFFFFFFFFFF000
000FFFFFFFFFFFFFFFFFFFE000
000FFFFFFFFFFFFFFFFFFFC000
000FFFFFFFFFFFFFFFFFFF8000
000FFFFFFFFFFFFFFFFFFF0000
000FFFFFFFFFFFFFFFFFFE0000
000FFFFFFFFFFFFFFFFFFC0000
000FFFFFFFFFFFFFFFFFF80000
000FFFFFFFFFFFFFFFFFF00000
000FFFFFFFFFFFFFFFFFE00000
000FFFFFFFFFFFFFFFFFC00000
000FFFFFF803FFFFFFC0000000
000FFFFFF801FFFFFFC0000000
000FFFFFF801FFFFFFE0000000
000FFFFFF800FFFFFFE0000000
000FFFFFF800FFFFFFF0000000
000FFFFFF8007FFFFFF8000000
000FFFFFF8007FFFFFF8000000
000FFFFFF8003FFFFFFC000000
000FFFFFF8003FFFFFFC000000
000FFFFFF8001FFFFFFE000000
000FFFFFF8001FFFFFFE000000
000FFFFFF8000FFFFFFF000000
000FFFFFF8000FFFFFFF000000
000FFFFFF80007FFFFFF800000
000FFFFFF80007FFFFFF800000
000FFFFFF80003FFFFFFC00000
000FFFFFF80003FFFFFFC00000
000FFFFFF80001FFFFFFE00000
000FFFFFF80001FFFFFFE00000
000FFFFFF80000FFFFFFF00000
000FFFFFF80000FFFFFFF00000
000FFFFFF800007FFFFFF80000
000FFFFFF800007FFFFFF80000
000FFFFFF800003FFFFFFC0000
000FFFFFF800003FFFFFFC0000
000FFFFFF800001FFFFFFE0000
000FFFFFF800001FFFFFFE0000
000FFFFFF800000FFFFFFF0000
000FFFFFF800000FFFFFFF0000
000FFFFFF8000007FFFFFF8000
000FFFFFF8000007FFFFFF8000
000FFFFFF8000003FFFFFFC000
000FFFFFF8000003FFFFFFC000
000FFFFFF8000001FFFFFFE000
000FFFFFF8000001FFFFFFE000
000FFFFFF8000000FFFFFFF000
000FFFFFF8000000FFFFFFF000
FFFFFFFFFFFF80007FFFFFFFFE
FFFFFFFFFFFF80007FFFFFFFFE
FFFFFFFFFFFF80003FFFFFFFFE
FFFFFFFFFFFF80003FFFFFFFFE
FFFFFFFFFFFF80001FFFFFFFFE
FFFFFFFFFFFF80001FFFFFFFFE
FFFFFFFFFFFF80000FFFFFFFFE
FFFFFFFFFFFF80000FFFFFFFFE
FFFFFFFFFFFF800007FFFFFFFE
FFFFFFFFFFFF800007FFFFFFFE
FFFFFFFFFFFF800003FFFFFFFE
FFFFFFFFFFFF800003FFFFFFFE
FFFFFFFFFFFF800001FFFFFFFE
FFFFFFFFFFFF800001FFFFFFFE
FFFFFFFFFFFF800000FFFFFFFE
FFFFFFFFFFFF800000FFFFFFFE
FFFFFFFFFFFF8000007FFFFFFE
FFFFFFFFFFFF8000007FFFFFFE
FFFFFFFFFFFF8000003FFFFFFE
FFFFFFFFFFFF8000001FFFFFFE
FFFFFFFFFFFF8000001FFFFFFE
FFFFFFFFFFFF8000000FFFFFFE
FFFFFFFFFFFF8000000FFFFFFE
FFFFFFFFFFFF80000007FFFFFE
FFFFFFFFFFFF80000007FFFFFE
ENDCHAR
STARTCHAR 0053
ENCODING 83
SWIDTH 533 0
DWIDTH 96 0
BBX 86 156 5 -24
BITMAP
0007FFFFFFFFFFFFFF0000
000FFFFFFFFFFFFFFF8000
001FFFFFFFFFFFFFFFC000
003FFFFFFFFFFFFFFFE000
007FFFFFFFFFFFFFFFF000
00FFFFFFFFFFFFFFFFF800
01FFFFFFFFFFFFFFFFFC00
03FFFFFFFFFFFFFFFFFE00
07FFFFFFFFFFFFFFFFFF00
0FFFFFFFFFFFFFFFFFFFC0
1FFFFFFFFFFFFFFFFFFFE0
3FFFFFFFFFFFFFFFFFFFF0
7FFFFFFFFFFFFFFFFFFFF8
FFFFFFFFFFFFFFFFFFFFFC
FFFFFFFFFFFFFFFFFFFFFC
FFFFFFFFFFFFFFFFFFFFFC
FFFFFFFFFFFFFFFFFFFFFC
FFFFFFFFFFFFFFFFFFFFFC
FFFFFFFFFFFFFFFFFFFFFC
FFFFFFFFFFFFFFFFFFFFFC
FFFFFFFFFFFFFFFFFFFFFC
FFFFFFFFFFFFFFFFFFFFFC
FFFFFFFFFFFFFFFFFFFFFC
FFFFFFFFFFFFFFFFFFFFFC
FFFFFFFFFFFFFFFFFFFFFC
FFFFFF8000000007FFFFFC
FFFFFF8000000007FFFFFC
FFFFFF8000000007FFFFFC
FFFFFF8000000007FFFFFC
FFFFFF8000000007FFFFFC
FFFFFF8000000007FFFFFC
FFFFFF8000000007FFFFFC
FFFFFF8000000007FFFFFC
FFFFFF8000000007FFFFFC
FFFFFF8000000007FFFFFC
FFFFFF8000000007FFFFFC
FFFFFF8000000007FFFFFC
FFFFFF8000000007FFFFFC
FFFFFF8000000007FFFFFC
FFFFFF8000000007FFFFFC
FFFFFF8000000007FFFFFC
FFFFFF8000000007FFFFFC
FFFFFF8000000007FFFFFC
FFFFFF8000000000000000
FFFFFF8000000000000000
FFFFFF8000000000000000
FFFFFF8000000000000000
FFFFFF8000000000000000
FFFFFF8000000000000000
FFFFFF8000000000000000
FFFFFF8000000000000000
FFFFFF8000000000000000
FFFFFF8000000000000000
FFFFFF8000000000000000
FFFFFF8000000000000000
FFFFFF8000000000000000
FFFFFF8000000000000000
FFFFFF8000000000000000
FFFFFF8000000000000000
FFFFFF8000000000000000
FFFFFF8000000000000000
FFFFFF8000000000000000
FFFFFF8000000000000000
FFFFFFFFFFFFFFFFFF0000
FFFFFFFFFFFFFFFFFF8000
FFFFFFFFFFFFFFFFFFC000
FFFFFFFFFFFFFFFFFFE000
FFFFFFFFFFFFFFFFFFF000
FFFFFFFFFFFFFFFFFFF800
FFFFFFFFFFFFFFFFFFFC00
FFFFFFFFFFFFFFFFFFFE00
FFFFFFFFFFFFFFFFFFFF00
FFFFFFFFFFFFFFFFFFFF80
FFFFFFFFFFFFFFFFFFFFC0
7FFFFFFFFFFFFFFFFFFFE0
3FFFFFFFFFFFFFFFFFFFF0
1FFFFFFFFFFFFFFFFFFFF8
0FFFFFFFFFFFFFFFFFFFFC
07FFFFFFFFFFFFFFFFFFFC
03FFFFFFFFFFFFFFFFFFFC
01FFFFFFFFFFFFFFFFFFFC
00FFFFFFFFFFFFFFFFFFFC
007FFFFFFFFFFFFFFFFFFC
003FFFFFFFFFFFFFFFFFFC
001FFFFFFFFFFFFFFFFFFC
000FFFFFFFFFFFFFFFFFFC
0007FFFFFFFFFFFFFFFFFC
0003FFFFFFFFFFFFFFFFFC
0000000000000007FFFFFC
0000000000000007FFFFFC
0000000000000007FFFFFC
0000000000000007FFFFFC
0000000000000007FFFFFC
0000000000000007FFFFFC
0000000000000007FFFFFC
0000000000000007FFFFFC
0000000000000007FFFFFC
0000000000000007FFFFFC
0000000000000007FFFFFC
0000000000000007FFFFFC
0000000000000007FFFFFC
0000000000000007FFFFFC
0000000000000007FFFFFC
0000000000000007FFFFFC
0000000000000007FFFFFC
0000000000000007FFFFFC
0000000000000007FFFFFC
0000000000000007FFFFFC
0000000000000007FFFFFC
0000000000000007FFFFFC
0000000000000007FFFFFC
0000000000000007FFFFFC
FFFFFF8000000007FFFFFC
FFFFFF8000000007FFFFFC
FFFFFF8000000007FFFFFC
FFFFFF8000000007FFFFFC
FFFFFF8000000007FFFFFC
FFFFFF8000000007FFFFFC
FFFFFF8000000007FFFFFC
FFFFFF8000000007FFFFFC
FFFFFF8000000007FFFFFC
FFFFFF8000000007FFFFFC
FFFFFF8000000007FFFFFC
FFFFFF8000000007FFFFFC
FFFFFF8000000007FFFFFC
FFFFFF8000000007FFFFFC
FFFFFF8000000007FFFFFC
FFFFFF8000000007FFFFFC
FFFFFF8000000007FFFFFC
FFFFFF8000000007FFFFFC
FFFFFF8000000007FFFFFC
FFFFFFFFFFFFFFFFFFFFFC
FFFFFFFFFFFFFFFFFFFFFC
FFFFFFFFFFFFFFFFFFFFFC
FFFFFFFFFFFFFFFFFFFFFC
FFFFFFFFFFFFFFFFFFFFFC
FFFFFFFFFFFFFFFFFFFFFC
FFFFFFFFFFFFFFFFFFFFF8
FFFFFFFFFFFFFFFFFFFFF0
FFFFFFFFFFFFFFFFFFFFE0
7FFFFFFFFFFFFFFFFFFFC0
3FFFFFFFFFFFFFFFFFFF80
1FFFFFFFFFFFFFFFFFFF00
0FFFFFFFFFFFFFFFFFFE00
07FFFFFFFFFFFFFFFFFC00
03FFFFFFFFFFFFFFFFF800
01FFFFFFFFFFFFFFFFF800
00FFFFFFFFFFFFFFFFF000
007FFFFFFFFFFFFFFFE000
003FFFFFFFFFFFFFFFC000
001FFFFFFFFFFFFFFF8000
000FFFFFFFFFFFFFFF0000
0007FFFFFFFFFFFFFE0000
0003FFFFFFFFFFFFFC0000
0001FFFFFFFFFFFFF80000
00007FFFFFFFFFFFF00000
ENDCHAR
STARTCHAR 0054
ENCODING 84
SWIDTH 650 0
DWIDTH 117 0
BBX 107 156 5 -24
BITMAP
FFFFFFFFFFFFFFFFFFFFFFFFFFE0
FFFFFFFFFFFFFFFFFFFFFFFFFFE0
FFFFFFFFFFFFFFFFFFFFFFFFFFE0
FFFFFFFFFFFFFFFFFFFFFFFFFFE0
FFFFFFFFFFFFFFFFFFFFFFFFFFE0
FFFFFFFFFFFFFFFFFFFFFFFFFFE0
FFFFFFFFFFFFFFFFFFFFFFFFFFE0
FFFFFFFFFFFFFFFFFFFFFFFFFFE0
FFFFFFFFFFFFFFFFFFFFFFFFFFE0
FFFFFFFFFFFFFFFFFFFFFFFFFFE0
FFFFFFFFFFFFFFFFFFFFFFFFFFE0
FFFFFFFFFFFFFFFFFFFFFFFFFFE0
FFFFFFFFFFFFFFFFFFFFFFFFFFE0
FFFFFFFFFFFFFFFFFFFFFFFFFFE0
FFFFFFFFFFFFFFFFFFFFFFFFFFE0
FFFFFFFFFFFFFFFFFFFFFFFFFFE0
FFFFFFFFFFFFFFFFFFFFFFFFFFE0
FFFFFFFFFFFFFFFFFFFFFFFFFFE0
FFFFFFFFFFFFFFFFFFFFFFFFFFE0
FFFFFFFFFFFFFFFFFFFFFFFFFFE0
FFFFFFFFFFFFFFFFFFFFFFFFFFE0
FFFFFFFFFFFFFFFFFFFFFFFFFFE0
FFFFFFFFFFFFFFFFFFFFFFFFFFE0
FFFFFFFFFFFFFFFFFFFFFFFFFFE0
FFFFFFFFFFFFFFFFFFFFFFFFFFE0
FFFFFF80007FFFFFC0003FFFFFE0
FFFFFF80007FFFFFC0003FFFFFE0
FFFFFF80007FFFFFC0003FFFFFE0
FFFFFF80007FFFFFC0003FFFFFE0
FFFFFF80007FFFFFC0003FFFFFE0
FFFFFF80007FFFFFC0003FFFFFE0
FFFFFF80007FFFFFC0003FFFFFE0
FFFFFF80007FFFFFC0003FFFFFE0
FFFFFF80007FFFFFC0003FFFFFE0
FFFFFF80007FFFFFC0003FFFFFE0
FFFFFF80007FFFFFC0003FFFFFE0
FFFFFF80007FFFFFC0003FFFFFE0
FFFFFF80007FFFFFC0003FFFFFE0
FFFFFF80007FFFFFC0003FFFFFE0
FFFFFF80007FFFFFC0003FFFFFE0
FFFFFF80007FFFFFC0003FFFFFE0
FFFFFF80007FFFFFC0003FFFFFE0
FFFFFF80007FFFFFC0003FFFFFE0
FFFFFF80007FFFFFC0003FFFFFE0
FFFFFF80007FFFFFC0003FFFFFE0
FFFFFF80007FFFFFC0003FFFFFE0
FFFFFF80007FFFFFC0003FFFFFE0
FFFFFF80007FFFFFC0003FFFFFE0
FFFFFF80007FFFFFC0003FFFFFE0
FFFFFF80007FFFFFC0003FFFFFE0
FFFFFF80007FFFFFC0003FFFFFE0
FFFFFF80007FFFFFC0003FFFFFE0
FFFFFF80007FFFFFC0003FFFFFE0
FFFFFF80007FFFFFC0003FFFFFE0
FFFFFF80007FFFFFC0003FFFFFE0
00000000007FFFFFC00000000000
00000000007FFFFFC00000000000
00000000007FFFFFC00000000000
00000000007FFFFFC00000000000
00000000007FFFFFC00000000000
00000000007FFFFFC00000000000
00000000007FFFFFC00000000000
00000000007FFFFFC00000000000
00000000007FFFFFC00000000000
00000000007FFFFFC00000000000
00000000007FFFFFC00000000000
00000000007FFFFFC00000000000
00000000007FFFFFC00000000000
00000000007FFFFFC00000000000
00000000007FFFFFC00000000000
00000000007FFFFFC00000000000
00000000007FFFFFC00000000000
00000000007FFFFFC00000000000
00000000007FFFFFC00000000000
00000000007FFFFFC00000000000
00000000007FFFFFC00000000000
00000000007FFFFFC00000000000
00000000007FFFFFC00000000000
00000000007FFFFFC00000000000
00000000007FFFFFC00000000000
00000000007FFFFFC00000000000
00000000007FFFFFC00000000000
00000000007FFFFFC00000000000
00000000007FFFFFC00000000000
00000000007FFFFFC00000000000
00000000007FFFFFC00000000000
00000000007FFFFFC00000000000
00000000007FFFFFC00000000000
00000000007FFFFFC00000000000
00000000007FFFFFC00000000000
00000000007FFFFFC00000000000
00000000007FFFFFC00000000000
00000000007FFFFFC00000000000
00000000007FFFFFC00000000000
00000000007FFFFFC00000000000
00000000007FFFFFC00000000000
00000000007FFFFFC00000000000
00000000007FFFFFC00000000000
00000000007FFFFFC00000000000
00000000007FFFFFC00000000000
00000000007FFFFFC00000000000
00000000007FFFFFC00000000000
00000000007FFFFFC00000000000
00000000007FFFFFC00000000000
00000000007FFFFFC00000000000
00000000007FFFFFC00000000000
00000000007FFFFFC00000000000
00000000007FFFFFC00000000000
00000000007FFFFFC00000000000
00000000007FFFFFC00000000000
00000000007FFFFFC00000000000
00000000007FFFFFC00000000000
00000000007FFFFFC00000000000
00000000007FFFFFC00000000000
00000000007FFFFFC00000000000
00000000007FFFFFC00000000000
00000000007FFFFFC00000000000
00000000007FFFFFC00000000000
00000000007FFFFFC00000000000
00000000007FFFFFC00000000000
00000000007FFFFFC00000000000
00000000007FFFFFC00000000000
00000000007FFFFFC00000000000
00000000007FFFFFC00000000000
00000000007FFFFFC00000000000
00000000007FFFFFC00000000000
00000000007FFFFFC00000000000
00000000007FFFFFC00000000000
00000000007FFFFFC00000000000
00000000007FFFFFC00000000000
00000000007FFFFFC00000000000
00000007FFFFFFFFFFFC00000000
00000007FFFFFFFFFFFC00000000
00000007FFFFFFFFFFFC00000000
00000007FFFFFFFFFFFC00000000
00000007FFFFFFFFFFFC00000000
00000007FFFFFFFFFFFC00000000
00000007FFFFFFFFFFFC00000000
00000007FFFFFFFFFFFC00000000
00000007FFFFFFFFFFFC00000000
00000007FFFFFFFFFFFC00000000
00000007FFFFFFFFFFFC00000000
00000007FFFFFFFFFFFC00000000
00000007FFFFFFFFFFFC00000000
00000007FFFFFFFFFFFC00000000
00000007FFFFFFFFFFFC00000000
00000007FFFFFFFFFFFC00000000
00000007FFFFFFFFFFFC00000000
00000007FFFFFFFFFFFC00000000
00000007FFFFFFFFFFFC00000000
00000007FFFFFFFFFFFC00000000
00000007FFFFFFFFFFFC00000000
00000007FFFFFFFFFFFC00000000
00000007FFFFFFFFFFFC00000000
00000007FFFFFFFFFFFC00000000
00000007FFFFFFFFFFFC00000000
ENDCHAR
STARTCHAR 0055
ENCODING 85
SWIDTH 672 0
DWIDTH 121 0
BBX 111 156 5 -24
BITMAP
FFFFFFFFFFFF8003FFFFFFFFFFFE
FFFFFFFFFFFF8003FFFFFFFFFFFE
FFFFFFFFFFFF8003FFFFFFFFFFFE
FFFFFFFFFFFF8003FFFFFFFFFFFE
FFFFFFFFFFFF8003FFFFFFFFFFFE
FFFFFFFFFFFF8003FFFFFFFFFFFE
FFFFFFFFFFFF8003FFFFFFFFFFFE
FFFFFFFFFFFF8003FFFFFFFFFFFE
FFFFFFFFFFFF8003FFFFFFFFFFFE
FFFFFFFFFFFF8003FFFFFFFFFFFE
FFFFFFFFFFFF8003FFFFFFFFFFFE
FFFFFFFFFFFF8003FFFFFFFFFFFE
FFFFFFFFFFFF8003FFFFFFFFFFFE
FFFFFFFFFFFF8003FFFFFFFFFFFE
FFFFFFFFFFFF8003FFFFFFFFFFFE
FFFFFFFFFFFF8003FFFFFFFFFFFE
FFFFFFFFFFFF8003FFFFFFFFFFFE
FFFFFFFFFFFF8003FFFFFFFFFFFE
FFFFFFFFFFFF8003FFFFFFFFFFFE
FFFFFFFFFFFF8003FFFFFFFFFFFE
FFFFFFFFFFFF8003FFFFFFFFFFFE
FFFFFFFFFFFF8003FFFFFFFFFFFE
FFFFFFFFFFFF8003FFFFFFFFFFFE
FFFFFFFFFFFF8003FFFFFFFFFFFE
FFFFFFFFFFFF8003FFFFFFFFFFFE
000FFFFFF8000000003FFFFFE000
000FFFFFF8000000003FFFFFE000
000FFFFFF8000000003FFFFFE000
000FFFFFF8000000003FFFFFE000
000FFFFFF8000000003FFFFFE000
000FFFFFF8000000003FFFFFE000
000FFFFFF8000000003FFFFFE000
000FFFFFF8000000003FFFFFE000
000FFFFFF8000000003FFFFFE000
000FFFFFF8000000003FFFFFE000
000FFFFFF8000000003FFFFFE000
000FFFFFF8000000003FFFFFE000
000FFFFFF8000000003FFFFFE000
000FFFFFF8000000003FFFFFE000
000FFFFFF8000000003FFFFFE000
000FFFFFF8000000003FFFFFE000
000FFFFFF8000000003FFFFFE000
000FFFFFF8000000003FFFFFE000
000FFFFFF8000000003FFFFFE000
000FFFFFF8000000003FFFFFE000
000FFFFFF8000000003FFFFFE000
000FFFFFF8000000003FFFFFE000
000FFFFFF8000000003FFFFFE000
000FFFFFF8000000003FFFFFE000
000FFFFFF8000000003FFFFFE000
000FFFFFF8000000003FFFFFE000
000FFFFFF8000000003FFFFFE000
000FFFFFF8000000003FFFFFE000
000FFFFFF8000000003FFFFFE000
000FFFFFF8000000003FFFFFE000
000FFFFFF8000000003FFFFFE000
000FFFFFF8000000003FFFFFE000
000FFFFFF8000000003FFFFFE000
000FFFFFF8000000003FFFFFE000
000FFFFFF8000000003FFFFFE000
000FFFFFF8000000003FFFFFE000
000FFFFFF8000000003FFFFFE000
000FFFFFF8000000003FFFFFE000
000FFFFFF8000000003FFFFFE000
000FFFFFF8000000003FFFFFE000
000FFFFFF8000000003FFFFFE000
000FFFFFF8000000003FFFFFE000
000FFFFFF8000000003FFFFFE000
000FFFFFF8000000003FFFFFE000
000FFFFFF8000000003FFFFFE000
000FFFFFF8000000003FFFFFE000
000FFFFFF8000000003FFFFFE000
000FFFFFF8000000003FFFFFE000
000FFFFFF8000000003FFFFFE000
000FFFFFF8000000003FFFFFE000
000FFFFFF8000000003FFFFFE000
000FFFFFF8000000003FFFFFE000
000FFFFFF8000000003FFFFFE000
000FFFFFF8000000003FFFFFE000
000FFFFFF8000000003FFFFFE000
000FFFFFF8000000003FFFFFE000
000FFFFFF8000000003FFFFFE000
000FFFFFF8000000003FFFFFE000
000FFFFFF8000000003FFFFFE000
000FFFFFF8000000003FFFFFE000
000FFFFFF8000000003FFFFFE000
000FFFFFF8000000003FFFFFE000
000FFFFFF8000000003FFFFFE000
000FFFFFF8000000003FFFFFE000
000FFFFFF8000000003FFFFFE000
000FFFFFF8000000003FFFFFE000
000FFFFFF8000000003FFFFFE000
000FFFFFF8000000003FFFFFE000
000FFFFFF8000000003FFFFFE000
000FFFFFF8000000003FFFFFE000
000FFFFFF8000000003FFFFFE000
000FFFFFF8000000003FFFFFE000
000FFFFFF8000000003FFFFFE000
000FFFFFF8000000003FFFFFE000
000FFFFFF8000000003FFFFFE000
000FFFFFF8000000003FFFFFE000
000FFFFFF8000000003FFFFFE000
000FFFFFF8000000003FFFFFE000
000FFFFFF8000000003FFFFFE000
000FFFFFF8000000003FFFFFE000
000FFFFFF8000000003FFFFFE000
000FFFFFF8000000003FFFFFE000
000FFFFFF8000000003FFFFFE000
000FFFFFF8000000003FFFFFE000
000FFFFFF8000000003FFFFFE000
000FFFFFF8000000003FFFFFE000
000FFFFFF8000000003FFFFFE000
000FFFFFF8000000003FFFFFE000
000FFFFFF8000000003FFFFFE000
000FFFFFF8000000003FFFFFE000
000FFFFFF8000000003FFFFFE000
000FFFFFF8000000003FFFFFE000
000FFFFFF8000000003FFFFFE000
000FFFFFF8000000003FFFFFE000
000FFFFFF8000000003FFFFFE000
000FFFFFF8000000003FFFFFE000
000FFFFFF8000000003FFFFFE000
000FFFFFF8000000003FFFFFE000
000FFFFFF8000000003FFFFFE000
000FFFFFF8000000003FFFFFE000
000FFFFFF8000000003FFFFFE000
000FFFFFF8000000003FFFFFE000
000FFFFFF8000000003FFFFFE000
000FFFFFF8000000003FFFFFE000
000FFFFFF8000000003FFFFFE000
000FFFFFF8000000003FFFFFE000
000FFFFFFFFFFFFFFFFFFFFFE000
000FFFFFFFFFFFFFFFFFFFFFE000
000FFFFFFFFFFFFFFFFFFFFFE000
000FFFFFFFFFFFFFFFFFFFFFE000
000FFFFFFFFFFFFFFFFFFFFFE000
000FFFFFFFFFFFFFFFFFFFFFE000
000FFFFFFFFFFFFFFFFFFFFFE000
000FFFFFFFFFFFFFFFFFFFFFE000
000FFFFFFFFFFFFFFFFFFFFFE000
000FFFFFFFFFFFFFFFFFFFFFE000
0007FFFFFFFFFFFFFFFFFFFFC000
0003FFFFFFFFFFFFFFFFFFFF8000
0001FFFFFFFFFFFFFFFFFFFF0000
0000FFFFFFFFFFFFFFFFFFFE0000
00007FFFFFFFFFFFFFFFFFFC0000
00003FFFFFFFFFFFFFFFFFF80000
00001FFFFFFFFFFFFFFFFFF00000
00000FFFFFFFFFFFFFFFFFE00000
000007FFFFFFFFFFFFFFFFC00000
000003FFFFFFFFFFFFFFFF800000
000001FFFFFFFFFFFFFFFF000000
000000FFFFFFFFFFFFFFFE000000
0000007FFFFFFFFFFFFFFC000000
0000003FFFFFFFFFFFFFF8000000
0000000FFFFFFFFFFFFFF0000000
ENDCHAR
ENDFONT
